<svg width="292" height="173" viewBox="0 0 292 173" fill="none" xmlns="http://www.w3.org/2000/svg">
<path d="M235.338 48.8477L277.448 48.8477C278.921 48.8477 280.116 47.6572 280.116 46.1887V4.22861C280.116 2.76011 278.921 1.56966 277.448 1.56966L235.338 1.56966C233.864 1.56966 232.669 2.76011 232.669 4.22861V46.1887C232.669 47.6572 233.864 48.8477 235.338 48.8477Z" stroke="black" stroke-width="2.72196"/>
<path fill-rule="evenodd" clip-rule="evenodd" d="M281.482 14.5234V10.1367C278.801 10.1367 277.386 12.1207 276.248 13.7155V13.7164C275.266 15.0923 274.618 16.0011 273.119 16.0011C271.619 16.0011 270.971 15.0923 269.99 13.7164L269.989 13.7155C268.852 12.1207 267.437 10.1367 264.755 10.1367C262.073 10.1367 260.657 12.1214 259.52 13.7164V13.7168C258.54 15.0924 257.891 16.0011 256.392 16.0011C254.893 16.0011 254.245 15.0924 253.265 13.7168L253.264 13.7164C252.127 12.1214 250.712 10.1367 248.029 10.1367C245.348 10.1367 243.932 12.1214 242.795 13.7164V13.7168C241.814 15.0924 241.166 16.0011 239.666 16.0011C238.167 16.0011 237.52 15.0924 236.539 13.7168L236.538 13.7164C235.401 12.1214 233.986 10.1367 231.304 10.1367V14.5234C233.986 14.5234 235.401 16.508 236.538 18.103L236.539 18.1034C237.52 19.4791 238.167 20.3877 239.666 20.3877C241.166 20.3877 241.814 19.4791 242.795 18.1034V18.103C243.932 16.508 245.348 14.5234 248.029 14.5234C250.712 14.5234 252.127 16.508 253.264 18.103L253.265 18.1034C254.245 19.4791 254.893 20.3877 256.392 20.3877C257.891 20.3877 258.54 19.4791 259.52 18.1034V18.103C260.657 16.508 262.073 14.5234 264.755 14.5234C267.437 14.5234 268.852 16.5074 269.989 18.1022L269.99 18.103C270.971 19.4789 271.619 20.3877 273.119 20.3877C274.618 20.3877 275.266 19.4789 276.248 18.103V18.1022C277.386 16.5074 278.801 14.5234 281.482 14.5234Z" fill="black"/>
<path fill-rule="evenodd" clip-rule="evenodd" d="M281.482 28.2617V23.875C278.801 23.875 277.386 25.859 276.248 27.4538V27.4546C275.266 28.8305 274.618 29.7393 273.119 29.7393C271.619 29.7393 270.971 28.8305 269.99 27.4546L269.989 27.4538C268.852 25.859 267.437 23.875 264.755 23.875C262.073 23.875 260.657 25.8597 259.52 27.4546V27.455C258.54 28.8307 257.891 29.7393 256.392 29.7393C254.893 29.7393 254.245 28.8307 253.265 27.455L253.264 27.4546C252.127 25.8597 250.712 23.875 248.029 23.875C245.348 23.875 243.932 25.8597 242.795 27.4546V27.455C241.814 28.8307 241.166 29.7393 239.666 29.7393C238.167 29.7393 237.52 28.8307 236.539 27.455L236.538 27.4546C235.401 25.8597 233.986 23.875 231.304 23.875V28.2617C233.986 28.2617 235.401 30.2463 236.538 31.8413L236.539 31.8417C237.52 33.2174 238.167 34.126 239.666 34.126C241.166 34.126 241.814 33.2174 242.795 31.8417V31.8413C243.932 30.2463 245.348 28.2617 248.029 28.2617C250.712 28.2617 252.127 30.2463 253.264 31.8413L253.265 31.8417C254.245 33.2174 254.893 34.126 256.392 34.126C257.891 34.126 258.54 33.2174 259.52 31.8417V31.8413C260.657 30.2463 262.073 28.2617 264.755 28.2617C267.437 28.2617 268.852 30.2456 269.989 31.8405L269.99 31.8413C270.971 33.2172 271.619 34.126 273.119 34.126C274.618 34.126 275.266 33.2172 276.248 31.8413V31.8405C277.386 30.2456 278.801 28.2617 281.482 28.2617Z" fill="black"/>
<path fill-rule="evenodd" clip-rule="evenodd" d="M281.482 41.9999V37.6133C278.801 37.6133 277.386 39.5972 276.248 41.1921V41.1929C275.266 42.5688 274.618 43.4776 273.119 43.4776C271.619 43.4776 270.971 42.5688 269.99 41.1929L269.989 41.1921C268.852 39.5972 267.437 37.6133 264.755 37.6133C262.073 37.6133 260.657 39.5979 259.52 41.1929V41.1933C258.54 42.569 257.891 43.4776 256.392 43.4776C254.893 43.4776 254.245 42.569 253.265 41.1933L253.264 41.1929C252.127 39.5979 250.712 37.6133 248.029 37.6133C245.348 37.6133 243.932 39.5979 242.795 41.1929V41.1933C241.814 42.569 241.166 43.4776 239.666 43.4776C238.167 43.4776 237.52 42.569 236.539 41.1933L236.538 41.1929C235.401 39.5979 233.986 37.6133 231.304 37.6133V41.9999C233.986 41.9999 235.401 43.9846 236.538 45.5795L236.539 45.5799C237.52 46.9556 238.167 47.8642 239.666 47.8642C241.166 47.8642 241.814 46.9556 242.795 45.5799V45.5795C243.932 43.9846 245.348 41.9999 248.029 41.9999C250.712 41.9999 252.127 43.9846 253.264 45.5795L253.265 45.5799C254.245 46.9556 254.893 47.8642 256.392 47.8642C257.891 47.8642 258.54 46.9556 259.52 45.5799V45.5795C260.657 43.9846 262.073 41.9999 264.755 41.9999C267.437 41.9999 268.852 43.9839 269.989 45.5787L269.99 45.5795C270.971 46.9554 271.619 47.8642 273.119 47.8642C274.618 47.8642 275.266 46.9554 276.248 45.5795V45.5787C277.386 43.9839 278.801 41.9999 281.482 41.9999Z" fill="black"/>
<path fill-rule="evenodd" clip-rule="evenodd" d="M167.618 9.85326C168.813 9.26286 169.951 8.24271 169.951 6.91319C169.951 5.58366 168.813 4.44818 167.618 5.03861C166.089 5.79309 165.075 7.21665 164.206 8.43372L164.205 8.43461C163.129 9.94476 162.417 10.9422 160.771 10.9422C159.126 10.9422 158.415 9.94476 157.338 8.43461L157.337 8.43372C156.089 6.68335 154.536 4.50586 151.593 4.50586C148.648 4.50586 147.095 6.68409 145.847 8.43461L145.846 8.43506C144.77 9.94496 144.059 10.9422 142.414 10.9422C140.768 10.9422 140.058 9.94496 138.981 8.43506V8.43461C137.732 6.68409 136.179 4.50586 133.235 4.50586C130.292 4.50586 128.738 6.68409 127.49 8.43461V8.43506C126.413 9.94496 125.702 10.9422 124.057 10.9422C122.412 10.9422 121.7 9.94496 120.624 8.43506L120.623 8.43461C119.756 7.21741 118.741 5.79342 117.212 5.03872C116.017 4.44822 114.878 5.58366 114.878 6.91319C114.878 8.24271 116.017 9.26286 117.212 9.85336C118.741 10.6081 119.756 12.0321 120.623 13.2493L120.624 13.2497C121.7 14.7596 122.412 15.7568 124.057 15.7568C125.702 15.7568 126.413 14.7596 127.49 13.2497V13.2493C128.738 11.4988 130.292 9.32046 133.235 9.32046C136.179 9.32046 137.732 11.4988 138.981 13.2493V13.2497C140.058 14.7596 140.768 15.7568 142.414 15.7568C144.059 15.7568 144.77 14.7596 145.846 13.2497L145.847 13.2493C147.095 11.4988 148.648 9.32046 151.593 9.32046C154.536 9.32046 156.089 11.498 157.337 13.2484L157.338 13.2493C158.415 14.7594 159.126 15.7568 160.771 15.7568C162.417 15.7568 163.129 14.7594 164.205 13.2493L164.206 13.2484C165.075 12.0313 166.089 10.6078 167.618 9.85326Z" fill="black"/>
<path fill-rule="evenodd" clip-rule="evenodd" d="M167.618 24.9314C168.813 24.341 169.951 23.3209 169.951 21.9913C169.951 20.6618 168.813 19.5263 167.618 20.1168C166.089 20.8712 165.075 22.2948 164.206 23.5119L164.205 23.5128C163.129 25.0229 162.417 26.0203 160.771 26.0203C159.126 26.0203 158.415 25.0229 157.338 23.5128L157.337 23.5119C156.089 21.7615 154.536 19.584 151.593 19.584C148.648 19.584 147.095 21.7622 145.847 23.5128L145.846 23.5132C144.77 25.0231 144.059 26.0203 142.414 26.0203C140.768 26.0203 140.058 25.0231 138.981 23.5132V23.5128C137.732 21.7622 136.179 19.584 133.235 19.584C130.292 19.584 128.738 21.7622 127.49 23.5128V23.5132C126.413 25.0231 125.702 26.0203 124.057 26.0203C122.412 26.0203 121.7 25.0231 120.624 23.5132L120.623 23.5128C119.756 22.2956 118.741 20.8716 117.212 20.1169C116.017 19.5264 114.878 20.6618 114.878 21.9913C114.878 23.3209 116.017 24.341 117.212 24.9315C118.741 25.6862 119.756 27.1102 120.623 28.3274L120.624 28.3279C121.7 29.8377 122.412 30.835 124.057 30.835C125.702 30.835 126.413 29.8377 127.49 28.3279V28.3274C128.738 26.5769 130.292 24.3987 133.235 24.3987C136.179 24.3987 137.732 26.5769 138.981 28.3274V28.3279C140.058 29.8377 140.768 30.835 142.414 30.835C144.059 30.835 144.77 29.8377 145.846 28.3279L145.847 28.3274C147.095 26.5769 148.648 24.3987 151.593 24.3987C154.536 24.3987 156.089 26.5761 157.337 28.3265L157.338 28.3274C158.415 29.8375 159.126 30.835 160.771 30.835C162.417 30.835 163.129 29.8375 164.205 28.3274L164.206 28.3265C165.075 27.1094 166.089 25.6859 167.618 24.9314Z" fill="black"/>
<path fill-rule="evenodd" clip-rule="evenodd" d="M166.61 40.0095C167.805 39.4191 168.944 38.399 168.944 37.0694C168.944 35.7399 167.805 34.6044 166.61 35.1949C165.082 35.9494 164.067 37.3729 163.199 38.59L163.198 38.5909C162.122 40.101 161.41 41.0984 159.764 41.0984C158.119 41.0984 157.407 40.101 156.33 38.5909V38.59C155.082 36.8396 153.528 34.6621 150.585 34.6621C147.641 34.6621 146.088 36.8404 144.839 38.5909V38.5913C143.762 40.1012 143.052 41.0984 141.406 41.0984C139.761 41.0984 139.05 40.1012 137.973 38.5913V38.5909C136.725 36.8404 135.172 34.6621 132.227 34.6621C129.284 34.6621 127.73 36.8404 126.483 38.5909L126.482 38.5913C125.406 40.1012 124.695 41.0984 123.05 41.0984C121.404 41.0984 120.693 40.1012 119.617 38.5913V38.5909C118.748 37.3737 117.733 35.9497 116.205 35.195C115.009 34.6045 113.871 35.7399 113.871 37.0694C113.871 38.399 115.009 39.4191 116.205 40.0096C117.733 40.7643 118.748 42.1883 119.617 43.4055V43.406C120.693 44.9158 121.404 45.9131 123.05 45.9131C124.695 45.9131 125.406 44.9158 126.482 43.406L126.483 43.4055C127.73 41.655 129.284 39.4768 132.227 39.4768C135.172 39.4768 136.725 41.655 137.973 43.4055V43.406C139.05 44.9158 139.761 45.9131 141.406 45.9131C143.052 45.9131 143.762 44.9158 144.839 43.406V43.4055C146.088 41.655 147.641 39.4768 150.585 39.4768C153.528 39.4768 155.082 41.6543 156.33 43.4046V43.4055C157.407 44.9156 158.119 45.9131 159.764 45.9131C161.41 45.9131 162.122 44.9156 163.198 43.4055L163.199 43.4046C164.067 42.1876 165.082 40.764 166.61 40.0095Z" fill="black"/>
<path d="M5.00872 50.1816L47.1187 50.1816C48.5924 50.1816 49.7871 48.9912 49.7871 47.5227L49.7871 5.5626C49.7871 4.0941 48.5924 2.90364 47.1187 2.90364L5.00872 2.90364C3.53497 2.90364 2.34026 4.0941 2.34026 5.5626L2.34026 47.5227C2.34026 48.9912 3.53497 50.1816 5.00872 50.1816Z" stroke="black" stroke-width="2.72196"/>
<path fill-rule="evenodd" clip-rule="evenodd" d="M51.1527 15.8574V11.4707C48.4706 11.4707 47.0556 13.4547 45.9182 15.0495L45.9176 15.0503C44.9366 16.4262 44.2883 17.335 42.7889 17.335C41.2896 17.335 40.6413 16.4262 39.6603 15.0503L39.6597 15.0495C38.5223 13.4547 37.1072 11.4707 34.4252 11.4707C31.7431 11.4707 30.3276 13.4554 29.1905 15.0503L29.1902 15.0507C28.2095 16.4264 27.5615 17.335 26.0624 17.335C24.5632 17.335 23.9154 16.4264 22.9346 15.0507L22.9343 15.0503C21.7972 13.4554 20.3817 11.4707 17.6996 11.4707C15.0176 11.4707 13.6021 13.4554 12.465 15.0503L12.4647 15.0507C11.4839 16.4264 10.836 17.335 9.33689 17.335C7.83771 17.335 7.18988 16.4264 6.20905 15.0507L6.20875 15.0503C5.07171 13.4554 3.65616 11.4707 0.974121 11.4707V15.8574C3.65616 15.8574 5.07171 17.842 6.20875 19.437L6.20905 19.4374C7.18988 20.813 7.83771 21.7217 9.33689 21.7217C10.836 21.7217 11.4839 20.813 12.4647 19.4374L12.465 19.437C13.6021 17.842 15.0176 15.8574 17.6996 15.8574C20.3817 15.8574 21.7972 17.842 22.9343 19.437L22.9346 19.4374C23.9154 20.813 24.5632 21.7217 26.0624 21.7217C27.5615 21.7217 28.2095 20.813 29.1902 19.4374L29.1905 19.437C30.3276 17.842 31.7431 15.8574 34.4252 15.8574C37.1072 15.8574 38.5223 17.8413 39.6597 19.4361L39.6603 19.437C40.6413 20.8129 41.2896 21.7217 42.7889 21.7217C44.2883 21.7217 44.9366 20.8129 45.9176 19.437L45.9182 19.4361C47.0556 17.8413 48.4706 15.8574 51.1527 15.8574Z" fill="black"/>
<path fill-rule="evenodd" clip-rule="evenodd" d="M51.1527 29.5956V25.209C48.4706 25.209 47.0556 27.1929 45.9182 28.7877L45.9176 28.7886C44.9366 30.1645 44.2883 31.0733 42.7889 31.0733C41.2896 31.0733 40.6413 30.1645 39.6603 28.7886L39.6597 28.7877C38.5223 27.1929 37.1072 25.209 34.4252 25.209C31.7431 25.209 30.3276 27.1936 29.1905 28.7886L29.1902 28.789C28.2095 30.1647 27.5615 31.0733 26.0624 31.0733C24.5632 31.0733 23.9154 30.1647 22.9346 28.789L22.9343 28.7886C21.7972 27.1936 20.3817 25.209 17.6996 25.209C15.0176 25.209 13.6021 27.1936 12.465 28.7886L12.4647 28.789C11.4839 30.1647 10.836 31.0733 9.33689 31.0733C7.83771 31.0733 7.18988 30.1647 6.20905 28.789L6.20875 28.7886C5.07171 27.1936 3.65616 25.209 0.974121 25.209V29.5956C3.65616 29.5956 5.07171 31.5803 6.20875 33.1752L6.20905 33.1756C7.18988 34.5513 7.83771 35.4599 9.33689 35.4599C10.836 35.4599 11.4839 34.5513 12.4647 33.1756L12.465 33.1752C13.6021 31.5803 15.0176 29.5956 17.6996 29.5956C20.3817 29.5956 21.7972 31.5803 22.9343 33.1752L22.9346 33.1756C23.9154 34.5513 24.5632 35.4599 26.0624 35.4599C27.5615 35.4599 28.2095 34.5513 29.1902 33.1756L29.1905 33.1752C30.3276 31.5803 31.7431 29.5956 34.4252 29.5956C37.1072 29.5956 38.5223 31.5796 39.6597 33.1744L39.6603 33.1752C40.6413 34.5511 41.2896 35.4599 42.7889 35.4599C44.2883 35.4599 44.9366 34.5511 45.9176 33.1752L45.9182 33.1744C47.0556 31.5796 48.4706 29.5956 51.1527 29.5956Z" fill="black"/>
<path fill-rule="evenodd" clip-rule="evenodd" d="M51.1527 43.3319V38.9453C48.4706 38.9453 47.0556 40.9293 45.9182 42.5241L45.9176 42.5249C44.9366 43.9008 44.2883 44.8096 42.7889 44.8096C41.2896 44.8096 40.6413 43.9008 39.6603 42.5249L39.6597 42.5241C38.5223 40.9293 37.1072 38.9453 34.4252 38.9453C31.7431 38.9453 30.3276 40.93 29.1905 42.5249L29.1902 42.5253C28.2095 43.901 27.5615 44.8096 26.0624 44.8096C24.5632 44.8096 23.9154 43.901 22.9346 42.5253L22.9343 42.5249C21.7972 40.93 20.3817 38.9453 17.6996 38.9453C15.0176 38.9453 13.6021 40.93 12.465 42.5249L12.4647 42.5253C11.4839 43.901 10.836 44.8096 9.33689 44.8096C7.83771 44.8096 7.18988 43.901 6.20905 42.5253L6.20875 42.5249C5.07171 40.93 3.65616 38.9453 0.974121 38.9453V43.3319C3.65616 43.3319 5.07171 45.3166 6.20875 46.9116L6.20905 46.912C7.18988 48.2876 7.83771 49.1963 9.33689 49.1963C10.836 49.1963 11.4839 48.2876 12.4647 46.912L12.465 46.9116C13.6021 45.3166 15.0176 43.3319 17.6996 43.3319C20.3817 43.3319 21.7972 45.3166 22.9343 46.9116L22.9346 46.912C23.9154 48.2876 24.5632 49.1963 26.0624 49.1963C27.5615 49.1963 28.2095 48.2876 29.1902 46.912L29.1905 46.9116C30.3276 45.3166 31.7431 43.3319 34.4252 43.3319C37.1072 43.3319 38.5223 45.3159 39.6597 46.9107L39.6603 46.9116C40.6413 48.2875 41.2896 49.1963 42.7889 49.1963C44.2883 49.1963 44.9366 48.2875 45.9176 46.9116L45.9182 46.9107C47.0556 45.3159 48.4706 43.3319 51.1527 43.3319Z" fill="black"/>
<mask id="mask0" mask-type="alpha" maskUnits="userSpaceOnUse" x="1" y="100" width="50" height="49">
<path fill-rule="evenodd" clip-rule="evenodd" d="M1.10511 104.914C1.10511 102.697 2.89264 100.9 5.09768 100.9H46.7713C48.9763 100.9 50.7639 102.697 50.7639 104.914V142.512C50.7639 142.512 50.7639 142.513 50.7638 142.513H50.7637V142.525C50.7637 142.531 50.7582 142.536 50.7516 142.537C48.1051 142.543 46.7074 144.52 45.5834 146.11L45.5829 146.11C44.612 147.484 43.9704 148.391 42.4866 148.391C41.0028 148.391 40.3612 147.484 39.3903 146.11L39.3898 146.11C38.2641 144.517 36.8638 142.537 34.2094 142.537C31.5553 142.537 30.1543 144.518 29.029 146.11L29.0288 146.111C28.0581 147.484 27.417 148.391 25.9333 148.391C24.4497 148.391 23.8086 147.484 22.8379 146.111L22.8376 146.11C21.7124 144.518 20.3114 142.537 17.6572 142.537C15.003 142.537 13.6021 144.518 12.4769 146.11L12.4766 146.111C11.5059 147.484 10.8648 148.391 9.38111 148.391C7.89745 148.391 7.25634 147.484 6.28566 146.111L6.28538 146.11C5.50293 145.003 4.58723 143.708 3.20955 143.021C2.13163 142.484 1.10498 141.556 1.10498 140.347V138.157C1.10498 138.157 1.10501 138.157 1.10505 138.157C1.10508 138.157 1.10511 138.157 1.10511 138.157V104.914ZM6.85228 142.513C6.85224 142.513 6.85201 142.513 6.85174 142.513C6.8513 142.513 6.85104 142.513 6.85131 142.513C6.85166 142.514 6.85238 142.514 6.85228 142.513Z" fill="white"/>
</mask>
<g mask="url(#mask0)">
<path fill-rule="evenodd" clip-rule="evenodd" d="M1.10511 104.914C1.10511 102.697 2.89264 100.9 5.09768 100.9H46.7713C48.9763 100.9 50.7639 102.697 50.7639 104.914V142.512C50.7639 142.512 50.7639 142.513 50.7638 142.513H50.7637V142.525C50.7637 142.531 50.7582 142.536 50.7516 142.537C48.1051 142.543 46.7074 144.52 45.5834 146.11L45.5829 146.11C44.612 147.484 43.9704 148.391 42.4866 148.391C41.0028 148.391 40.3612 147.484 39.3903 146.11L39.3898 146.11C38.2641 144.517 36.8638 142.537 34.2094 142.537C31.5553 142.537 30.1543 144.518 29.029 146.11L29.0288 146.111C28.0581 147.484 27.417 148.391 25.9333 148.391C24.4497 148.391 23.8086 147.484 22.8379 146.111L22.8376 146.11C21.7124 144.518 20.3114 142.537 17.6572 142.537C15.003 142.537 13.6021 144.518 12.4769 146.11L12.4766 146.111C11.5059 147.484 10.8648 148.391 9.38111 148.391C7.89745 148.391 7.25634 147.484 6.28566 146.111L6.28538 146.11C5.50293 145.003 4.58723 143.708 3.20955 143.021C2.13163 142.484 1.10498 141.556 1.10498 140.347V138.157C1.10498 138.157 1.10501 138.157 1.10505 138.157C1.10508 138.157 1.10511 138.157 1.10511 138.157V104.914ZM6.85228 142.513C6.85224 142.513 6.85201 142.513 6.85174 142.513C6.8513 142.513 6.85104 142.513 6.85131 142.513C6.85166 142.514 6.85238 142.514 6.85228 142.513Z" fill="#FCBBB5"/>
<path d="M45.5829 146.108L46.3921 146.687L46.3925 146.686L45.5829 146.108ZM45.5824 146.109L44.7731 145.53L44.7727 145.531L45.5824 146.109ZM39.3898 146.109L40.1995 145.531L40.1991 145.53L39.3898 146.109ZM39.3894 146.108L38.5798 146.686L38.5801 146.687L39.3894 146.108ZM29.0286 146.109L28.2189 145.531L28.2182 145.532L29.0286 146.109ZM29.0284 146.109L29.8379 146.687L29.8387 146.686L29.0284 146.109ZM22.8374 146.109L22.0245 146.683L22.0278 146.687L22.8374 146.109ZM22.8371 146.109L23.6501 145.535L23.6469 145.531L22.8371 146.109ZM12.4764 146.109L11.6667 145.531L11.6631 145.536L12.4764 146.109ZM12.4761 146.109L13.2858 146.687L13.2893 146.682L12.4761 146.109ZM6.28518 146.109L5.47189 146.682L5.47554 146.687L6.28518 146.109ZM6.28491 146.109L7.0982 145.536L7.09459 145.531L6.28491 146.109ZM50.7512 142.535L50.7489 141.537L50.7512 142.535ZM3.20907 143.02L3.65017 142.125L3.20907 143.02ZM46.7708 99.9004H5.0972V101.897H46.7708V99.9004ZM51.7565 142.511V104.912H49.7702V142.511H51.7565ZM51.7564 142.523V142.511H49.7701V142.523H51.7564ZM46.3925 146.686C47.5611 145.033 48.6843 143.538 50.7534 143.533L50.7489 141.537C47.5251 141.544 45.8526 144.003 44.7734 145.53L46.3925 146.686ZM46.3916 146.688L46.3921 146.687L44.7737 145.529L44.7731 145.53L46.3916 146.688ZM42.4861 149.388C43.4709 149.388 44.2283 149.072 44.8692 148.526C45.4513 148.029 45.9293 147.342 46.392 146.687L44.7727 145.531C44.2647 146.249 43.9364 146.703 43.584 147.003C43.2905 147.253 42.9852 147.391 42.4861 147.391V149.388ZM38.5803 146.687C39.043 147.342 39.521 148.029 40.103 148.526C40.7439 149.072 41.5014 149.388 42.4861 149.388V147.391C41.987 147.391 41.6818 147.253 41.3882 147.003C41.0358 146.703 40.7076 146.249 40.1995 145.531L38.5803 146.687ZM38.5801 146.687L38.5807 146.688L40.1991 145.53L40.1985 145.529L38.5801 146.687ZM34.209 143.533C36.2845 143.533 37.4093 145.031 38.5798 146.686L40.1988 145.53C39.118 144.001 37.442 141.537 34.209 141.537V143.533ZM29.8382 146.687C31.0082 145.031 32.1336 143.533 34.209 143.533V141.537C30.9759 141.537 29.2995 144.001 28.2189 145.531L29.8382 146.687ZM29.8387 146.686L29.839 146.686L28.2182 145.532L28.2179 145.532L29.8387 146.686ZM25.9329 149.388C26.9175 149.388 27.6749 149.072 28.3156 148.526C28.8976 148.029 29.3753 147.342 29.8379 146.687L28.2187 145.531C27.7106 146.25 27.3826 146.703 27.0303 147.003C26.7369 147.253 26.4318 147.391 25.9329 147.391V149.388ZM22.0278 146.687C22.4904 147.342 22.9682 148.029 23.5502 148.526C24.1909 149.072 24.9482 149.388 25.9329 149.388V147.391C25.4339 147.391 25.1288 147.253 24.8355 147.003C24.4832 146.703 24.1551 146.25 23.6471 145.531L22.0278 146.687ZM22.0242 146.682L22.0245 146.683L23.6503 145.536L23.6501 145.535L22.0242 146.682ZM17.6567 143.533C19.7321 143.533 20.8576 145.031 22.0274 146.687L23.6469 145.531C22.5662 144.001 20.8899 141.537 17.6567 141.537V143.533ZM13.2861 146.687C14.456 145.031 15.5813 143.533 17.6567 143.533V141.537C14.4236 141.537 12.7473 144.001 11.6667 145.531L13.2861 146.687ZM13.2893 146.682L13.2896 146.682L11.6631 145.536L11.6628 145.536L13.2893 146.682ZM9.38064 149.388C10.3653 149.388 11.1226 149.072 11.7634 148.526C12.3453 148.029 12.8231 147.342 13.2858 146.687L11.6664 145.531C11.1584 146.25 10.8303 146.703 10.4781 147.003C10.1847 147.253 9.87962 147.391 9.38064 147.391V149.388ZM5.47554 146.687C5.93816 147.342 6.41599 148.029 6.9979 148.526C7.63869 149.072 8.39596 149.388 9.38064 149.388V147.391C8.88165 147.391 8.57653 147.253 8.28319 147.003C7.93096 146.703 7.6029 146.25 7.09483 145.531L5.47554 146.687ZM5.47162 146.682L5.4719 146.682L7.09847 145.536L7.09819 145.536L5.47162 146.682ZM2.76797 143.914C3.88533 144.471 4.66701 145.543 5.47523 146.687L7.09459 145.531C6.33791 144.46 5.28818 142.941 3.65017 142.125L2.76797 143.914ZM0.111328 138.155V140.345H2.09768V138.155H0.111328ZM0.111458 104.912V138.155H2.09781V104.912H0.111458ZM6.06187 143.118C6.69364 143.949 8.0095 143.369 7.8301 142.339L5.87351 142.684C5.69431 141.655 7.00873 141.076 7.63981 141.905L6.06187 143.118ZM6.85127 143.509C6.36911 143.509 5.95668 143.161 5.87351 142.684L7.8301 142.339C7.74684 141.861 7.33396 141.513 6.85127 141.513V143.509ZM49.7701 142.523C49.7701 141.96 50.2272 141.538 50.7489 141.537L50.7534 143.533C51.2883 143.532 51.7564 143.099 51.7564 142.523H49.7701ZM6.85127 141.513C6.02815 141.513 5.5619 142.461 6.06187 143.118L7.63981 141.905C8.13924 142.562 7.6735 143.509 6.85127 143.509V141.513ZM50.7633 141.513C50.2147 141.513 49.7701 141.96 49.7701 142.511H51.7564C51.7564 143.062 51.3117 143.509 50.7633 143.509V141.513ZM1.10457 139.154C1.6349 139.154 2.09781 138.725 2.09781 138.155H0.111458C0.111458 137.586 0.574308 137.157 1.10457 137.157V139.154ZM49.7702 142.511C49.7702 141.96 50.2148 141.513 50.7633 141.513V143.509C51.3118 143.509 51.7565 143.062 51.7565 142.511H49.7702ZM2.09768 138.155C2.09768 138.707 1.65305 139.154 1.10457 139.154V137.157C0.556018 137.157 0.111328 137.604 0.111328 138.155H2.09768ZM5.0972 99.9004C2.34366 99.9004 0.111458 102.144 0.111458 104.912H2.09781C2.09781 103.247 3.44069 101.897 5.0972 101.897V99.9004ZM3.65017 142.125C2.6543 141.629 2.09768 140.955 2.09768 140.345H0.111328C0.111328 142.154 1.60801 143.336 2.76797 143.914L3.65017 142.125ZM46.7708 101.897C48.4273 101.897 49.7702 103.247 49.7702 104.912H51.7565C51.7565 102.144 49.5243 99.9004 46.7708 99.9004V101.897Z" fill="#3C5D8C"/>
</g>
<mask id="mask1" mask-type="alpha" maskUnits="userSpaceOnUse" x="1" y="100" width="50" height="35">
<path fill-rule="evenodd" clip-rule="evenodd" d="M1.104 104.914C1.104 102.697 2.89154 100.9 5.09657 100.9H46.7702C48.9753 100.9 50.7628 102.697 50.7628 104.914V124.267V124.766C50.7628 126.982 48.7702 128.792 47.2163 130.365C46.5751 131.014 46.0547 131.773 45.5825 132.461L45.5819 132.462C44.6111 133.877 43.9695 134.812 42.4857 134.812C41.0019 134.812 40.3603 133.877 39.3895 132.462L39.3889 132.461C38.2632 130.82 36.8629 128.779 34.2086 128.779C31.5543 128.779 30.1534 130.821 29.0282 132.462L29.0279 132.462C28.0572 133.877 27.4161 134.812 25.9324 134.812C24.4488 134.812 23.8077 133.877 22.837 132.462L22.8367 132.462C21.7114 130.821 20.3105 128.779 17.6563 128.779C15.0021 128.779 13.6011 130.821 12.4759 132.462L12.4756 132.462C11.505 133.877 10.8639 134.812 9.38016 134.812C7.8965 134.812 7.25539 133.877 6.28473 132.462H6.28471L6.28443 132.462C5.16268 130.826 3.76705 128.792 1.12892 128.779C1.11534 128.779 1.10401 128.768 1.104 128.755V104.914ZM6.85133 128.755C6.85129 128.755 6.85105 128.755 6.85078 128.755C6.85033 128.755 6.85007 128.755 6.85034 128.756C6.85069 128.756 6.85142 128.756 6.85133 128.755Z" fill="white"/>
</mask>
<g mask="url(#mask1)">
<path fill-rule="evenodd" clip-rule="evenodd" d="M1.104 104.914C1.104 102.697 2.89154 100.9 5.09657 100.9H46.7702C48.9753 100.9 50.7628 102.697 50.7628 104.914V124.267V124.766C50.7628 126.982 48.7702 128.792 47.2163 130.365C46.5751 131.014 46.0547 131.773 45.5825 132.461L45.5819 132.462C44.6111 133.877 43.9695 134.812 42.4857 134.812C41.0019 134.812 40.3603 133.877 39.3895 132.462L39.3889 132.461C38.2632 130.82 36.8629 128.779 34.2086 128.779C31.5543 128.779 30.1534 130.821 29.0282 132.462L29.0279 132.462C28.0572 133.877 27.4161 134.812 25.9324 134.812C24.4488 134.812 23.8077 133.877 22.837 132.462L22.8367 132.462C21.7114 130.821 20.3105 128.779 17.6563 128.779C15.0021 128.779 13.6011 130.821 12.4759 132.462L12.4756 132.462C11.505 133.877 10.8639 134.812 9.38016 134.812C7.8965 134.812 7.25539 133.877 6.28473 132.462H6.28471L6.28443 132.462C5.16268 130.826 3.76705 128.792 1.12892 128.779C1.11534 128.779 1.10401 128.768 1.104 128.755V104.914ZM6.85133 128.755C6.85129 128.755 6.85105 128.755 6.85078 128.755C6.85033 128.755 6.85007 128.755 6.85034 128.756C6.85069 128.756 6.85142 128.756 6.85133 128.755Z" fill="#B3FFF7"/>
<path d="M50.7633 124.265H51.7565H50.7633ZM45.583 132.459L46.3991 133.028L46.4006 133.026L45.583 132.459ZM45.5824 132.46L44.7663 131.891L44.7648 131.893L45.5824 132.46ZM39.39 132.46L38.5722 133.027L38.5723 133.027L39.39 132.46ZM39.3894 132.459L40.2071 131.893L40.2069 131.892L39.3894 132.459ZM29.0287 132.46L28.211 131.893L28.2086 131.897L29.0287 132.46ZM29.0284 132.46L29.8461 133.027L29.8485 133.023L29.0284 132.46ZM22.8375 132.46L23.6551 131.894L23.6549 131.893L22.8375 132.46ZM22.8372 132.46L22.0196 133.027L22.0199 133.027L22.8372 132.46ZM12.4764 132.46L13.2902 133.032L13.2941 133.027L12.4764 132.46ZM12.4761 132.46L11.6623 131.888L11.6585 131.894L12.4761 132.46ZM6.28523 132.46L7.10287 131.894L7.09164 131.877L7.07977 131.861L6.28523 132.46ZM6.28521 132.46L5.46581 133.025L5.47787 133.042L5.49067 133.059L6.28521 132.46ZM6.28493 132.46L7.10433 131.896L7.10261 131.893L6.28493 132.46ZM50.7633 104.912H51.7565H50.7633ZM46.7707 99.9004H5.09707V101.897H46.7707V99.9004ZM51.7565 124.265V104.912H49.7702V124.265H51.7565ZM51.7565 124.764V124.265H49.7702V124.764H51.7565ZM46.4006 133.026C46.8804 132.327 47.3529 131.643 47.9215 131.067L46.5121 129.66C45.7984 130.382 45.2299 131.215 44.7655 131.892L46.4006 133.026ZM46.3985 133.029L46.3991 133.028L44.7669 131.89L44.7663 131.891L46.3985 133.029ZM42.4862 135.809C43.4795 135.809 44.2405 135.48 44.8804 134.917C45.4608 134.407 45.9372 133.702 46.4001 133.027L44.7648 131.893C44.2569 132.634 43.927 133.103 43.573 133.414C43.2783 133.673 42.9767 133.812 42.4862 133.812V135.809ZM38.5723 133.027C39.0352 133.702 39.5116 134.407 40.092 134.917C40.7317 135.48 41.4928 135.809 42.4862 135.809V133.812C41.9958 133.812 41.6941 133.673 41.3994 133.414C41.0454 133.103 40.7156 132.634 40.2076 131.893L38.5723 133.027ZM38.5716 133.026L38.5722 133.027L40.2077 131.893L40.2071 131.893L38.5716 133.026ZM34.2091 129.776C36.2711 129.776 37.3957 131.312 38.5718 133.026L40.2069 131.892C39.1317 130.325 37.4556 127.779 34.2091 127.779V129.776ZM29.8463 133.027C31.0219 131.313 32.1471 129.776 34.2091 129.776V127.779C30.9625 127.779 29.286 130.326 28.211 131.893L29.8463 133.027ZM29.8485 133.023L29.8488 133.023L28.2086 131.897L28.2083 131.897L29.8485 133.023ZM25.9329 135.809C26.9261 135.809 27.6871 135.48 28.3267 134.917C28.907 134.407 29.3833 133.702 29.8461 133.027L28.2107 131.894C27.7029 132.634 27.3732 133.103 27.0193 133.414C26.7247 133.673 26.4233 133.812 25.9329 133.812V135.809ZM22.0199 133.027C22.4827 133.702 22.9589 134.407 23.5391 134.917C24.1787 135.48 24.9397 135.809 25.9329 135.809V133.812C25.4425 133.812 25.1411 133.673 24.8466 133.414C24.4927 133.103 24.163 132.634 23.6551 131.894L22.0199 133.027ZM22.0199 133.027L22.0202 133.028L23.6549 131.893L23.6546 131.893L22.0199 133.027ZM17.6568 129.776C19.7188 129.776 20.8439 131.313 22.0196 133.027L23.6549 131.893C22.5799 130.326 20.9033 127.779 17.6568 127.779V129.776ZM13.2941 133.027C14.4697 131.313 15.5948 129.776 17.6568 129.776V127.779C14.4102 127.779 12.7337 130.326 11.6588 131.893L13.2941 133.027ZM13.2899 133.033L13.2902 133.032L11.6626 131.888L11.6623 131.888L13.2899 133.033ZM9.38066 135.809C10.3739 135.809 11.1348 135.48 11.7745 134.917C12.3548 134.407 12.831 133.702 13.2938 133.027L11.6585 131.894C11.1505 132.634 10.8209 133.103 10.467 133.414C10.1725 133.673 9.87108 133.812 9.38066 133.812V135.809ZM5.46759 133.027C5.93036 133.702 6.40656 134.407 6.98681 134.917C7.62647 135.48 8.38742 135.809 9.38066 135.809V133.812C8.89024 133.812 8.58881 133.673 8.29434 133.414C7.94045 133.103 7.61077 132.634 7.10287 131.894L5.46759 133.027ZM5.49067 133.059H5.49068L7.07977 131.861H7.07976L5.49067 133.059ZM5.46553 133.024L5.46581 133.025L7.10461 131.896L7.10433 131.896L5.46553 133.024ZM1.12465 129.776C3.17359 129.786 4.29522 131.318 5.46725 133.027L7.10261 131.893C6.03114 130.331 4.36151 127.795 1.13418 127.779L1.12465 129.776ZM0.111328 104.912V128.753H2.09768V104.912H0.111328ZM6.05309 129.349C6.67566 130.192 8.00582 129.622 7.83102 128.587L5.87264 128.92C5.69803 127.886 7.02672 127.316 7.64859 128.159L6.05309 129.349ZM6.85129 127.755C6.03488 127.755 5.56678 128.689 6.05309 129.349L7.64859 128.159C8.13436 128.818 7.66678 129.751 6.85129 129.751V127.755ZM46.7707 101.897C48.4272 101.897 49.7702 103.247 49.7702 104.912H51.7565C51.7565 102.144 49.5243 99.9004 46.7707 99.9004V101.897ZM1.13418 127.779C1.64719 127.782 2.09738 128.197 2.09768 128.753L0.111328 128.754C0.111639 129.336 0.584495 129.774 1.12465 129.776L1.13418 127.779ZM6.85129 129.751C6.36713 129.751 5.95362 129.4 5.87264 128.92L7.83102 128.587C7.74995 128.106 7.33597 127.755 6.85129 127.755V129.751ZM49.7702 124.764C49.7702 125.563 49.4117 126.359 48.7787 127.206C48.1392 128.061 47.3215 128.841 46.5121 129.66L47.9215 131.067C48.6659 130.314 49.6214 129.402 50.3668 128.405C51.1187 127.399 51.7565 126.182 51.7565 124.764H49.7702ZM5.09707 99.9004C2.34352 99.9004 0.111328 102.144 0.111328 104.912H2.09768C2.09768 103.247 3.44055 101.897 5.09707 101.897V99.9004Z" fill="#3C5D8C"/>
</g>
<mask id="mask2" mask-type="alpha" maskUnits="userSpaceOnUse" x="1" y="100" width="50" height="22">
<path fill-rule="evenodd" clip-rule="evenodd" d="M1.10512 104.914C1.10512 102.697 2.89266 100.9 5.09768 100.9H46.7714C48.9764 100.9 50.764 102.697 50.764 104.914V115.168C50.764 115.168 50.764 115.168 50.7639 115.168V115.18C50.7639 115.187 50.7583 115.192 50.7517 115.192C48.1053 115.198 46.7075 117.176 45.5835 118.765L45.5829 118.766C44.6121 120.14 43.9705 121.047 42.4867 121.047C41.0029 121.047 40.3613 120.14 39.3904 118.766L39.3898 118.765C38.2642 117.173 36.8639 115.192 34.2095 115.192C31.5553 115.192 30.1544 117.174 29.0291 118.766L29.0288 118.767C28.0582 120.14 27.4171 121.047 25.9334 121.047C24.4497 121.047 23.8086 120.14 22.838 118.767L22.8377 118.766C21.7124 117.174 20.3115 115.192 17.6573 115.192C15.003 115.192 13.6022 117.174 12.4769 118.766L12.4766 118.767C11.5059 120.14 10.8648 121.047 9.38113 121.047C7.89747 121.047 7.25635 120.14 6.28568 118.767L6.2854 118.766C5.50295 117.659 4.58723 116.364 3.20954 115.677C2.13162 115.14 1.10498 114.212 1.10498 113.003V110.813C1.10498 110.813 1.10501 110.813 1.10505 110.813C1.10509 110.813 1.10512 110.813 1.10512 110.813V104.914ZM6.85229 115.169C6.85224 115.169 6.852 115.168 6.85173 115.168C6.85127 115.168 6.851 115.169 6.85129 115.169C6.85164 115.17 6.85239 115.169 6.85229 115.169Z" fill="white"/>
</mask>
<g mask="url(#mask2)">
<path fill-rule="evenodd" clip-rule="evenodd" d="M1.10512 104.914C1.10512 102.697 2.89266 100.9 5.09768 100.9H46.7714C48.9764 100.9 50.764 102.697 50.764 104.914V115.168C50.764 115.168 50.764 115.168 50.7639 115.168V115.18C50.7639 115.187 50.7583 115.192 50.7517 115.192C48.1053 115.198 46.7075 117.176 45.5835 118.765L45.5829 118.766C44.6121 120.14 43.9705 121.047 42.4867 121.047C41.0029 121.047 40.3613 120.14 39.3904 118.766L39.3898 118.765C38.2642 117.173 36.8639 115.192 34.2095 115.192C31.5553 115.192 30.1544 117.174 29.0291 118.766L29.0288 118.767C28.0582 120.14 27.4171 121.047 25.9334 121.047C24.4497 121.047 23.8086 120.14 22.838 118.767L22.8377 118.766C21.7124 117.174 20.3115 115.192 17.6573 115.192C15.003 115.192 13.6022 117.174 12.4769 118.766L12.4766 118.767C11.5059 120.14 10.8648 121.047 9.38113 121.047C7.89747 121.047 7.25635 120.14 6.28568 118.767L6.2854 118.766C5.50295 117.659 4.58723 116.364 3.20954 115.677C2.13162 115.14 1.10498 114.212 1.10498 113.003V110.813C1.10498 110.813 1.10501 110.813 1.10505 110.813C1.10509 110.813 1.10512 110.813 1.10512 110.813V104.914ZM6.85229 115.169C6.85224 115.169 6.852 115.168 6.85173 115.168C6.85127 115.168 6.851 115.169 6.85129 115.169C6.85164 115.17 6.85239 115.169 6.85229 115.169Z" fill="#375580"/>
<path d="M45.583 118.764L46.3911 119.344L46.3925 119.342L45.583 118.764ZM45.5824 118.765L44.7744 118.184L44.7728 118.186L45.5824 118.765ZM39.3899 118.765L40.1996 118.186L40.198 118.184L39.3899 118.765ZM39.3893 118.764L38.5799 119.342L38.5813 119.344L39.3893 118.764ZM29.0286 118.765L29.8376 119.344L29.8383 119.343L29.0286 118.765ZM29.0283 118.765L28.2195 118.186L28.2187 118.187L29.0283 118.765ZM22.8375 118.765L22.0257 119.34L22.0278 119.343L22.8375 118.765ZM22.8372 118.765L23.6489 118.189L23.6469 118.186L22.8372 118.765ZM12.4764 118.765L11.6667 118.186L11.6643 118.19L12.4764 118.765ZM12.4761 118.765L13.2707 119.364L13.2796 119.352L13.2881 119.34L12.4761 118.765ZM12.4761 118.765L11.6816 118.166L11.6739 118.176L11.6664 118.187L12.4761 118.765ZM6.2852 118.765L7.09488 118.187L7.09036 118.18L6.2852 118.765ZM6.28492 118.765L5.47521 119.343L5.47977 119.349L6.28492 118.765ZM50.7512 115.191L50.7534 116.189L50.7512 115.191ZM46.7709 99.9004H5.0972V101.897H46.7709V99.9004ZM51.7566 115.167V104.912H49.7702V115.167H51.7566ZM51.7565 115.179V115.167H49.7701V115.179H51.7565ZM46.3925 119.342C47.5612 117.689 48.6844 116.194 50.7534 116.189L50.749 114.192C47.5251 114.2 45.8527 116.659 44.7735 118.185L46.3925 119.342ZM46.3905 119.345L46.3911 119.344L44.775 118.183L44.7744 118.184L46.3905 119.345ZM42.4862 122.044C43.4709 122.044 44.2283 121.728 44.8693 121.181C45.4514 120.685 45.9294 119.998 46.3921 119.343L44.7728 118.186C44.2647 118.905 43.9364 119.358 43.5841 119.659C43.2906 119.909 42.9852 120.047 42.4862 120.047V122.044ZM38.5804 119.343C39.0431 119.998 39.521 120.685 40.1031 121.181C40.744 121.728 41.5015 122.044 42.4862 122.044V120.047C41.9871 120.047 41.6818 119.909 41.3883 119.659C41.0359 119.358 40.7077 118.905 40.1996 118.186L38.5804 119.343ZM38.5813 119.344L38.5819 119.345L40.198 118.184L40.1974 118.183L38.5813 119.344ZM34.209 116.189C36.2846 116.189 37.4094 117.687 38.5799 119.342L40.1989 118.185C39.118 116.656 37.4421 114.192 34.209 114.192V116.189ZM29.8383 119.343C31.0083 117.687 32.1337 116.189 34.209 116.189V114.192C30.9759 114.192 29.2996 116.657 28.219 118.186L29.8383 119.343ZM29.8373 119.344L29.8376 119.344L28.2198 118.185L28.2195 118.186L29.8373 119.344ZM25.933 122.044C26.9176 122.044 27.6748 121.728 28.3157 121.181C28.8975 120.685 29.3754 119.998 29.838 119.343L28.2187 118.187C27.7106 118.906 27.3826 119.359 27.0304 119.659C26.737 119.909 26.4319 120.047 25.933 120.047V122.044ZM22.0278 119.343C22.4904 119.998 22.9683 120.685 23.5502 121.181C24.191 121.728 24.9482 122.044 25.933 122.044V120.047C25.434 120.047 25.1288 119.909 24.8354 119.659C24.4832 119.359 24.1552 118.906 23.6472 118.187L22.0278 119.343ZM22.0254 119.34L22.0257 119.34L23.6491 118.19L23.6489 118.189L22.0254 119.34ZM17.6568 116.189C19.7321 116.189 20.8575 117.687 22.0275 119.343L23.6469 118.186C22.5663 116.657 20.8899 114.192 17.6568 114.192V116.189ZM13.2861 119.343C14.456 117.687 15.5814 116.189 17.6568 116.189V114.192C14.4236 114.192 12.7473 116.657 11.6667 118.186L13.2861 119.343ZM13.2881 119.34L13.2884 119.339L11.6643 118.19L11.664 118.19L13.2881 119.34ZM13.2706 119.364H13.2707L11.6816 118.166V118.166L13.2706 119.364ZM9.38065 122.044C10.3653 122.044 11.1226 121.728 11.7634 121.181C12.3453 120.685 12.8232 119.998 13.2858 119.343L11.6664 118.187C11.1584 118.906 10.8303 119.359 10.4781 119.659C10.1848 119.909 9.87964 120.047 9.38065 120.047V122.044ZM5.47556 119.343C5.93818 119.998 6.416 120.685 6.99791 121.181C7.63871 121.728 8.39598 122.044 9.38065 122.044V120.047C8.88167 120.047 8.57655 119.909 8.28321 119.659C7.93098 119.359 7.60291 118.906 7.09486 118.187L5.47556 119.343ZM5.47977 119.349L5.48006 119.35L7.09036 118.18L7.09006 118.18L5.47977 119.349ZM2.76796 116.57C3.88533 117.127 4.66701 118.199 5.47523 119.343L7.0946 118.186C6.33792 117.116 5.28818 115.597 3.65015 114.781L2.76796 116.57ZM0.111328 110.811V113.001H2.09768V110.811H0.111328ZM0.111467 104.912V110.811H2.09782V104.912H0.111467ZM6.06175 115.774C6.69303 116.604 8.00827 116.026 7.83033 114.996L5.8733 115.338C5.69555 114.31 7.00929 113.732 7.63986 114.561L6.06175 115.774ZM6.85125 116.165C6.36861 116.165 5.95591 115.816 5.8733 115.338L7.83033 114.996C7.74761 114.518 7.33444 114.168 6.85125 114.168V116.165ZM6.85125 114.168C6.02817 114.168 5.5619 115.117 6.06175 115.774L7.63986 114.561C8.13914 115.218 7.6734 116.165 6.85125 116.165V114.168ZM49.7701 115.179C49.7701 114.616 50.2271 114.194 50.749 114.192L50.7534 116.189C51.2885 116.188 51.7565 115.755 51.7565 115.179H49.7701ZM1.10457 111.81C1.6492 111.81 2.09782 111.366 2.09782 110.811H0.111467C0.111467 110.256 0.56002 109.813 1.10457 109.813V111.81ZM50.7634 114.168C50.2148 114.168 49.7701 114.615 49.7701 115.167H51.7565C51.7565 115.718 51.3118 116.165 50.7634 116.165V114.168ZM2.09768 110.811C2.09768 111.363 1.65305 111.81 1.10457 111.81V109.813C0.556019 109.813 0.111328 110.26 0.111328 110.811H2.09768ZM49.7702 115.167C49.7702 114.615 50.2149 114.168 50.7634 114.168V116.165C51.3119 116.165 51.7566 115.718 51.7566 115.167H49.7702ZM3.65015 114.781C2.65429 114.285 2.09768 113.61 2.09768 113.001H0.111328C0.111328 114.81 1.608 115.992 2.76796 116.57L3.65015 114.781ZM5.0972 99.9004C2.34366 99.9004 0.111467 102.144 0.111467 104.912H2.09782C2.09782 103.247 3.44069 101.897 5.0972 101.897V99.9004ZM46.7709 101.897C48.4274 101.897 49.7702 103.247 49.7702 104.912H51.7566C51.7566 102.144 49.5244 99.9004 46.7709 99.9004V101.897Z" fill="#3C5D8C"/>
</g>
<path d="M139.54 169.255C139.54 171.818 140.918 172.575 141.605 172.633V154.357C140.059 151.83 137.482 148.054 139.54 153.171C142.114 159.567 139.54 166.051 139.54 169.255Z" fill="#375580"/>
<path d="M143.638 169.255C143.638 171.818 142.261 172.575 141.573 172.633V154.357C143.12 151.83 145.697 148.054 143.638 153.171C141.064 159.567 143.638 166.051 143.638 169.255Z" fill="#375580"/>
<path d="M142.849 153.1H140.631V155.202H142.849V153.1Z" fill="#375580"/>
<path d="M165.772 160.731C165.772 162.86 166.668 163.489 167.116 163.537V148.357C166.109 146.257 164.433 143.121 165.772 147.371C167.447 152.684 165.772 158.07 165.772 160.731Z" fill="#375580"/>
<path d="M168.439 160.731C168.439 162.86 167.542 163.489 167.094 163.537V148.357C168.101 146.257 169.779 143.121 168.439 147.371C166.763 152.684 168.439 158.07 168.439 160.731Z" fill="#375580"/>
<path d="M167.925 147.312H166.482V149.058H167.925V147.312Z" fill="#375580"/>
<path fill-rule="evenodd" clip-rule="evenodd" d="M118.504 100.621C116.304 100.621 114.52 102.414 114.52 104.626V142.746C114.52 142.746 114.52 142.747 114.519 142.747C114.519 142.747 114.518 142.747 114.518 142.747V145.071V145.072L114.519 145.086C114.521 145.47 114.621 145.828 114.791 146.154C114.91 146.503 115.072 146.934 115.284 147.46C117.136 152.063 116.323 156.711 115.721 160.15C115.486 161.49 115.284 162.646 115.284 163.544C115.284 166.067 116.618 166.84 117.316 166.919V166.922L117.333 166.921L117.349 166.922V166.919C118.048 166.84 119.381 166.067 119.381 163.544C119.381 162.646 119.179 161.49 118.944 160.15C118.427 157.19 117.752 153.334 118.754 149.383C119.302 149.964 119.767 150.602 120.195 151.19L120.196 151.19C121.259 152.648 121.962 153.611 123.588 153.611C125.214 153.611 125.916 152.648 126.98 151.19V151.19C128.213 149.499 129.748 147.396 132.657 147.396C135.565 147.396 137.101 149.499 138.334 151.19V151.19C139.304 152.519 139.974 153.437 141.316 153.589C141.41 153.611 141.526 153.618 141.658 153.612C141.729 153.616 141.807 153.614 141.891 153.608C142.613 153.577 143.146 153.345 143.62 152.958C143.734 152.875 143.826 152.791 143.896 152.709C144.302 152.309 144.68 151.792 145.119 151.19V151.19C146.352 149.499 147.887 147.396 150.796 147.396C153.704 147.396 155.239 149.498 156.473 151.189V151.19C157.537 152.648 158.24 153.611 159.866 153.611C161.492 153.611 162.195 152.648 163.259 151.19L163.26 151.189C164.13 149.997 165.149 148.601 166.693 147.88C167.852 147.34 168.937 146.355 168.937 145.071V142.747C168.937 142.747 168.936 142.747 168.936 142.747C168.936 142.747 168.936 142.746 168.936 142.746L168.935 142.746C168.937 142.689 168.938 142.631 168.938 142.574V104.626C168.938 102.414 167.154 100.621 164.954 100.621H118.504ZM116.928 147.961C116.925 147.96 116.923 147.959 116.922 147.958C116.923 147.96 116.924 147.962 116.925 147.964C116.925 147.963 116.927 147.962 116.928 147.961Z" fill="#375580"/>
<path d="M147.368 157.863C147.368 159.674 148.746 160.208 149.434 160.249V147.337C147.887 145.552 145.31 142.884 147.368 146.499C149.942 151.018 147.368 155.599 147.368 157.863Z" fill="#375580"/>
<path d="M151.467 157.863C151.467 159.674 150.089 160.208 149.401 160.249V147.337C150.948 145.552 153.525 142.884 151.467 146.499C148.893 151.018 151.467 155.599 151.467 157.863Z" fill="#375580"/>
<path d="M150.677 146.449H148.459V147.934H150.677V146.449Z" fill="#375580"/>
<path d="M133.035 157.356C132.346 157.315 131.172 156.769 130.969 154.969C130.669 152.315 133.635 147.895 132.519 143.778C131.163 141.85 130.044 139.002 131.874 142.216C132.167 142.728 132.377 143.25 132.519 143.778C132.689 144.019 132.862 144.245 133.035 144.444V157.356Z" fill="#375580"/>
<path d="M135.068 154.97C135.068 156.781 133.691 157.316 133.002 157.357V144.445C134.549 142.659 137.127 139.991 135.068 143.607C132.494 148.126 135.068 152.707 135.068 154.97Z" fill="#375580"/>
<path d="M134.277 143.555H132.059V145.04H134.277V143.555Z" fill="#375580"/>
<path d="M137.594 150.222C134.47 147.14 133.939 148.844 134.079 150.06L133.239 146.764H137.943C139.129 149.201 140.718 153.305 137.594 150.222Z" fill="#69688C"/>
<path d="M158.044 164.697C158.044 166.485 159.326 167.013 159.968 167.054V154.299C158.527 152.535 156.125 149.9 158.044 153.471C160.441 157.935 158.044 162.461 158.044 164.697Z" fill="#375580"/>
<path d="M161.861 164.697C161.861 166.485 160.578 167.014 159.937 167.054V154.299C161.377 152.535 163.779 149.9 161.861 153.471C159.463 157.935 161.861 162.461 161.861 164.697Z" fill="#375580"/>
<path d="M160.986 153.422H158.919V154.889H160.986V153.422Z" fill="#375580"/>
<path d="M121.562 161.782C121.562 163.195 122.938 163.613 123.627 163.645V153.564C122.081 152.17 119.502 150.088 121.562 152.91C124.135 156.438 121.562 160.014 121.562 161.782Z" fill="#375580"/>
<path d="M125.659 161.782C125.659 163.195 124.282 163.613 123.594 163.645V153.564C125.141 152.17 127.718 150.088 125.659 152.91C123.085 156.438 125.659 160.015 125.659 161.782Z" fill="#375580"/>
<path d="M125.009 152.828H122.918V153.77H125.009V152.828Z" fill="#375580"/>
<path d="M142.824 152.959H140.353V153.901H142.824V152.959Z" fill="#375580"/>
<path d="M162.277 152.456C162.269 152.457 162.244 152.497 162.232 152.517L162.213 152.443C162.238 152.447 162.285 152.454 162.277 152.456Z" fill="#69688C"/>
<path d="M139.493 152.828C139.455 152.655 139.325 152.449 139.264 152.367H139.563C139.556 152.593 139.53 153.001 139.493 152.828Z" fill="#375580"/>
<path d="M133.748 147.564C133.748 147.564 133.748 147.563 133.748 147.562V147.305C133.876 147.4 134.093 147.581 133.939 147.541C133.788 147.503 133.75 147.538 133.748 147.562V147.564Z" fill="#375580"/>
<path d="M139.519 152.911C139.435 152.647 139.301 152.473 139.165 152.252C139.029 152.032 139.716 152.371 139.716 152.371C139.685 152.661 139.603 153.174 139.519 152.911Z" fill="#375580"/>
<path d="M139.706 153.392C139.543 152.962 139.172 152.322 139.007 152.057L140.383 152.82C140.225 153.19 139.868 153.823 139.706 153.392Z" fill="#375580"/>
<path d="M166.102 148.663C165.92 148.406 165.352 148.77 165.09 148.984L164.787 147.799L166.812 147.996C166.651 148.325 166.286 148.92 166.102 148.663Z" fill="#375580"/>
<path d="M131.225 152.696C132.304 147.531 129.006 148.779 128.931 148.876C128.857 148.972 127.326 146.296 127.326 146.296L134.936 145.615C133.249 150.128 130.146 157.861 131.225 152.696Z" fill="#375580"/>
<path d="M129.754 148.672C129.153 148.727 128.759 149.013 128.637 149.149L128.941 148.318C129.462 148.413 130.354 148.617 129.754 148.672Z" fill="#375580"/>
<path d="M120.58 151.728C118.509 149.285 118.579 150.441 118.427 151.028L117.833 149.297L120.752 149.454C121.261 151.033 122.651 154.172 120.58 151.728Z" fill="#375580"/>
<path d="M144.348 152.197C143.794 152.92 143.395 153.836 143.264 154.203L142.063 152.197C143.056 151.895 144.903 151.473 144.348 152.197Z" fill="#375580"/>
<path d="M148.45 151.97C148.533 147.767 146.789 149.001 145.906 150.143L145.577 148.108L149.437 147.76C149.074 150.915 148.367 156.174 148.45 151.97Z" fill="#375580"/>
<path d="M166.459 153.876C166.416 145.169 161.687 153.768 161.663 153.876L159.361 146.01L167.93 143.748C167.453 150.027 166.493 160.842 166.459 153.876Z" fill="#375580"/>
<path d="M158.323 154.102C152.195 144.776 150.432 148.679 150.318 151.796L149.062 150.056L151.962 136.963C156.636 146.562 164.451 163.428 158.323 154.102Z" fill="#375580"/>
<path d="M138.274 151.152C134.801 147.144 133.616 148.287 134.228 150.957L133.002 145.922L139.886 145.672C140.795 149.169 141.747 155.16 138.274 151.152Z" fill="#375580"/>
<path d="M140.481 156.985C139.94 153.55 138.39 151.23 137.683 150.5L141.138 150.184C141.145 153.882 141.023 160.421 140.481 156.985Z" fill="#375580"/>
<path d="M159.113 158.702C158.986 155 157.823 153.068 157.259 152.564L160.328 152.918C159.976 156.389 159.241 162.405 159.113 158.702Z" fill="#375580"/>
<g filter="url(#filter0_d)">
<g filter="url(#filter1_d)">
<path fill-rule="evenodd" clip-rule="evenodd" d="M114.624 107.29C114.624 105.082 116.404 103.293 118.6 103.293H164.961C167.157 103.293 168.937 105.082 168.937 107.29V134.553C168.937 134.554 168.937 134.554 168.937 134.554C168.935 134.554 168.935 134.554 168.935 134.555V134.555C168.935 134.556 168.934 134.556 168.934 134.556C166.032 134.557 164.5 136.655 163.27 138.342L163.269 138.343C162.207 139.798 161.506 140.76 159.882 140.76C158.259 140.76 157.557 139.798 156.496 138.343V138.342C155.264 136.655 153.733 134.556 150.83 134.556C147.927 134.556 146.395 136.656 145.164 138.343L145.163 138.343C144.726 138.944 144.348 139.46 143.943 139.859C143.875 139.941 143.781 140.025 143.667 140.109C143.195 140.494 142.663 140.725 141.945 140.756C141.86 140.763 141.781 140.764 141.709 140.76C141.578 140.767 141.462 140.759 141.368 140.737C140.028 140.586 139.36 139.67 138.392 138.343V138.343C137.161 136.656 135.629 134.556 132.726 134.556C129.823 134.556 128.291 136.656 127.06 138.343L127.059 138.343C125.997 139.799 125.296 140.76 123.674 140.76C122.051 140.76 121.35 139.799 120.289 138.343V138.343C119.421 137.153 118.403 135.759 116.861 135.04C115.704 134.501 114.622 133.518 114.622 132.236V129.917C114.622 129.917 114.623 129.916 114.623 129.916C114.624 129.916 114.624 129.916 114.624 129.915V107.29Z" fill="#FCBBB5"/>
</g>
<g filter="url(#filter2_d)">
<path fill-rule="evenodd" clip-rule="evenodd" d="M114.625 104.655C114.625 102.448 116.404 100.658 118.601 100.658H164.962C167.157 100.658 168.938 102.448 168.938 104.655V117.115C168.938 117.116 168.938 117.116 168.937 117.116C168.935 117.116 168.935 117.117 168.935 117.117C168.935 117.118 168.934 117.119 168.934 117.119C166.031 117.119 164.5 119.218 163.27 120.904L163.269 120.905C162.207 122.361 161.506 123.322 159.882 123.322C158.259 123.322 157.557 122.361 156.496 120.905V120.904C155.264 119.217 153.733 117.119 150.83 117.119C147.927 117.119 146.395 119.218 145.164 120.905L145.163 120.906C144.725 121.506 144.348 122.022 143.943 122.422C143.875 122.503 143.781 122.587 143.667 122.671C143.196 123.057 142.663 123.288 141.944 123.318C141.86 123.325 141.781 123.327 141.709 123.323C141.578 123.329 141.462 123.321 141.368 123.3C140.028 123.148 139.36 122.232 138.392 120.906V120.905C137.161 119.218 135.629 117.119 132.726 117.119C129.823 117.119 128.29 119.218 127.059 120.905V120.906C125.997 122.361 125.296 123.322 123.674 123.322C122.051 123.322 121.35 122.361 120.289 120.906V120.905C119.42 119.716 118.403 118.321 116.861 117.602C115.704 117.063 114.622 116.08 114.622 114.798V112.48C114.622 112.479 114.623 112.478 114.624 112.478C114.624 112.478 114.625 112.478 114.625 112.477V104.655Z" fill="#B3FFF7"/>
</g>
</g>
<g filter="url(#filter3_d)">
<path d="M281.482 100.621H231.304V151.062H281.482V100.621Z" fill="#B3FFF7"/>
<g filter="url(#filter4_d)">
<path d="M231.304 138.451C235.486 138.451 235.486 145.797 239.666 145.797C243.846 145.797 243.848 138.451 248.029 138.451C252.208 138.451 252.211 145.797 256.393 145.797C260.575 145.797 260.573 138.451 264.755 138.451C268.937 138.451 268.937 145.797 273.118 145.797C277.298 145.797 277.3 138.451 281.482 138.451" fill="#FFF9F9"/>
<path d="M231.304 138.453C235.486 138.453 235.486 145.799 239.666 145.799C243.846 145.799 243.848 138.453 248.029 138.453C252.208 138.453 252.211 145.799 256.393 145.799C260.575 145.799 260.573 138.453 264.755 138.453C268.937 138.453 268.937 145.799 273.118 145.799C277.298 145.799 277.3 138.453 281.482 138.453V100.621H231.304V138.453Z" fill="#FFF9F9"/>
</g>
<g filter="url(#filter5_d)">
<path d="M231.304 125.842C235.486 125.842 235.486 133.188 239.666 133.188C243.846 133.188 243.848 125.842 248.029 125.842C252.208 125.842 252.211 133.188 256.393 133.188C260.575 133.188 260.573 125.842 264.755 125.842C268.937 125.842 268.937 133.188 273.118 133.188C277.298 133.188 277.3 125.842 281.482 125.842" fill="#FCBBB5"/>
<path d="M231.304 125.841C235.486 125.841 235.486 133.187 239.666 133.187C243.846 133.187 243.848 125.841 248.029 125.841C252.208 125.841 252.211 133.187 256.393 133.187C260.575 133.187 260.573 125.841 264.755 125.841C268.937 125.841 268.937 133.187 273.118 133.187C277.298 133.187 277.3 125.841 281.482 125.841V100.621H231.304V125.841Z" fill="#FCBBB5"/>
</g>
<g filter="url(#filter6_d)">
<path d="M231.304 113.225C235.486 113.225 235.486 120.57 239.666 120.57C243.846 120.57 243.848 113.225 248.029 113.225C252.208 113.225 252.211 120.57 256.393 120.57C260.575 120.57 260.573 113.225 264.755 113.225C268.937 113.225 268.937 120.57 273.118 120.57C277.298 120.57 277.3 113.225 281.482 113.225" fill="#375580"/>
<path d="M231.304 113.224C235.486 113.224 235.486 120.569 239.666 120.569C243.846 120.569 243.848 113.224 248.029 113.224C252.208 113.224 252.211 120.569 256.393 120.569C260.575 120.569 260.573 113.224 264.755 113.224C268.937 113.224 268.937 120.569 273.118 120.569C277.298 120.569 277.3 113.224 281.482 113.224V100.621L231.304 100.621V113.224Z" fill="#375580"/>
</g>
</g>
<defs>
<filter id="filter0_d" x="113.234" y="99.9646" width="57.0907" height="42.879" filterUnits="userSpaceOnUse" color-interpolation-filters="sRGB">
<feFlood flood-opacity="0" result="BackgroundImageFix"/>
<feColorMatrix in="SourceAlpha" type="matrix" values="0 0 0 0 0 0 0 0 0 0 0 0 0 0 0 0 0 0 127 0"/>
<feOffset dy="0.693645"/>
<feGaussianBlur stdDeviation="0.693645"/>
<feColorMatrix type="matrix" values="0 0 0 0 0 0 0 0 0 0 0 0 0 0 0 0 0 0 0.3 0"/>
<feBlend mode="normal" in2="BackgroundImageFix" result="effect1_dropShadow"/>
<feBlend mode="normal" in="SourceGraphic" in2="effect1_dropShadow" result="shape"/>
</filter>
<filter id="filter1_d" x="113.234" y="102.599" width="57.0896" height="40.2442" filterUnits="userSpaceOnUse" color-interpolation-filters="sRGB">
<feFlood flood-opacity="0" result="BackgroundImageFix"/>
<feColorMatrix in="SourceAlpha" type="matrix" values="0 0 0 0 0 0 0 0 0 0 0 0 0 0 0 0 0 0 127 0"/>
<feOffset dy="0.693645"/>
<feGaussianBlur stdDeviation="0.693645"/>
<feColorMatrix type="matrix" values="0 0 0 0 0 0 0 0 0 0 0 0 0 0 0 0 0 0 0.3 0"/>
<feBlend mode="normal" in2="BackgroundImageFix" result="effect1_dropShadow"/>
<feBlend mode="normal" in="SourceGraphic" in2="effect1_dropShadow" result="shape"/>
</filter>
<filter id="filter2_d" x="113.234" y="99.9646" width="57.0907" height="25.4412" filterUnits="userSpaceOnUse" color-interpolation-filters="sRGB">
<feFlood flood-opacity="0" result="BackgroundImageFix"/>
<feColorMatrix in="SourceAlpha" type="matrix" values="0 0 0 0 0 0 0 0 0 0 0 0 0 0 0 0 0 0 127 0"/>
<feOffset dy="0.693645"/>
<feGaussianBlur stdDeviation="0.693645"/>
<feColorMatrix type="matrix" values="0 0 0 0 0 0 0 0 0 0 0 0 0 0 0 0 0 0 0.3 0"/>
<feBlend mode="normal" in2="BackgroundImageFix" result="effect1_dropShadow"/>
<feBlend mode="normal" in="SourceGraphic" in2="effect1_dropShadow" result="shape"/>
</filter>
<filter id="filter3_d" x="221.304" y="94.6211" width="70.1785" height="70.4414" filterUnits="userSpaceOnUse" color-interpolation-filters="sRGB">
<feFlood flood-opacity="0" result="BackgroundImageFix"/>
<feColorMatrix in="SourceAlpha" type="matrix" values="0 0 0 0 0 0 0 0 0 0 0 0 0 0 0 0 0 0 127 0"/>
<feOffset dy="4"/>
<feGaussianBlur stdDeviation="5"/>
<feColorMatrix type="matrix" values="0 0 0 0 0 0 0 0 0 0 0 0 0 0 0 0 0 0 0.15 0"/>
<feBlend mode="normal" in2="BackgroundImageFix" result="effect1_dropShadow"/>
<feBlend mode="normal" in="SourceGraphic" in2="effect1_dropShadow" result="shape"/>
</filter>
<filter id="filter4_d" x="230.563" y="100.473" width="51.6594" height="46.6586" filterUnits="userSpaceOnUse" color-interpolation-filters="sRGB">
<feFlood flood-opacity="0" result="BackgroundImageFix"/>
<feColorMatrix in="SourceAlpha" type="matrix" values="0 0 0 0 0 0 0 0 0 0 0 0 0 0 0 0 0 0 127 0"/>
<feOffset dy="0.592466"/>
<feGaussianBlur stdDeviation="0.370291"/>
<feColorMatrix type="matrix" values="0 0 0 0 0 0 0 0 0 0 0 0 0 0 0 0 0 0 0.5 0"/>
<feBlend mode="normal" in2="BackgroundImageFix" result="effect1_dropShadow"/>
<feBlend mode="normal" in="SourceGraphic" in2="effect1_dropShadow" result="shape"/>
</filter>
<filter id="filter5_d" x="230.415" y="100.325" width="51.9556" height="34.3439" filterUnits="userSpaceOnUse" color-interpolation-filters="sRGB">
<feFlood flood-opacity="0" result="BackgroundImageFix"/>
<feColorMatrix in="SourceAlpha" type="matrix" values="0 0 0 0 0 0 0 0 0 0 0 0 0 0 0 0 0 0 127 0"/>
<feOffset dy="0.592466"/>
<feGaussianBlur stdDeviation="0.44435"/>
<feColorMatrix type="matrix" values="0 0 0 0 0 0 0 0 0 0 0 0 0 0 0 0 0 0 0.5 0"/>
<feBlend mode="normal" in2="BackgroundImageFix" result="effect1_dropShadow"/>
<feBlend mode="normal" in="SourceGraphic" in2="effect1_dropShadow" result="shape"/>
</filter>
<filter id="filter6_d" x="230.415" y="100.325" width="51.9556" height="21.7267" filterUnits="userSpaceOnUse" color-interpolation-filters="sRGB">
<feFlood flood-opacity="0" result="BackgroundImageFix"/>
<feColorMatrix in="SourceAlpha" type="matrix" values="0 0 0 0 0 0 0 0 0 0 0 0 0 0 0 0 0 0 127 0"/>
<feOffset dy="0.592466"/>
<feGaussianBlur stdDeviation="0.44435"/>
<feColorMatrix type="matrix" values="0 0 0 0 0 0 0 0 0 0 0 0 0 0 0 0 0 0 0.5 0"/>
<feBlend mode="normal" in2="BackgroundImageFix" result="effect1_dropShadow"/>
<feBlend mode="normal" in="SourceGraphic" in2="effect1_dropShadow" result="shape"/>
</filter>
</defs>
</svg>
