<svg width="280" height="52" viewBox="0 0 280 52" fill="none" xmlns="http://www.w3.org/2000/svg">
<rect x="277.995" y="48.8572" width="47.278" height="47.278" rx="2.65896" transform="rotate(-180 277.995 48.8572)" stroke="black" stroke-width="2.72196"/>
<path fill-rule="evenodd" clip-rule="evenodd" d="M279.356 14.5338V10.1471C276.684 10.1471 275.274 12.1311 274.14 13.7259L274.14 13.7268C273.162 15.1027 272.516 16.0115 271.022 16.0115C269.528 16.0115 268.882 15.1027 267.905 13.7268L267.904 13.7259C266.771 12.1311 265.361 10.1471 262.688 10.1471C260.016 10.1471 258.605 12.1318 257.472 13.7268L257.472 13.7272C256.495 15.1028 255.849 16.0115 254.355 16.0115C252.861 16.0115 252.216 15.1028 251.239 13.7272L251.238 13.7268C250.105 12.1318 248.695 10.1471 246.022 10.1471C243.35 10.1471 241.939 12.1318 240.806 13.7268L240.806 13.7272C239.829 15.1028 239.183 16.0115 237.689 16.0115C236.195 16.0115 235.55 15.1028 234.573 13.7272L234.572 13.7268C233.439 12.1318 232.029 10.1471 229.356 10.1471V14.5338C232.029 14.5338 233.439 16.5184 234.572 18.1134L234.573 18.1138C235.55 19.4895 236.195 20.3981 237.689 20.3981C239.183 20.3981 239.829 19.4895 240.806 18.1138L240.806 18.1134C241.939 16.5184 243.35 14.5338 246.022 14.5338C248.695 14.5338 250.105 16.5184 251.238 18.1134L251.239 18.1138C252.216 19.4895 252.861 20.3981 254.355 20.3981C255.849 20.3981 256.495 19.4895 257.472 18.1138L257.472 18.1134C258.605 16.5184 260.016 14.5338 262.688 14.5338C265.361 14.5338 266.771 16.5178 267.904 18.1126L267.905 18.1134C268.882 19.4893 269.528 20.3981 271.022 20.3981C272.516 20.3981 273.162 19.4893 274.14 18.1134L274.14 18.1126C275.274 16.5178 276.684 14.5338 279.356 14.5338Z" fill="black"/>
<path fill-rule="evenodd" clip-rule="evenodd" d="M279.356 28.2714V23.8847C276.684 23.8847 275.274 25.8687 274.14 27.4635L274.14 27.4643C273.162 28.8402 272.516 29.749 271.022 29.749C269.528 29.749 268.882 28.8402 267.905 27.4643L267.904 27.4635C266.771 25.8687 265.361 23.8847 262.688 23.8847C260.016 23.8847 258.605 25.8694 257.472 27.4643L257.472 27.4647C256.495 28.8404 255.849 29.749 254.355 29.749C252.861 29.749 252.216 28.8404 251.239 27.4647L251.238 27.4643C250.105 25.8694 248.695 23.8847 246.022 23.8847C243.35 23.8847 241.939 25.8694 240.806 27.4643L240.806 27.4647C239.829 28.8404 239.183 29.749 237.689 29.749C236.195 29.749 235.55 28.8404 234.573 27.4647L234.572 27.4643C233.439 25.8694 232.029 23.8847 229.356 23.8847V28.2714C232.029 28.2714 233.439 30.256 234.572 31.851L234.573 31.8514C235.55 33.2271 236.195 34.1357 237.689 34.1357C239.183 34.1357 239.829 33.2271 240.806 31.8514L240.806 31.851C241.939 30.256 243.35 28.2714 246.022 28.2714C248.695 28.2714 250.105 30.256 251.238 31.851L251.239 31.8514C252.216 33.2271 252.861 34.1357 254.355 34.1357C255.849 34.1357 256.495 33.2271 257.472 31.8514L257.472 31.851C258.605 30.256 260.016 28.2714 262.688 28.2714C265.361 28.2714 266.771 30.2553 267.904 31.8502L267.905 31.851C268.882 33.2269 269.528 34.1357 271.022 34.1357C272.516 34.1357 273.162 33.2269 274.14 31.851L274.14 31.8502C275.274 30.2553 276.684 28.2714 279.356 28.2714Z" fill="black"/>
<path fill-rule="evenodd" clip-rule="evenodd" d="M279.356 42.0089V37.6223C276.684 37.6223 275.274 39.6062 274.14 41.2011L274.14 41.2019C273.162 42.5778 272.516 43.4866 271.022 43.4866C269.528 43.4866 268.882 42.5778 267.905 41.2019L267.904 41.2011C266.771 39.6062 265.361 37.6223 262.688 37.6223C260.016 37.6223 258.605 39.6069 257.472 41.2019L257.472 41.2023C256.495 42.578 255.849 43.4866 254.355 43.4866C252.861 43.4866 252.216 42.578 251.239 41.2023L251.238 41.2019C250.105 39.6069 248.695 37.6223 246.022 37.6223C243.35 37.6223 241.939 39.6069 240.806 41.2019L240.806 41.2023C239.829 42.578 239.183 43.4866 237.689 43.4866C236.195 43.4866 235.55 42.578 234.573 41.2023L234.572 41.2019C233.439 39.6069 232.029 37.6223 229.356 37.6223V42.0089C232.029 42.0089 233.439 43.9936 234.572 45.5885L234.573 45.5889C235.55 46.9646 236.195 47.8732 237.689 47.8732C239.183 47.8732 239.829 46.9646 240.806 45.5889L240.806 45.5885C241.939 43.9936 243.35 42.0089 246.022 42.0089C248.695 42.0089 250.105 43.9936 251.238 45.5885L251.239 45.5889C252.216 46.9646 252.861 47.8732 254.355 47.8732C255.849 47.8732 256.495 46.9646 257.472 45.5889L257.472 45.5885C258.605 43.9936 260.016 42.0089 262.688 42.0089C265.361 42.0089 266.771 43.9929 267.904 45.5877L267.905 45.5885C268.882 46.9644 269.528 47.8732 271.022 47.8732C272.516 47.8732 273.162 46.9644 274.14 45.5885L274.14 45.5877C275.274 43.9929 276.684 42.0089 279.356 42.0089Z" fill="black"/>
<path fill-rule="evenodd" clip-rule="evenodd" d="M165.716 11.196C166.907 10.6056 168.041 9.58545 168.041 8.25593C168.041 6.9264 166.907 5.79092 165.716 6.38135C164.193 7.13583 163.182 8.55939 162.317 9.77646L162.316 9.77735C161.243 11.2875 160.534 12.2849 158.894 12.2849C157.255 12.2849 156.546 11.2875 155.473 9.77735L155.472 9.77646C154.228 8.02609 152.681 5.8486 149.748 5.8486C146.814 5.8486 145.266 8.02683 144.023 9.77735L144.022 9.7778C142.95 11.2877 142.241 12.2849 140.602 12.2849C138.962 12.2849 138.254 11.2877 137.181 9.7778L137.181 9.77735C135.937 8.02683 134.389 5.8486 131.456 5.8486C128.523 5.8486 126.975 8.02683 125.731 9.77735L125.731 9.7778C124.658 11.2877 123.95 12.2849 122.31 12.2849C120.671 12.2849 119.962 11.2877 118.89 9.7778L118.889 9.77735C118.025 8.56015 117.013 7.13616 115.49 6.38146C114.299 5.79096 113.164 6.9264 113.164 8.25593C113.164 9.58545 114.299 10.6056 115.49 11.1961C117.013 11.9508 118.025 13.3748 118.889 14.592L118.89 14.5924C119.962 16.1023 120.671 17.0995 122.31 17.0995C123.95 17.0995 124.658 16.1023 125.731 14.5924L125.731 14.592C126.975 12.8415 128.523 10.6632 131.456 10.6632C134.389 10.6632 135.937 12.8415 137.181 14.592L137.181 14.5924C138.254 16.1023 138.962 17.0995 140.602 17.0995C142.241 17.0995 142.95 16.1023 144.022 14.5924L144.023 14.592C145.266 12.8415 146.814 10.6632 149.748 10.6632C152.681 10.6632 154.228 12.8407 155.472 14.5911L155.473 14.592C156.546 16.1021 157.255 17.0995 158.894 17.0995C160.534 17.0995 161.243 16.1021 162.316 14.592L162.317 14.5911C163.182 13.374 164.193 11.9505 165.716 11.196Z" fill="black"/>
<path fill-rule="evenodd" clip-rule="evenodd" d="M165.716 26.2736C166.907 25.6832 168.041 24.6631 168.041 23.3335C168.041 22.004 166.907 20.8685 165.716 21.459C164.193 22.2134 163.182 23.637 162.317 24.8541L162.316 24.855C161.243 26.3651 160.534 27.3625 158.894 27.3625C157.255 27.3625 156.546 26.3651 155.473 24.855L155.472 24.8541C154.228 23.1037 152.681 20.9262 149.748 20.9262C146.814 20.9262 145.266 23.1044 144.023 24.855L144.022 24.8554C142.95 26.3653 142.241 27.3625 140.602 27.3625C138.962 27.3625 138.254 26.3653 137.181 24.8554L137.181 24.855C135.937 23.1044 134.389 20.9262 131.456 20.9262C128.523 20.9262 126.975 23.1044 125.731 24.855L125.731 24.8554C124.658 26.3653 123.95 27.3625 122.31 27.3625C120.671 27.3625 119.962 26.3653 118.89 24.8554L118.889 24.855C118.025 23.6378 117.013 22.2138 115.49 21.4591C114.299 20.8686 113.164 22.004 113.164 23.3335C113.164 24.6631 114.299 25.6832 115.49 26.2737C117.013 27.0284 118.025 28.4524 118.889 29.6696L118.89 29.6701C119.962 31.1799 120.671 32.1772 122.31 32.1772C123.95 32.1772 124.658 31.1799 125.731 29.6701L125.731 29.6696C126.975 27.9191 128.523 25.7409 131.456 25.7409C134.389 25.7409 135.937 27.9191 137.181 29.6696L137.181 29.6701C138.254 31.1799 138.962 32.1772 140.602 32.1772C142.241 32.1772 142.95 31.1799 144.022 29.6701L144.023 29.6696C145.266 27.9191 146.814 25.7409 149.748 25.7409C152.681 25.7409 154.228 27.9183 155.472 29.6687L155.473 29.6696C156.546 31.1797 157.255 32.1772 158.894 32.1772C160.534 32.1772 161.243 31.1797 162.316 29.6696L162.317 29.6687C163.182 28.4516 164.193 27.0281 165.716 26.2736Z" fill="black"/>
<path fill-rule="evenodd" clip-rule="evenodd" d="M164.712 41.3511C165.903 40.7607 167.038 39.7406 167.038 38.411C167.038 37.0815 165.903 35.946 164.712 36.5365C163.19 37.291 162.178 38.7145 161.313 39.9316L161.312 39.9325C160.24 41.4426 159.531 42.44 157.891 42.44C156.251 42.44 155.542 41.4426 154.469 39.9325L154.469 39.9316C153.225 38.1812 151.677 36.0037 148.744 36.0037C145.811 36.0037 144.263 38.182 143.019 39.9325L143.019 39.9329C141.946 41.4428 141.238 42.44 139.598 42.44C137.959 42.44 137.25 41.4428 136.177 39.9329L136.177 39.9325C134.934 38.182 133.386 36.0037 130.452 36.0037C127.519 36.0037 125.971 38.182 124.728 39.9325L124.727 39.9329C123.655 41.4428 122.946 42.44 121.307 42.44C119.667 42.44 118.959 41.4428 117.886 39.9329L117.886 39.9325C117.021 38.7153 116.009 37.2913 114.487 36.5366C113.295 35.9461 112.161 37.0815 112.161 38.411C112.161 39.7406 113.295 40.7607 114.487 41.3512C116.009 42.1059 117.021 43.5299 117.886 44.7471L117.886 44.7476C118.959 46.2574 119.667 47.2547 121.307 47.2547C122.946 47.2547 123.655 46.2574 124.727 44.7476L124.728 44.7471C125.971 42.9966 127.519 40.8184 130.452 40.8184C133.386 40.8184 134.934 42.9966 136.177 44.7471L136.177 44.7476C137.25 46.2574 137.959 47.2547 139.598 47.2547C141.238 47.2547 141.946 46.2574 143.019 44.7476L143.019 44.7471C144.263 42.9966 145.811 40.8184 148.744 40.8184C151.677 40.8184 153.225 42.9959 154.469 44.7462L154.469 44.7471C155.542 46.2572 156.251 47.2547 157.891 47.2547C159.531 47.2547 160.24 46.2572 161.312 44.7471L161.313 44.7462C162.178 43.5292 163.19 42.1056 164.712 41.3511Z" fill="black"/>
<rect x="49.4852" y="50.1907" width="47.278" height="47.278" rx="2.65896" transform="rotate(-180 49.4852 50.1907)" stroke="black" stroke-width="2.72196"/>
<path fill-rule="evenodd" clip-rule="evenodd" d="M50.8462 15.8673L50.8462 11.4806C48.1736 11.4806 46.7637 13.4646 45.6303 15.0594L45.6297 15.0602C44.6522 16.4361 44.0062 17.3449 42.5122 17.3449C41.0182 17.3449 40.3722 16.4361 39.3947 15.0602L39.3941 15.0594C38.2607 13.4646 36.8507 11.4806 34.1782 11.4806C31.5057 11.4806 30.0952 13.4653 28.9622 15.0602L28.9619 15.0606C27.9846 16.4363 27.339 17.3449 25.8452 17.3449C24.3513 17.3449 23.7058 16.4363 22.7285 15.0606L22.7282 15.0602C21.5952 13.4653 20.1847 11.4806 17.5122 11.4806C14.8397 11.4806 13.4292 13.4653 12.2962 15.0602L12.2959 15.0606C11.3186 16.4363 10.673 17.3449 9.1792 17.3449C7.68535 17.3449 7.03983 16.4363 6.06249 15.0606L6.06219 15.0602C4.9292 13.4653 3.51869 11.4806 0.846191 11.4806V15.8673C3.51869 15.8673 4.9292 17.8519 6.06219 19.4469L6.06249 19.4473C7.03983 20.8229 7.68535 21.7316 9.1792 21.7316C10.673 21.7316 11.3186 20.8229 12.2959 19.4473L12.2962 19.4469C13.4292 17.8519 14.8397 15.8673 17.5122 15.8673C20.1847 15.8673 21.5952 17.8519 22.7282 19.4469L22.7285 19.4473C23.7058 20.8229 24.3513 21.7316 25.8452 21.7316C27.339 21.7316 27.9846 20.8229 28.9619 19.4473L28.9622 19.4469C30.0952 17.8519 31.5057 15.8673 34.1782 15.8673C36.8507 15.8673 38.2607 17.8512 39.3941 19.446L39.3947 19.4469C40.3722 20.8228 41.0182 21.7316 42.5122 21.7316C44.0062 21.7316 44.6522 20.8228 45.6297 19.4469L45.6303 19.446C46.7637 17.8512 48.1736 15.8673 50.8462 15.8673Z" fill="black"/>
<path fill-rule="evenodd" clip-rule="evenodd" d="M50.8462 29.6048L50.8462 25.2182C48.1736 25.2182 46.7637 27.2021 45.6303 28.7969L45.6297 28.7978C44.6522 30.1737 44.0062 31.0825 42.5122 31.0825C41.0182 31.0825 40.3722 30.1737 39.3947 28.7978L39.3941 28.7969C38.2607 27.2021 36.8507 25.2182 34.1782 25.2182C31.5057 25.2182 30.0952 27.2028 28.9622 28.7978L28.9619 28.7982C27.9846 30.1739 27.339 31.0825 25.8452 31.0825C24.3513 31.0825 23.7058 30.1739 22.7285 28.7982L22.7282 28.7978C21.5952 27.2028 20.1847 25.2182 17.5122 25.2182C14.8397 25.2182 13.4292 27.2028 12.2962 28.7978L12.2959 28.7982C11.3186 30.1739 10.673 31.0825 9.1792 31.0825C7.68535 31.0825 7.03983 30.1739 6.06249 28.7982L6.06219 28.7978C4.9292 27.2028 3.51869 25.2182 0.846191 25.2182V29.6048C3.51869 29.6048 4.9292 31.5895 6.06219 33.1844L6.06249 33.1848C7.03983 34.5605 7.68535 35.4691 9.1792 35.4691C10.673 35.4691 11.3186 34.5605 12.2959 33.1848L12.2962 33.1844C13.4292 31.5895 14.8397 29.6048 17.5122 29.6048C20.1847 29.6048 21.5952 31.5895 22.7282 33.1844L22.7285 33.1848C23.7058 34.5605 24.3513 35.4691 25.8452 35.4691C27.339 35.4691 27.9846 34.5605 28.9619 33.1848L28.9622 33.1844C30.0952 31.5895 31.5057 29.6048 34.1782 29.6048C36.8507 29.6048 38.2607 31.5888 39.3941 33.1836L39.3947 33.1844C40.3722 34.5603 41.0182 35.4691 42.5122 35.4691C44.0062 35.4691 44.6522 34.5603 45.6297 33.1844L45.6303 33.1836C46.7637 31.5888 48.1736 29.6048 50.8462 29.6048Z" fill="black"/>
<path fill-rule="evenodd" clip-rule="evenodd" d="M50.8462 43.3423L50.8462 38.9557C48.1736 38.9557 46.7637 40.9397 45.6303 42.5345L45.6297 42.5353C44.6522 43.9112 44.0062 44.82 42.5122 44.82C41.0182 44.82 40.3722 43.9112 39.3947 42.5353L39.3941 42.5345C38.2607 40.9397 36.8507 38.9557 34.1782 38.9557C31.5057 38.9557 30.0952 40.9404 28.9622 42.5353L28.9619 42.5357C27.9846 43.9114 27.339 44.82 25.8452 44.82C24.3513 44.82 23.7058 43.9114 22.7285 42.5357L22.7282 42.5353C21.5952 40.9404 20.1847 38.9557 17.5122 38.9557C14.8397 38.9557 13.4292 40.9404 12.2962 42.5353L12.2959 42.5357C11.3186 43.9114 10.673 44.82 9.1792 44.82C7.68535 44.82 7.03983 43.9114 6.06249 42.5357L6.06219 42.5353C4.9292 40.9404 3.51869 38.9557 0.846191 38.9557V43.3423C3.51869 43.3423 4.9292 45.327 6.06219 46.922L6.06249 46.9224C7.03983 48.298 7.68535 49.2067 9.1792 49.2067C10.673 49.2067 11.3186 48.298 12.2959 46.9224L12.2962 46.922C13.4292 45.327 14.8397 43.3423 17.5122 43.3423C20.1847 43.3423 21.5952 45.327 22.7282 46.922L22.7285 46.9224C23.7058 48.298 24.3513 49.2067 25.8452 49.2067C27.339 49.2067 27.9846 48.298 28.9619 46.9224L28.9622 46.922C30.0952 45.327 31.5057 43.3423 34.1782 43.3423C36.8507 43.3423 38.2607 45.3263 39.3941 46.9211L39.3947 46.922C40.3722 48.2979 41.0182 49.2067 42.5122 49.2067C44.0062 49.2067 44.6522 48.2979 45.6297 46.922L45.6303 46.9211C46.7637 45.3263 48.1736 43.3423 50.8462 43.3423Z" fill="black"/>
</svg>
