<svg width="289" height="73" viewBox="0 0 289 73" fill="none" xmlns="http://www.w3.org/2000/svg">
<mask id="path-1-inside-1" fill="white">
<path fill-rule="evenodd" clip-rule="evenodd" d="M0.468508 11.5347C0.468508 9.29779 2.28192 7.48438 4.51888 7.48438H46.7958C49.0328 7.48438 50.8462 9.29779 50.8462 11.5347V49.4789C50.8462 49.4789 50.8462 49.479 50.8461 49.479V49.479C50.8461 49.479 50.846 49.479 50.846 49.479V49.4911C50.846 49.4977 50.8405 49.5031 50.8338 49.5032C48.149 49.5092 46.731 51.5046 45.5907 53.109L45.5902 53.1098C44.6053 54.4961 43.9544 55.4118 42.4491 55.4118C40.9438 55.4118 40.2929 54.4961 39.308 53.1098L39.3075 53.109C38.1655 51.5021 36.7449 49.5032 34.0521 49.5032C31.3595 49.5032 29.9383 51.5028 28.7967 53.1098L28.7965 53.1102C27.8117 54.4963 27.1613 55.4118 25.6562 55.4118C24.1511 55.4118 23.5007 54.4963 22.5159 53.1102L22.5156 53.1098C21.3741 51.5028 19.9529 49.5032 17.2602 49.5032C14.5676 49.5032 13.1464 51.5028 12.0049 53.1098L12.0046 53.1102C11.0199 54.4963 10.3695 55.4118 8.86433 55.4118C7.35919 55.4118 6.70879 54.4963 5.72406 53.1102L5.72378 53.1098C4.93 51.9924 4.00104 50.6851 2.60341 49.9923C1.50989 49.4502 0.468376 48.5137 0.468376 47.2932V45.0834C0.468376 45.0834 0.468406 45.0833 0.468442 45.0833V45.0833C0.468478 45.0833 0.468508 45.0833 0.468508 45.0833V11.5347ZM6.29888 49.4794C6.29884 49.4792 6.29861 49.479 6.29834 49.479V49.479C6.29789 49.479 6.29763 49.4795 6.2979 49.4798V49.4798C6.29825 49.4803 6.29898 49.48 6.29888 49.4794V49.4794Z"/>
</mask>
<path fill-rule="evenodd" clip-rule="evenodd" d="M0.468508 11.5347C0.468508 9.29779 2.28192 7.48438 4.51888 7.48438H46.7958C49.0328 7.48438 50.8462 9.29779 50.8462 11.5347V49.4789C50.8462 49.4789 50.8462 49.479 50.8461 49.479V49.479C50.8461 49.479 50.846 49.479 50.846 49.479V49.4911C50.846 49.4977 50.8405 49.5031 50.8338 49.5032C48.149 49.5092 46.731 51.5046 45.5907 53.109L45.5902 53.1098C44.6053 54.4961 43.9544 55.4118 42.4491 55.4118C40.9438 55.4118 40.2929 54.4961 39.308 53.1098L39.3075 53.109C38.1655 51.5021 36.7449 49.5032 34.0521 49.5032C31.3595 49.5032 29.9383 51.5028 28.7967 53.1098L28.7965 53.1102C27.8117 54.4963 27.1613 55.4118 25.6562 55.4118C24.1511 55.4118 23.5007 54.4963 22.5159 53.1102L22.5156 53.1098C21.3741 51.5028 19.9529 49.5032 17.2602 49.5032C14.5676 49.5032 13.1464 51.5028 12.0049 53.1098L12.0046 53.1102C11.0199 54.4963 10.3695 55.4118 8.86433 55.4118C7.35919 55.4118 6.70879 54.4963 5.72406 53.1102L5.72378 53.1098C4.93 51.9924 4.00104 50.6851 2.60341 49.9923C1.50989 49.4502 0.468376 48.5137 0.468376 47.2932V45.0834C0.468376 45.0834 0.468406 45.0833 0.468442 45.0833V45.0833C0.468478 45.0833 0.468508 45.0833 0.468508 45.0833V11.5347ZM6.29888 49.4794C6.29884 49.4792 6.29861 49.479 6.29834 49.479V49.479C6.29789 49.479 6.29763 49.4795 6.2979 49.4798V49.4798C6.29825 49.4803 6.29898 49.48 6.29888 49.4794V49.4794Z" fill="#FCBBB5"/>
<path d="M45.5907 53.109L46.4116 53.6932L46.412 53.6926L45.5907 53.109ZM45.5902 53.1098L44.7692 52.5256L44.7688 52.5263L45.5902 53.1098ZM39.308 53.1098L40.1294 52.5263L40.129 52.5256L39.308 53.1098ZM39.3075 53.109L38.4862 53.6926L38.4865 53.6932L39.3075 53.109ZM28.7967 53.1098L27.9753 52.5263L27.9746 52.5274L28.7967 53.1098ZM28.7965 53.1102L29.6178 53.6938L29.6186 53.6926L28.7965 53.1102ZM22.5159 53.1102L21.6912 53.689L21.6946 53.6938L22.5159 53.1102ZM22.5156 53.1098L23.3404 52.531L23.3371 52.5263L22.5156 53.1098ZM12.0049 53.1098L11.1835 52.5263L11.1798 52.5315L12.0049 53.1098ZM12.0046 53.1102L12.826 53.6938L12.8296 53.6885L12.0046 53.1102ZM5.72406 53.1102L4.89899 53.6885L4.90269 53.6937L5.72406 53.1102ZM5.72378 53.1098L6.54885 52.5315L6.54518 52.5263L5.72378 53.1098ZM50.8338 49.5032L50.8315 48.4956L50.8338 49.5032ZM2.60341 49.9923L3.0509 49.0896L2.60341 49.9923ZM46.7958 6.47682H4.51888V8.49193H46.7958V6.47682ZM51.8537 49.4789V11.5347H49.8386V49.4789H51.8537ZM51.8536 49.4911V49.479H49.8385V49.4911H51.8536ZM46.412 53.6926C47.5976 52.0243 48.737 50.5155 50.8361 50.5107L50.8315 48.4956C47.561 48.503 45.8643 50.9848 44.7695 52.5253L46.412 53.6926ZM46.4111 53.694L46.4116 53.6932L44.7698 52.5248L44.7692 52.5256L46.4111 53.694ZM42.4491 56.4193C43.4481 56.4193 44.2165 56.1006 44.8667 55.5489C45.4572 55.0478 45.9421 54.3541 46.4115 53.6933L44.7688 52.5263C44.2534 53.2518 43.9204 53.7091 43.5629 54.0124C43.2651 54.2651 42.9554 54.4042 42.4491 54.4042V56.4193ZM38.4867 53.6933C38.9561 54.3541 39.441 55.0478 40.0315 55.5489C40.6817 56.1006 41.4501 56.4193 42.4491 56.4193V54.4042C41.9428 54.4042 41.6331 54.2651 41.3353 54.0124C40.9778 53.7091 40.6448 53.2518 40.1294 52.5263L38.4867 53.6933ZM38.4865 53.6932L38.4871 53.694L40.129 52.5256L40.1284 52.5248L38.4865 53.6932ZM34.0521 50.5107C36.1577 50.5107 37.2988 52.0219 38.4862 53.6926L40.1287 52.5253C39.0322 50.9823 37.332 48.4956 34.0521 48.4956V50.5107ZM29.6181 53.6933C30.805 52.0225 31.9467 50.5107 34.0521 50.5107V48.4956C30.7722 48.4956 29.0716 50.9831 27.9753 52.5263L29.6181 53.6933ZM29.6186 53.6926L29.6189 53.6922L27.9746 52.5274L27.9743 52.5278L29.6186 53.6926ZM25.6562 56.4193C26.6551 56.4193 27.4234 56.1007 28.0734 55.549C28.6638 55.048 29.1485 54.3543 29.6178 53.6938L27.9751 52.5267C27.4597 53.2522 27.1269 53.7093 26.7695 54.0126C26.4719 54.2651 26.1624 54.4042 25.6562 54.4042V56.4193ZM21.6946 53.6938C22.1639 54.3544 22.6486 55.048 23.239 55.549C23.889 56.1007 24.6573 56.4193 25.6562 56.4193V54.4042C25.15 54.4042 24.8405 54.2651 24.5429 54.0126C24.1855 53.7093 23.8527 53.2522 23.3373 52.5267L21.6946 53.6938ZM21.6909 53.6886L21.6912 53.689L23.3406 52.5314L23.3404 52.531L21.6909 53.6886ZM17.2602 50.5107C19.3657 50.5107 20.5074 52.0225 21.6942 53.6933L23.3371 52.5263C22.2408 50.9831 20.5402 48.4956 17.2602 48.4956V50.5107ZM12.8263 53.6933C14.0132 52.0225 15.1548 50.5107 17.2602 50.5107V48.4956C13.9803 48.4956 12.2797 50.9831 11.1835 52.5263L12.8263 53.6933ZM12.8296 53.6885L12.8299 53.6881L11.1798 52.5315L11.1795 52.5319L12.8296 53.6885ZM8.86433 56.4193C9.86326 56.4193 10.6315 56.1007 11.2816 55.549C11.8719 55.048 12.3566 54.3543 12.826 53.6937L11.1832 52.5267C10.6678 53.2521 10.335 53.7093 9.97766 54.0126C9.68007 54.2651 9.37053 54.4042 8.86433 54.4042V56.4193ZM4.90269 53.6937C5.37201 54.3543 5.85676 55.048 6.44709 55.549C7.09716 56.1007 7.86539 56.4193 8.86433 56.4193V54.4042C8.35812 54.4042 8.04858 54.2651 7.75099 54.0126C7.39366 53.7093 7.06085 53.2521 6.54543 52.5267L4.90269 53.6937ZM4.89872 53.6881L4.899 53.6885L6.54912 52.5319L6.54884 52.5315L4.89872 53.6881ZM2.15592 50.895C3.28946 51.4569 4.08246 52.5391 4.90238 53.6933L6.54518 52.5263C5.77755 51.4457 4.71262 49.9133 3.0509 49.0896L2.15592 50.895ZM-0.539179 45.0834V47.2932H1.47593V45.0834H-0.539179ZM-0.539047 11.5347V45.0833H1.47606V11.5347H-0.539047ZM5.49751 50.0918C6.13843 50.9301 7.47334 50.345 7.29134 49.3056L5.30643 49.6532C5.12463 48.615 6.45808 48.0305 7.0983 48.8678L5.49751 50.0918ZM6.29834 50.4865C5.8092 50.4865 5.3908 50.135 5.30643 49.6532L7.29134 49.3056C7.20688 48.8233 6.78802 48.4714 6.29834 48.4714V50.4865ZM49.8385 49.4911C49.8385 48.9228 50.3022 48.4968 50.8315 48.4956L50.8361 50.5107C51.3787 50.5095 51.8536 50.0727 51.8536 49.4911H49.8385ZM6.29834 48.4714C5.4633 48.4714 4.9903 49.4285 5.49751 50.0918L7.0983 48.8678C7.60496 49.5305 7.13248 50.4865 6.29834 50.4865V48.4714ZM50.8461 48.4714C50.2896 48.4714 49.8385 48.9225 49.8385 49.479H51.8536C51.8536 50.0354 51.4025 50.4865 50.8461 50.4865V48.4714ZM0.468442 46.0909C1.00645 46.0909 1.47606 45.6581 1.47606 45.0833H-0.539047C-0.539047 44.5085 -0.0694963 44.0758 0.468442 44.0758V46.0909ZM49.8386 49.4789C49.8386 48.9225 50.2897 48.4714 50.8461 48.4714V50.4865C51.4026 50.4865 51.8537 50.0354 51.8537 49.4789H49.8386ZM1.47593 45.0834C1.47593 45.6398 1.02486 46.0909 0.468442 46.0909V44.0758C-0.0880513 44.0758 -0.539179 44.5269 -0.539179 45.0834H1.47593ZM4.51888 6.47682C1.72547 6.47682 -0.539047 8.74133 -0.539047 11.5347H1.47606C1.47606 9.85425 2.83838 8.49193 4.51888 8.49193V6.47682ZM3.0509 49.0896C2.04061 48.5888 1.47593 47.9083 1.47593 47.2932H-0.539179C-0.539179 49.1192 0.979173 50.3117 2.15592 50.895L3.0509 49.0896ZM46.7958 8.49193C48.4763 8.49193 49.8386 9.85424 49.8386 11.5347H51.8537C51.8537 8.74133 49.5892 6.47682 46.7958 6.47682V8.49193Z" fill="#3C5D8C" mask="url(#path-1-inside-1)"/>
<mask id="path-3-inside-2" fill="white">
<path fill-rule="evenodd" clip-rule="evenodd" d="M0.468239 11.5347C0.468239 9.29779 2.28165 7.48438 4.51861 7.48438H46.7956C49.0326 7.48438 50.846 9.29778 50.846 11.5347L50.846 31.0657V31.5692C50.846 33.8061 48.8245 35.6328 47.2481 37.22C46.5977 37.8748 46.0697 38.6403 45.5907 39.3348L45.5901 39.3356C44.6052 40.764 43.9543 41.7074 42.449 41.7074C40.9438 41.7074 40.2929 40.764 39.308 39.3356L39.3074 39.3348C38.1654 37.6791 36.7448 35.6195 34.0521 35.6195C31.3594 35.6195 29.9382 37.6798 28.7967 39.3356L28.7964 39.336C27.8117 40.7641 27.1613 41.7074 25.6561 41.7074C24.151 41.7074 23.5006 40.7641 22.5159 39.336L22.5156 39.3356C21.374 37.6798 19.9528 35.6195 17.2602 35.6195C14.5675 35.6195 13.1463 37.6798 12.0048 39.3356L12.0045 39.336C11.0198 40.7641 10.3694 41.7074 8.86422 41.7074C7.35908 41.7074 6.70868 40.7641 5.72397 39.336L5.72395 39.336L5.72367 39.3356C4.58568 37.685 3.16984 35.6324 0.493511 35.6196C0.479739 35.6195 0.468246 35.6084 0.468239 35.5946V35.5946V11.5347ZM6.29877 35.5951C6.29873 35.5948 6.29849 35.5946 6.29822 35.5946V35.5946C6.29776 35.5946 6.2975 35.5951 6.29777 35.5955V35.5955C6.29812 35.596 6.29887 35.5957 6.29877 35.5951V35.5951Z"/>
</mask>
<path fill-rule="evenodd" clip-rule="evenodd" d="M0.468239 11.5347C0.468239 9.29779 2.28165 7.48438 4.51861 7.48438H46.7956C49.0326 7.48438 50.846 9.29778 50.846 11.5347L50.846 31.0657V31.5692C50.846 33.8061 48.8245 35.6328 47.2481 37.22C46.5977 37.8748 46.0697 38.6403 45.5907 39.3348L45.5901 39.3356C44.6052 40.764 43.9543 41.7074 42.449 41.7074C40.9438 41.7074 40.2929 40.764 39.308 39.3356L39.3074 39.3348C38.1654 37.6791 36.7448 35.6195 34.0521 35.6195C31.3594 35.6195 29.9382 37.6798 28.7967 39.3356L28.7964 39.336C27.8117 40.7641 27.1613 41.7074 25.6561 41.7074C24.151 41.7074 23.5006 40.7641 22.5159 39.336L22.5156 39.3356C21.374 37.6798 19.9528 35.6195 17.2602 35.6195C14.5675 35.6195 13.1463 37.6798 12.0048 39.3356L12.0045 39.336C11.0198 40.7641 10.3694 41.7074 8.86422 41.7074C7.35908 41.7074 6.70868 40.7641 5.72397 39.336L5.72395 39.336L5.72367 39.3356C4.58568 37.685 3.16984 35.6324 0.493511 35.6196C0.479739 35.6195 0.468246 35.6084 0.468239 35.5946V35.5946V11.5347ZM6.29877 35.5951C6.29873 35.5948 6.29849 35.5946 6.29822 35.5946V35.5946C6.29776 35.5946 6.2975 35.5951 6.29777 35.5955V35.5955C6.29812 35.596 6.29887 35.5957 6.29877 35.5951V35.5951Z" fill="#B3FFF7"/>
<path d="M50.846 31.0657L51.8536 31.0657L51.8536 31.0657L50.846 31.0657ZM45.5907 39.3348L46.4186 39.909L46.4201 39.9068L45.5907 39.3348ZM45.5901 39.3356L44.7622 38.7613L44.7606 38.7637L45.5901 39.3356ZM39.308 39.3356L38.4784 39.9074L38.4785 39.9076L39.308 39.3356ZM39.3074 39.3348L40.137 38.763L40.1368 38.7627L39.3074 39.3348ZM28.7967 39.3356L27.9672 38.7637L27.9647 38.7673L28.7967 39.3356ZM28.7964 39.336L29.6259 39.908L29.6284 39.9043L28.7964 39.336ZM22.5159 39.336L23.3453 38.7641L23.3451 38.7637L22.5159 39.336ZM22.5156 39.3356L21.6861 39.9075L21.6864 39.908L22.5156 39.3356ZM12.0048 39.3356L12.8304 39.9132L12.8343 39.9075L12.0048 39.3356ZM12.0045 39.336L11.1789 38.7585L11.175 38.7641L12.0045 39.336ZM5.72397 39.336L6.55345 38.7641L6.54206 38.7476L6.53001 38.7315L5.72397 39.336ZM5.72395 39.336L4.89269 39.9054L4.90492 39.9232L4.91791 39.9406L5.72395 39.336ZM5.72367 39.3356L6.55493 38.7662L6.55318 38.7637L5.72367 39.3356ZM50.846 11.5347L51.8536 11.5347L50.846 11.5347ZM46.7956 6.47682H4.51861V8.49193H46.7956V6.47682ZM51.8536 31.0657L51.8536 11.5347L49.8385 11.5347L49.8385 31.0657L51.8536 31.0657ZM51.8536 31.5692V31.0657H49.8385V31.5692H51.8536ZM46.4201 39.9068C46.9069 39.2011 47.3862 38.5107 47.963 37.93L46.5332 36.5099C45.8092 37.2389 45.2325 38.0795 44.7613 38.7627L46.4201 39.9068ZM46.418 39.9099L46.4186 39.909L44.7628 38.7605L44.7622 38.7613L46.418 39.9099ZM42.449 42.715C43.4567 42.715 44.2288 42.3831 44.8779 41.8157C45.4667 41.3009 45.95 40.5886 46.4196 39.9075L44.7606 38.7637C44.2454 39.5109 43.9107 39.9846 43.5516 40.2986C43.2526 40.5599 42.9466 40.6998 42.449 40.6998V42.715ZM38.4785 39.9076C38.9481 40.5886 39.4314 41.3009 40.0202 41.8157C40.6692 42.3831 41.4413 42.715 42.449 42.715V40.6998C41.9515 40.6998 41.6455 40.56 41.3465 40.2986C40.9874 39.9846 40.6528 39.5109 40.1375 38.7636L38.4785 39.9076ZM38.4778 39.9065L38.4784 39.9074L40.1376 38.7638L40.137 38.763L38.4778 39.9065ZM34.0521 36.6271C36.144 36.6271 37.2849 38.1771 38.478 39.9068L40.1368 38.7627C39.046 37.1812 37.3456 34.612 34.0521 34.612V36.6271ZM29.6262 39.9075C30.8188 38.1777 31.9603 36.6271 34.0521 36.6271V34.612C30.7585 34.612 29.0577 37.182 27.9672 38.7637L29.6262 39.9075ZM29.6284 39.9043L29.6287 39.9039L27.9647 38.7673L27.9644 38.7677L29.6284 39.9043ZM25.6561 42.715C26.6637 42.715 27.4357 42.3832 28.0846 41.8157C28.6733 41.301 29.1564 40.5888 29.6259 39.908L27.9669 38.7641C27.4517 39.5113 27.1172 39.9848 26.7582 40.2988C26.4594 40.56 26.1536 40.6998 25.6561 40.6998V42.715ZM21.6864 39.908C22.1559 40.5888 22.639 41.301 23.2276 41.8157C23.8765 42.3832 24.6485 42.715 25.6561 42.715V40.6998C25.1586 40.6998 24.8528 40.56 24.5541 40.2988C24.195 39.9848 23.8606 39.5113 23.3453 38.7641L21.6864 39.908ZM21.6864 39.908L21.6867 39.9084L23.3451 38.7637L23.3448 38.7632L21.6864 39.908ZM17.2602 36.6271C19.352 36.6271 20.4934 38.1777 21.6861 39.9075L23.3451 38.7637C22.2546 37.182 20.5537 34.612 17.2602 34.612V36.6271ZM12.8343 39.9075C14.0269 38.1777 15.1683 36.6271 17.2602 36.6271V34.612C13.9666 34.612 12.2658 37.182 11.1753 38.7637L12.8343 39.9075ZM12.8301 39.9136L12.8304 39.9131L11.1792 38.7581L11.1789 38.7585L12.8301 39.9136ZM8.86422 42.715C9.87184 42.715 10.6438 42.3832 11.2927 41.8157C11.8814 41.301 12.3645 40.5888 12.834 39.908L11.175 38.7641C10.6597 39.5113 10.3253 39.9848 9.96627 40.2988C9.66754 40.56 9.36174 40.6998 8.86422 40.6998V42.715ZM4.89449 39.908C5.36396 40.5888 5.84706 41.301 6.43571 41.8157C7.08463 42.3832 7.8566 42.715 8.86422 42.715V40.6998C8.3667 40.6998 8.0609 40.56 7.76217 40.2988C7.40315 39.9848 7.0687 39.5113 6.55345 38.7641L4.89449 39.908ZM4.91791 39.9406L4.91792 39.9406L6.53001 38.7315L6.53 38.7315L4.91791 39.9406ZM4.8924 39.905L4.89269 39.9054L6.55521 38.7667L6.55493 38.7662L4.8924 39.905ZM0.488677 36.6271C2.56728 36.6371 3.70515 38.1829 4.89415 39.9075L6.55318 38.7637C5.4662 37.1871 3.7724 34.6278 0.498344 34.6121L0.488677 36.6271ZM-0.539316 11.5347V35.5946H1.47579V11.5347H-0.539316ZM5.48847 36.1957C6.12005 37.0473 7.46947 36.4719 7.29214 35.4266L5.30541 35.7636C5.12827 34.7194 6.47619 34.1446 7.10707 34.9953L5.48847 36.1957ZM6.29822 34.5871C5.47 34.5871 4.99512 35.5304 5.48847 36.1957L7.10707 34.9953C7.59987 35.6599 7.12552 36.6022 6.29822 36.6022V34.5871ZM46.7956 8.49193C48.4761 8.49193 49.8385 9.85424 49.8385 11.5347L51.8536 11.5347C51.8536 8.74133 49.589 6.47682 46.7956 6.47682V8.49193ZM0.498344 34.6121C1.01878 34.6146 1.47549 35.0335 1.47579 35.5941L-0.539316 35.5952C-0.539001 36.1832 -0.0592986 36.6245 0.488677 36.6271L0.498344 34.6121ZM6.29822 36.6022C5.80706 36.6022 5.38756 36.2478 5.30541 35.7636L7.29214 35.4266C7.2099 34.9418 6.78992 34.5871 6.29822 34.5871V36.6022ZM49.8385 31.5692C49.8385 32.3753 49.4748 33.1786 48.8327 34.0329C48.1839 34.8963 47.3544 35.6832 46.5332 36.5099L47.963 37.93C48.7182 37.1696 49.6876 36.2496 50.4437 35.2436C51.2065 34.2285 51.8536 33 51.8536 31.5692H49.8385ZM4.51861 6.47682C1.72519 6.47682 -0.539316 8.74133 -0.539316 11.5347H1.47579C1.47579 9.85424 2.83811 8.49193 4.51861 8.49193V6.47682Z" fill="#3C5D8C" mask="url(#path-3-inside-2)"/>
<mask id="path-5-inside-3" fill="white">
<path fill-rule="evenodd" clip-rule="evenodd" d="M0.468525 11.5347C0.468525 9.29779 2.28194 7.48438 4.51889 7.48438H46.7959C49.0329 7.48438 50.8463 9.29779 50.8463 11.5347V21.8834C50.8463 21.8834 50.8463 21.8835 50.8462 21.8835V21.8835C50.8462 21.8835 50.8462 21.8835 50.8462 21.8835V21.8956C50.8462 21.9023 50.8406 21.9077 50.8339 21.9077C48.1491 21.9138 46.7311 23.9091 45.5908 25.5136L45.5902 25.5144C44.6054 26.9007 43.9545 27.8163 42.4492 27.8163C40.9439 27.8163 40.293 26.9007 39.3081 25.5144L39.3075 25.5136C38.1656 23.9067 36.745 21.9077 34.0522 21.9077C31.3595 21.9077 29.9384 23.9074 28.7968 25.5144L28.7965 25.5148C27.8118 26.9009 27.1614 27.8163 25.6563 27.8163C24.1511 27.8163 23.5007 26.9009 22.516 25.5148L22.5157 25.5144C21.3741 23.9074 19.953 21.9077 17.2603 21.9077C14.5676 21.9077 13.1465 23.9074 12.0049 25.5144L12.0046 25.5148L12.0046 25.5148C11.0199 26.9009 10.3695 27.8163 8.86435 27.8163C7.35921 27.8163 6.70881 26.9009 5.72409 25.5148L5.7238 25.5144C4.93002 24.3969 4.00105 23.0897 2.60341 22.3969C1.50989 21.8548 0.468384 20.9183 0.468384 19.6978V17.488C0.468384 17.488 0.468415 17.4879 0.468454 17.4879V17.4879C0.468493 17.4879 0.468525 17.4879 0.468525 17.4879V11.5347ZM6.2989 21.8839C6.29885 21.8837 6.29861 21.8835 6.29833 21.8835V21.8835C6.29786 21.8835 6.29759 21.884 6.29788 21.8844V21.8844C6.29824 21.8849 6.299 21.8845 6.2989 21.8839V21.8839Z"/>
</mask>
<path fill-rule="evenodd" clip-rule="evenodd" d="M0.468525 11.5347C0.468525 9.29779 2.28194 7.48438 4.51889 7.48438H46.7959C49.0329 7.48438 50.8463 9.29779 50.8463 11.5347V21.8834C50.8463 21.8834 50.8463 21.8835 50.8462 21.8835V21.8835C50.8462 21.8835 50.8462 21.8835 50.8462 21.8835V21.8956C50.8462 21.9023 50.8406 21.9077 50.8339 21.9077C48.1491 21.9138 46.7311 23.9091 45.5908 25.5136L45.5902 25.5144C44.6054 26.9007 43.9545 27.8163 42.4492 27.8163C40.9439 27.8163 40.293 26.9007 39.3081 25.5144L39.3075 25.5136C38.1656 23.9067 36.745 21.9077 34.0522 21.9077C31.3595 21.9077 29.9384 23.9074 28.7968 25.5144L28.7965 25.5148C27.8118 26.9009 27.1614 27.8163 25.6563 27.8163C24.1511 27.8163 23.5007 26.9009 22.516 25.5148L22.5157 25.5144C21.3741 23.9074 19.953 21.9077 17.2603 21.9077C14.5676 21.9077 13.1465 23.9074 12.0049 25.5144L12.0046 25.5148L12.0046 25.5148C11.0199 26.9009 10.3695 27.8163 8.86435 27.8163C7.35921 27.8163 6.70881 26.9009 5.72409 25.5148L5.7238 25.5144C4.93002 24.3969 4.00105 23.0897 2.60341 22.3969C1.50989 21.8548 0.468384 20.9183 0.468384 19.6978V17.488C0.468384 17.488 0.468415 17.4879 0.468454 17.4879V17.4879C0.468493 17.4879 0.468525 17.4879 0.468525 17.4879V11.5347ZM6.2989 21.8839C6.29885 21.8837 6.29861 21.8835 6.29833 21.8835V21.8835C6.29786 21.8835 6.29759 21.884 6.29788 21.8844V21.8844C6.29824 21.8849 6.299 21.8845 6.2989 21.8839V21.8839Z" fill="#375580"/>
<path d="M45.5908 25.5136L46.4106 26.0994L46.4121 26.0972L45.5908 25.5136ZM45.5902 25.5144L44.7705 24.9286L44.7689 24.9308L45.5902 25.5144ZM39.3081 25.5144L40.1295 24.9308L40.1279 24.9286L39.3081 25.5144ZM39.3075 25.5136L38.4863 26.0972L38.4878 26.0994L39.3075 25.5136ZM28.7968 25.5144L29.6175 26.0989L29.6182 26.0979L28.7968 25.5144ZM28.7965 25.5148L27.9759 24.9302L27.9751 24.9313L28.7965 25.5148ZM22.516 25.5148L21.6925 26.0954L21.6946 26.0983L22.516 25.5148ZM22.5157 25.5144L23.3392 24.9338L23.3371 24.9309L22.5157 25.5144ZM12.0049 25.5144L11.1835 24.9309L11.1811 24.9342L12.0049 25.5144ZM12.0046 25.5148L12.8107 26.1193L12.8197 26.1072L12.8284 26.0949L12.0046 25.5148ZM12.0046 25.5148L11.1986 24.9103L11.1908 24.9207L11.1832 24.9313L12.0046 25.5148ZM5.72409 25.5148L6.54549 24.9312L6.5409 24.9249L5.72409 25.5148ZM5.7238 25.5144L4.90237 26.0979L4.90699 26.1043L5.7238 25.5144ZM50.8339 21.9077L50.8361 22.9153L50.8339 21.9077ZM46.7959 6.47682H4.51889V8.49193H46.7959V6.47682ZM51.8538 21.8834V11.5347H49.8387V21.8834H51.8538ZM51.8537 21.8956V21.8835H49.8386V21.8956H51.8537ZM46.4121 26.0972C47.5977 24.4289 48.7371 22.92 50.8361 22.9153L50.8316 20.9002C47.5611 20.9076 45.8644 23.3894 44.7696 24.9299L46.4121 26.0972ZM46.41 26.1002L46.4106 26.0994L44.7711 24.9277L44.7705 24.9286L46.41 26.1002ZM42.4492 28.8239C43.4482 28.8239 44.2165 28.5052 44.8668 27.9535C45.4573 27.4524 45.9422 26.7587 46.4116 26.0979L44.7689 24.9308C44.2534 25.6563 43.9204 26.1136 43.563 26.417C43.2652 26.6697 42.9554 26.8088 42.4492 26.8088V28.8239ZM38.4868 26.0979C38.9562 26.7587 39.4411 27.4524 40.0316 27.9535C40.6818 28.5052 41.4502 28.8239 42.4492 28.8239V26.8088C41.9429 26.8088 41.6332 26.6697 41.3354 26.417C40.9779 26.1136 40.6449 25.6563 40.1295 24.9308L38.4868 26.0979ZM38.4878 26.0994L38.4884 26.1002L40.1279 24.9286L40.1273 24.9277L38.4878 26.0994ZM34.0522 22.9153C36.1578 22.9153 37.2989 24.4265 38.4863 26.0972L40.1288 24.9299C39.0322 23.3869 37.3321 20.9002 34.0522 20.9002V22.9153ZM29.6182 26.0979C30.8051 24.4271 31.9468 22.9153 34.0522 22.9153V20.9002C30.7723 20.9002 29.0717 23.3877 27.9754 24.9309L29.6182 26.0979ZM29.6172 26.0994L29.6175 26.0989L27.9762 24.9298L27.9759 24.9302L29.6172 26.0994ZM25.6563 28.8239C26.6552 28.8239 27.4234 28.5052 28.0735 27.9535C28.6638 27.4525 29.1486 26.7589 29.6179 26.0983L27.9751 24.9313C27.4597 25.6567 27.1269 26.1139 26.7696 26.4171C26.472 26.6697 26.1625 26.8088 25.6563 26.8088V28.8239ZM21.6946 26.0983C22.1639 26.7589 22.6487 27.4525 23.239 27.9535C23.8891 28.5052 24.6573 28.8239 25.6563 28.8239V26.8088C25.1501 26.8088 24.8405 26.6697 24.5429 26.4171C24.1856 26.1139 23.8528 25.6567 23.3374 24.9312L21.6946 26.0983ZM21.6922 26.095L21.6925 26.0954L23.3394 24.9342L23.3392 24.9338L21.6922 26.095ZM17.2603 22.9153C19.3657 22.9153 20.5074 24.4271 21.6943 26.0979L23.3371 24.9309C22.2409 23.3877 20.5402 20.9002 17.2603 20.9002V22.9153ZM12.8263 26.0979C14.0132 24.4271 15.1549 22.9153 17.2603 22.9153V20.9002C13.9803 20.9002 12.2797 23.3877 11.1835 24.9309L12.8263 26.0979ZM12.8284 26.0949L12.8287 26.0945L11.1811 24.9342L11.1808 24.9347L12.8284 26.0949ZM12.8106 26.1193L12.8107 26.1193L11.1986 24.9102L11.1986 24.9103L12.8106 26.1193ZM8.86435 28.8239C9.86328 28.8239 10.6315 28.5052 11.2816 27.9535C11.8719 27.4525 12.3567 26.7589 12.826 26.0983L11.1832 24.9313C10.6678 25.6567 10.335 26.1139 9.97768 26.4171C9.6801 26.6697 9.37056 26.8088 8.86435 26.8088V28.8239ZM4.90272 26.0983C5.37204 26.7589 5.85678 27.4525 6.44711 27.9535C7.09719 28.5052 7.86542 28.8239 8.86435 28.8239V26.8088C8.35815 26.8088 8.04861 26.6697 7.75102 26.4171C7.39369 26.1139 7.06087 25.6567 6.54547 24.9312L4.90272 26.0983ZM4.90699 26.1043L4.90729 26.1047L6.5409 24.9249L6.5406 24.9245L4.90699 26.1043ZM2.15592 23.2996C3.28947 23.8615 4.08247 24.9436 4.90239 26.0979L6.5452 24.9309C5.77757 23.8503 4.71263 22.3179 3.05089 21.4941L2.15592 23.2996ZM-0.539171 17.488V19.6978H1.47594V17.488H-0.539171ZM-0.53903 11.5347V17.4879H1.47608V11.5347H-0.53903ZM5.4974 22.4963C6.13782 23.3341 7.4721 22.7504 7.29158 21.7115L5.30622 22.0564C5.1259 21.0186 6.45866 20.4356 7.09836 21.2725L5.4974 22.4963ZM6.29833 22.891C5.8087 22.891 5.39003 22.5388 5.30622 22.0564L7.29158 21.7115C7.20767 21.2285 6.78852 20.8759 6.29833 20.8759V22.891ZM6.29833 20.8759C5.46333 20.8759 4.99031 21.8329 5.4974 22.4963L7.09836 21.2725C7.60487 21.9351 7.13238 22.891 6.29833 22.891V20.8759ZM49.8386 21.8956C49.8386 21.3274 50.3022 20.9014 50.8316 20.9002L50.8361 22.9153C51.3789 22.9141 51.8537 22.4772 51.8537 21.8956H49.8386ZM0.468454 18.4955C1.02097 18.4955 1.47608 18.0483 1.47608 17.4879H-0.53903C-0.53903 16.9275 -0.0839828 16.4804 0.468454 16.4804V18.4955ZM50.8462 20.8759C50.2897 20.8759 49.8386 21.327 49.8386 21.8835H51.8537C51.8537 22.44 51.4026 22.891 50.8462 22.891V20.8759ZM1.47594 17.488C1.47594 18.0444 1.02487 18.4955 0.468454 18.4955V16.4804C-0.088042 16.4804 -0.539171 16.9315 -0.539171 17.488H1.47594ZM49.8387 21.8834C49.8387 21.327 50.2898 20.8759 50.8462 20.8759V22.891C51.4027 22.891 51.8538 22.4399 51.8538 21.8834H49.8387ZM3.05089 21.4941C2.04061 20.9933 1.47594 20.3129 1.47594 19.6978H-0.539171C-0.539171 21.5238 0.979173 22.7163 2.15592 23.2996L3.05089 21.4941ZM4.51889 6.47682C1.72548 6.47682 -0.53903 8.74133 -0.53903 11.5347H1.47608C1.47608 9.85424 2.83839 8.49193 4.51889 8.49193V6.47682ZM46.7959 8.49193C48.4764 8.49193 49.8387 9.85425 49.8387 11.5347H51.8538C51.8538 8.74133 49.5893 6.47682 46.7959 6.47682V8.49193Z" fill="#3C5D8C" mask="url(#path-5-inside-3)"/>
<path d="M137.617 69.3383C137.617 71.6482 138.865 72.3303 139.488 72.3826V55.912C138.087 53.6341 135.752 50.2312 137.617 54.8428C139.949 60.6072 137.617 66.451 137.617 69.3383Z" fill="#375580"/>
<path d="M141.33 69.3383C141.33 71.6482 140.082 72.3303 139.459 72.3826V55.912C140.86 53.6341 143.195 50.2312 141.33 54.8428C138.998 60.6072 141.33 66.451 141.33 69.3383Z" fill="#375580"/>
<rect x="138.605" y="54.7784" width="2.00968" height="1.89441" fill="#375580"/>
<path d="M161.382 61.6591C161.382 63.5778 162.194 64.1443 162.6 64.1878V50.5068C161.688 48.6147 160.169 45.7882 161.382 49.6187C162.9 54.4067 161.382 59.2608 161.382 61.6591Z" fill="#375580"/>
<path d="M163.798 61.6591C163.798 63.5778 162.986 64.1444 162.58 64.1878V50.5068C163.492 48.6147 165.012 45.7882 163.798 49.6187C162.28 54.4068 163.798 59.2608 163.798 61.6591Z" fill="#375580"/>
<rect x="162.025" y="49.5652" width="1.30767" height="1.57355" fill="#375580"/>
<path fill-rule="evenodd" clip-rule="evenodd" d="M118.559 7.48438C116.566 7.48438 114.95 9.10015 114.95 11.0933V45.4485C114.95 45.4489 114.95 45.4493 114.949 45.4493C114.949 45.4493 114.948 45.4496 114.948 45.45V47.5443L114.948 47.5454L114.949 47.5577C114.951 47.904 115.041 48.226 115.195 48.5202C115.303 48.8346 115.45 49.2236 115.642 49.6972C117.32 53.8453 116.583 58.0346 116.038 61.1336C115.825 62.3412 115.642 63.3832 115.642 64.1927C115.642 66.4662 116.85 67.1628 117.483 67.2341V67.237L117.498 67.2357L117.513 67.2371V67.2341C118.146 67.1628 119.354 66.4662 119.354 64.1927C119.354 63.3831 119.171 62.3411 118.958 61.1336C118.489 58.4663 117.878 54.9912 118.786 51.43C119.282 51.9543 119.703 52.5288 120.091 53.0584L120.092 53.0588C121.055 54.3729 121.692 55.2408 123.165 55.2408C124.638 55.2408 125.274 54.3729 126.238 53.0588L126.238 53.0584C127.355 51.535 128.746 49.6393 131.381 49.6393C134.016 49.6393 135.407 51.535 136.524 53.0584L136.524 53.0588C137.403 54.2567 138.01 55.0839 139.226 55.2207C139.311 55.2403 139.416 55.2472 139.536 55.2414C139.6 55.2449 139.671 55.2437 139.747 55.2377C140.401 55.2103 140.884 55.0013 141.313 54.6523C141.416 54.5774 141.5 54.5015 141.563 54.4282C141.931 54.0675 142.273 53.6012 142.671 53.0588L142.671 53.0584C143.788 51.535 145.179 49.6393 147.814 49.6393C150.449 49.6393 151.839 51.5343 152.957 53.0577L152.957 53.0584C153.921 54.3727 154.558 55.2408 156.031 55.2408C157.504 55.2408 158.141 54.3727 159.105 53.0584L159.106 53.0577C159.894 51.9838 160.817 50.7252 162.216 50.0759C163.266 49.589 164.249 48.7013 164.249 47.5443V45.4498C164.249 45.4495 164.248 45.4493 164.248 45.4493C164.248 45.4493 164.248 45.4491 164.248 45.449L164.247 45.4487C164.249 45.3971 164.25 45.3454 164.25 45.2935V11.0933C164.25 9.10015 162.634 7.48438 160.641 7.48438H118.559ZM117.131 50.1489C117.129 50.148 117.127 50.1472 117.126 50.1463C117.127 50.1479 117.128 50.1495 117.129 50.151C117.129 50.1503 117.13 50.1496 117.131 50.1489Z" fill="#375580"/>
<path d="M144.709 59.0731C144.709 60.7051 145.957 61.187 146.58 61.224V49.5871C145.179 47.9778 142.844 45.5736 144.709 48.8317C147.041 52.9044 144.709 57.0332 144.709 59.0731Z" fill="#375580"/>
<path d="M148.422 59.0731C148.422 60.7051 147.174 61.187 146.551 61.224V49.5871C147.952 47.9778 150.287 45.5736 148.422 48.8317C146.09 52.9044 148.422 57.0332 148.422 59.0731Z" fill="#375580"/>
<rect x="145.697" y="48.7862" width="2.00968" height="1.33844" fill="#375580"/>
<path d="M131.724 58.6155C131.1 58.5786 130.037 58.0862 129.853 56.4647C129.581 54.0721 132.268 50.0889 131.257 46.3781C130.028 44.6414 129.015 42.0746 130.673 44.9704C130.938 45.4325 131.128 45.9031 131.257 46.3781C131.411 46.5954 131.568 46.7997 131.724 46.9787V58.6155Z" fill="#375580"/>
<path d="M133.565 56.4647C133.565 58.0967 132.318 58.5786 131.694 58.6156V46.9787C133.095 45.3693 135.431 42.9651 133.565 46.2233C131.233 50.2959 133.565 54.4247 133.565 56.4647Z" fill="#375580"/>
<rect x="130.84" y="46.1778" width="2.00968" height="1.33844" fill="#375580"/>
<path d="M135.854 52.1875C133.023 49.4096 132.542 50.9449 132.669 52.041L131.908 49.0703H136.17C137.244 51.2668 138.684 54.9653 135.854 52.1875Z" fill="#69688C"/>
<path d="M154.381 65.2314C154.381 66.8435 155.543 67.3195 156.124 67.356V55.8611C154.819 54.2714 152.643 51.8965 154.381 55.1149C156.553 59.1379 154.381 63.2163 154.381 65.2314Z" fill="#375580"/>
<path d="M157.839 65.2313C157.839 66.8434 156.677 67.3195 156.096 67.356V55.861C157.401 54.2713 159.577 51.8964 157.839 55.1148C155.667 59.1378 157.839 63.2163 157.839 65.2313Z" fill="#375580"/>
<rect x="155.174" y="55.0699" width="1.87213" height="1.32212" fill="#375580"/>
<path d="M121.33 62.6042C121.33 63.8783 122.577 64.2546 123.201 64.2834V55.1985C121.8 53.9421 119.464 52.0651 121.33 54.6087C123.661 57.7883 121.33 61.0116 121.33 62.6042Z" fill="#375580"/>
<path d="M125.042 62.6043C125.042 63.8784 123.794 64.2546 123.171 64.2835V55.1986C124.572 53.9421 126.907 52.0652 125.042 54.6088C122.71 57.7883 125.042 61.0117 125.042 62.6043Z" fill="#375580"/>
<rect x="122.559" y="54.5361" width="1.89394" height="0.848942" fill="#375580"/>
<rect x="138.354" y="54.6518" width="2.2386" height="0.848942" fill="#375580"/>
<path d="M158.216 54.1984C158.208 54.2 158.186 54.2359 158.175 54.2537L158.158 54.1873C158.18 54.1904 158.223 54.1968 158.216 54.1984Z" fill="#69688C"/>
<g filter="url(#filter0_d)">
<g filter="url(#filter1_d)">
<path fill-rule="evenodd" clip-rule="evenodd" d="M115.044 13.4949C115.044 11.5056 116.657 9.89294 118.646 9.89294H160.647C162.637 9.89294 164.249 11.5056 164.249 13.4949V38.0658C164.249 38.0662 164.249 38.0665 164.249 38.0665V38.0665C164.248 38.0665 164.248 38.0668 164.248 38.0672V38.0675C164.248 38.0681 164.247 38.0686 164.247 38.0686C161.618 38.0691 160.23 39.9602 159.115 41.4804L159.114 41.4811C158.152 42.7928 157.517 43.6592 156.046 43.6592C154.576 43.6592 153.94 42.7928 152.978 41.4811L152.978 41.4804C151.862 39.96 150.475 38.0686 147.845 38.0686C145.215 38.0686 143.827 39.9606 142.712 41.4811L142.711 41.4815C142.315 42.0226 141.973 42.4879 141.606 42.8479C141.544 42.9214 141.459 42.9975 141.356 43.0727C140.928 43.4202 140.446 43.6284 139.796 43.6561C139.719 43.6622 139.647 43.6635 139.582 43.6599C139.463 43.6657 139.358 43.6588 139.273 43.6392C138.059 43.5023 137.454 42.6769 136.577 41.4815L136.577 41.4811C135.462 39.9606 134.074 38.0686 131.444 38.0686C128.814 38.0686 127.426 39.9606 126.311 41.4811L126.31 41.4815L126.31 41.4815C125.348 42.793 124.713 43.6592 123.243 43.6592C121.773 43.6592 121.138 42.793 120.176 41.4815L120.176 41.4815L120.176 41.4811C119.39 40.4092 118.468 39.1526 117.071 38.5045C116.023 38.0184 115.042 37.1324 115.042 35.9776V33.8873C115.042 33.887 115.043 33.8866 115.043 33.8866V33.8866C115.044 33.8866 115.044 33.8863 115.044 33.886V13.4949Z" fill="#FCBBB5"/>
</g>
<g filter="url(#filter2_d)">
<path fill-rule="evenodd" clip-rule="evenodd" d="M115.045 11.1205C115.045 9.13118 116.657 7.51852 118.647 7.51852H160.648C162.637 7.51852 164.25 9.13119 164.25 11.1205V22.3499C164.25 22.3506 164.25 22.3511 164.249 22.3511H164.249C164.248 22.3511 164.248 22.3515 164.248 22.3521V22.3521C164.248 22.3527 164.247 22.3532 164.247 22.3532C161.617 22.3537 160.23 24.2448 159.115 25.765L159.114 25.7657C158.152 27.0774 157.517 27.9438 156.046 27.9438C154.576 27.9438 153.94 27.0774 152.978 25.7657L152.978 25.765C151.862 24.2446 150.475 22.3532 147.845 22.3532C145.215 22.3532 143.827 24.2452 142.712 25.7657L142.711 25.7661C142.314 26.3073 141.973 26.7726 141.606 27.1325C141.544 27.2059 141.459 27.2819 141.356 27.3569C140.929 27.7048 140.446 27.9131 139.795 27.9407C139.719 27.9468 139.647 27.9481 139.582 27.9445C139.463 27.9503 139.358 27.9434 139.273 27.9238C138.059 27.787 137.454 26.9616 136.577 25.7661L136.577 25.7657C135.462 24.2452 134.074 22.3532 131.444 22.3532C128.814 22.3532 127.425 24.2452 126.31 25.7657L126.31 25.7661L126.31 25.7661C125.348 27.0776 124.713 27.9438 123.243 27.9438C121.773 27.9438 121.138 27.0776 120.176 25.7661L120.176 25.7661L120.176 25.7657C119.389 24.6938 118.468 23.4372 117.071 22.7891C116.023 22.303 115.042 21.417 115.042 20.2622V18.1724C115.042 18.1717 115.043 18.1712 115.044 18.1712V18.1712C115.044 18.1712 115.045 18.1707 115.045 18.1701V11.1205Z" fill="#B3FFF7"/>
</g>
</g>
<path d="M137.574 54.5343C137.54 54.3784 137.422 54.1926 137.367 54.1192H137.638C137.631 54.3225 137.608 54.6902 137.574 54.5343Z" fill="#375580"/>
<path d="M132.369 49.7898C132.369 49.7891 132.369 49.7883 132.369 49.7876V49.5557C132.485 49.6418 132.682 49.8049 132.542 49.7691C132.406 49.7345 132.371 49.7658 132.369 49.7876V49.7898Z" fill="#375580"/>
<path d="M137.598 54.61C137.522 54.3726 137.4 54.2151 137.277 54.0164C137.154 53.8177 137.776 54.1233 137.776 54.1233C137.748 54.3845 137.674 54.8475 137.598 54.61Z" fill="#375580"/>
<path d="M137.767 55.043C137.62 54.6549 137.284 54.0788 137.134 53.8393L138.381 54.5272C138.238 54.8608 137.914 55.4312 137.767 55.043Z" fill="#375580"/>
<path d="M161.681 50.7807C161.516 50.5493 161.001 50.8771 160.764 51.07L160.489 50.002L162.324 50.18C162.178 50.4766 161.847 51.0121 161.681 50.7807Z" fill="#375580"/>
<path d="M130.084 54.4175C131.062 49.7629 128.074 50.8875 128.006 50.9742C127.939 51.0609 126.552 48.6496 126.552 48.6496L133.446 48.0359C131.918 52.1026 129.107 59.0722 130.084 54.4175Z" fill="#375580"/>
<path d="M128.751 50.7887C128.207 50.8387 127.85 51.0965 127.739 51.2191L128.015 50.4701C128.487 50.5555 129.295 50.7388 128.751 50.7887Z" fill="#375580"/>
<path d="M120.44 53.5448C118.564 51.343 118.627 52.3841 118.49 52.9136L117.951 51.3534L120.596 51.4953C121.057 52.9184 122.316 55.7466 120.44 53.5448Z" fill="#375580"/>
<path d="M141.973 53.9655C141.471 54.6178 141.109 55.4427 140.991 55.7736L139.903 53.9655C140.802 53.6937 142.475 53.3132 141.973 53.9655Z" fill="#375580"/>
<path d="M145.689 53.7616C145.764 49.973 144.184 51.0854 143.384 52.1151L143.086 50.2804L146.583 49.9668C146.254 52.8103 145.614 57.5502 145.689 53.7616Z" fill="#375580"/>
<path d="M162.004 55.4798C161.965 47.6327 157.681 55.3824 157.659 55.4798L155.574 48.3905L163.337 46.3519C162.905 52.0103 162.035 61.7575 162.004 55.4798Z" fill="#375580"/>
<path d="M154.634 55.6823C149.082 47.2771 147.485 50.7949 147.381 53.6045L146.244 52.0364L148.871 40.2361C153.105 48.887 160.185 64.0875 154.634 55.6823Z" fill="#375580"/>
<path d="M136.47 53.0246C133.323 49.4123 132.25 50.4424 132.804 52.8488L131.694 48.3116L137.93 48.0858C138.754 51.2372 139.616 56.6369 136.47 53.0246Z" fill="#375580"/>
<path d="M138.47 58.2823C137.98 55.1858 136.575 53.0957 135.935 52.4378L139.065 52.1523C139.071 55.4858 138.961 61.3787 138.47 58.2823Z" fill="#375580"/>
<path d="M155.349 59.828C155.234 56.4915 154.181 54.7499 153.67 54.2962L156.45 54.6148C156.131 57.7427 155.465 63.1645 155.349 59.828Z" fill="#375580"/>
<g filter="url(#filter3_d)">
<mask id="mask0" mask-type="alpha" maskUnits="userSpaceOnUse" x="227" y="7" width="53" height="53">
<rect x="227.32" y="7.48438" width="52.0363" height="52.0363" rx="2.26744" fill="#C4C4C4"/>
</mask>
<g mask="url(#mask0)">
<rect x="227.32" y="7.48438" width="52.0363" height="52.0363" fill="#B3FFF7"/>
<g filter="url(#filter4_d)">
<path d="M227.32 46.5122C231.657 46.5122 231.657 54.0903 235.992 54.0903C240.327 54.0903 240.329 46.5122 244.664 46.5122C248.998 46.5122 249.001 54.0903 253.338 54.0903C257.675 54.0903 257.673 46.5122 262.01 46.5122C266.347 46.5122 266.347 54.0903 270.682 54.0903C275.017 54.0903 275.019 46.5122 279.356 46.5122" fill="#FFF9F9"/>
<path d="M227.32 46.5122C231.657 46.5122 231.657 54.0903 235.992 54.0903C240.327 54.0903 240.329 46.5122 244.664 46.5122C248.998 46.5122 249.001 54.0903 253.338 54.0903C257.675 54.0903 257.673 46.5122 262.01 46.5122C266.347 46.5122 266.347 54.0903 270.682 54.0903C275.017 54.0903 275.019 46.5122 279.356 46.5122V7.48438H227.32V46.5122Z" fill="#FFF9F9"/>
</g>
<g filter="url(#filter5_d)">
<path d="M227.32 33.5027C231.657 33.5027 231.657 41.0808 235.992 41.0808C240.327 41.0808 240.329 33.5027 244.664 33.5027C248.998 33.5027 249.001 41.0808 253.338 41.0808C257.675 41.0808 257.673 33.5027 262.01 33.5027C266.347 33.5027 266.347 41.0808 270.682 41.0808C275.017 41.0808 275.019 33.5027 279.356 33.5027" fill="#FCBBB5"/>
<path d="M227.32 33.5027C231.657 33.5027 231.657 41.0808 235.992 41.0808C240.327 41.0808 240.329 33.5027 244.664 33.5027C248.998 33.5027 249.001 41.0808 253.338 41.0808C257.675 41.0808 257.673 33.5027 262.01 33.5027C266.347 33.5027 266.347 41.0808 270.682 41.0808C275.017 41.0808 275.019 33.5027 279.356 33.5027V7.48529H227.32V33.5027Z" fill="#FCBBB5"/>
</g>
<g filter="url(#filter6_d)">
<path d="M227.32 20.4853C231.657 20.4853 231.657 28.0634 235.992 28.0634C240.327 28.0634 240.329 20.4853 244.664 20.4853C248.998 20.4853 249.001 28.0634 253.338 28.0634C257.675 28.0634 257.673 20.4853 262.01 20.4853C266.347 20.4853 266.347 28.0634 270.682 28.0634C275.017 28.0634 275.019 20.4853 279.356 20.4853" fill="#375580"/>
<path d="M227.32 20.4853C231.657 20.4853 231.657 28.0634 235.992 28.0634C240.327 28.0634 240.329 20.4853 244.664 20.4853C248.998 20.4853 249.001 28.0634 253.338 28.0634C257.675 28.0634 257.673 20.4853 262.01 20.4853C266.347 20.4853 266.347 28.0634 270.682 28.0634C275.017 28.0634 275.019 20.4853 279.356 20.4853V7.48442L227.32 7.48438V20.4853Z" fill="#375580"/>
</g>
</g>
</g>
<defs>
<filter id="filter0_d" x="113.655" y="6.82488" width="51.9823" height="38.918" filterUnits="userSpaceOnUse" color-interpolation-filters="sRGB">
<feFlood flood-opacity="0" result="BackgroundImageFix"/>
<feColorMatrix in="SourceAlpha" type="matrix" values="0 0 0 0 0 0 0 0 0 0 0 0 0 0 0 0 0 0 127 0"/>
<feOffset dy="0.693645"/>
<feGaussianBlur stdDeviation="0.693645"/>
<feColorMatrix type="matrix" values="0 0 0 0 0 0 0 0 0 0 0 0 0 0 0 0 0 0 0.3 0"/>
<feBlend mode="normal" in2="BackgroundImageFix" result="effect1_dropShadow"/>
<feBlend mode="normal" in="SourceGraphic" in2="effect1_dropShadow" result="shape"/>
</filter>
<filter id="filter1_d" x="113.655" y="9.1993" width="51.9814" height="36.5436" filterUnits="userSpaceOnUse" color-interpolation-filters="sRGB">
<feFlood flood-opacity="0" result="BackgroundImageFix"/>
<feColorMatrix in="SourceAlpha" type="matrix" values="0 0 0 0 0 0 0 0 0 0 0 0 0 0 0 0 0 0 127 0"/>
<feOffset dy="0.693645"/>
<feGaussianBlur stdDeviation="0.693645"/>
<feColorMatrix type="matrix" values="0 0 0 0 0 0 0 0 0 0 0 0 0 0 0 0 0 0 0.3 0"/>
<feBlend mode="normal" in2="BackgroundImageFix" result="effect1_dropShadow"/>
<feBlend mode="normal" in="SourceGraphic" in2="effect1_dropShadow" result="shape"/>
</filter>
<filter id="filter2_d" x="113.655" y="6.82488" width="51.9823" height="23.2025" filterUnits="userSpaceOnUse" color-interpolation-filters="sRGB">
<feFlood flood-opacity="0" result="BackgroundImageFix"/>
<feColorMatrix in="SourceAlpha" type="matrix" values="0 0 0 0 0 0 0 0 0 0 0 0 0 0 0 0 0 0 127 0"/>
<feOffset dy="0.693645"/>
<feGaussianBlur stdDeviation="0.693645"/>
<feColorMatrix type="matrix" values="0 0 0 0 0 0 0 0 0 0 0 0 0 0 0 0 0 0 0.3 0"/>
<feBlend mode="normal" in2="BackgroundImageFix" result="effect1_dropShadow"/>
<feBlend mode="normal" in="SourceGraphic" in2="effect1_dropShadow" result="shape"/>
</filter>
<filter id="filter3_d" x="218.25" y="0.228575" width="70.1758" height="70.1758" filterUnits="userSpaceOnUse" color-interpolation-filters="sRGB">
<feFlood flood-opacity="0" result="BackgroundImageFix"/>
<feColorMatrix in="SourceAlpha" type="matrix" values="0 0 0 0 0 0 0 0 0 0 0 0 0 0 0 0 0 0 127 0"/>
<feOffset dy="1.81395"/>
<feGaussianBlur stdDeviation="4.53487"/>
<feColorMatrix type="matrix" values="0 0 0 0 0 0 0 0 0 0 0 0 0 0 0 0 0 0 0.25 0"/>
<feBlend mode="normal" in2="BackgroundImageFix" result="effect1_dropShadow"/>
<feBlend mode="normal" in="SourceGraphic" in2="effect1_dropShadow" result="shape"/>
</filter>
<filter id="filter4_d" x="226.579" y="7.33626" width="53.5175" height="48.0871" filterUnits="userSpaceOnUse" color-interpolation-filters="sRGB">
<feFlood flood-opacity="0" result="BackgroundImageFix"/>
<feColorMatrix in="SourceAlpha" type="matrix" values="0 0 0 0 0 0 0 0 0 0 0 0 0 0 0 0 0 0 127 0"/>
<feOffset dy="0.592466"/>
<feGaussianBlur stdDeviation="0.370291"/>
<feColorMatrix type="matrix" values="0 0 0 0 0 0 0 0 0 0 0 0 0 0 0 0 0 0 0.5 0"/>
<feBlend mode="normal" in2="BackgroundImageFix" result="effect1_dropShadow"/>
<feBlend mode="normal" in="SourceGraphic" in2="effect1_dropShadow" result="shape"/>
</filter>
<filter id="filter5_d" x="226.431" y="7.18906" width="53.8137" height="35.3729" filterUnits="userSpaceOnUse" color-interpolation-filters="sRGB">
<feFlood flood-opacity="0" result="BackgroundImageFix"/>
<feColorMatrix in="SourceAlpha" type="matrix" values="0 0 0 0 0 0 0 0 0 0 0 0 0 0 0 0 0 0 127 0"/>
<feOffset dy="0.592466"/>
<feGaussianBlur stdDeviation="0.44435"/>
<feColorMatrix type="matrix" values="0 0 0 0 0 0 0 0 0 0 0 0 0 0 0 0 0 0 0.5 0"/>
<feBlend mode="normal" in2="BackgroundImageFix" result="effect1_dropShadow"/>
<feBlend mode="normal" in="SourceGraphic" in2="effect1_dropShadow" result="shape"/>
</filter>
<filter id="filter6_d" x="226.431" y="7.18814" width="53.8137" height="22.3564" filterUnits="userSpaceOnUse" color-interpolation-filters="sRGB">
<feFlood flood-opacity="0" result="BackgroundImageFix"/>
<feColorMatrix in="SourceAlpha" type="matrix" values="0 0 0 0 0 0 0 0 0 0 0 0 0 0 0 0 0 0 127 0"/>
<feOffset dy="0.592466"/>
<feGaussianBlur stdDeviation="0.44435"/>
<feColorMatrix type="matrix" values="0 0 0 0 0 0 0 0 0 0 0 0 0 0 0 0 0 0 0.5 0"/>
<feBlend mode="normal" in2="BackgroundImageFix" result="effect1_dropShadow"/>
<feBlend mode="normal" in="SourceGraphic" in2="effect1_dropShadow" result="shape"/>
</filter>
</defs>
</svg>
