<svg width="31" height="31" viewBox="0 0 31 31" fill="none" xmlns="http://www.w3.org/2000/svg">
<g clip-path="url(#clip0)">
<path d="M15.4981 0.953613C7.21625 0.953613 0.5 7.69611 0.5 16.0136C0.5 22.6661 4.7975 28.3099 10.76 30.303C11.51 30.4417 11.7838 29.9767 11.7838 29.5774C11.7838 29.2192 11.7706 28.2724 11.7631 27.0161C7.59125 27.9255 6.71 24.9967 6.71 24.9967C6.02938 23.2567 5.045 22.7936 5.045 22.7936C3.68188 21.8599 5.14625 21.8786 5.14625 21.8786C6.65187 21.9855 7.44313 23.4311 7.44313 23.4311C8.78188 25.7317 10.955 25.068 11.81 24.6817C11.945 23.7086 12.3331 23.0449 12.7625 22.668C9.4325 22.2874 5.93 20.9955 5.93 15.2261C5.93 13.5817 6.515 12.2374 7.475 11.1836C7.31938 10.803 6.80563 9.27111 7.62125 7.19924C7.62125 7.19924 8.88125 6.79424 11.7463 8.74236C12.9425 8.40861 14.225 8.24174 15.5019 8.23611C16.775 8.24361 18.0594 8.40861 19.2575 8.74424C22.1206 6.79611 23.3787 7.20111 23.3787 7.20111C24.1962 9.27486 23.6825 10.8049 23.5287 11.1855C24.4906 12.2392 25.07 13.5836 25.07 15.228C25.07 21.0124 21.5637 22.2855 18.2225 22.6586C18.7606 23.1236 19.2406 24.0424 19.2406 25.4467C19.2406 27.4605 19.2219 29.0842 19.2219 29.5774C19.2219 29.9805 19.4919 30.4492 20.2531 30.3011C26.2062 28.3061 30.5 22.6642 30.5 16.0136C30.5 7.69611 23.7838 0.953613 15.4981 0.953613Z" fill="#595954"/>
</g>
<defs>
<clipPath id="clip0">
<rect width="30" height="30" fill="white" transform="translate(0.5 0.641602)"/>
</clipPath>
</defs>
</svg>
