<svg width="120" height="80" viewBox="0 0 120 80" fill="none" xmlns="http://www.w3.org/2000/svg">
<rect width="120" height="80" fill="white"/>
<path d="M95.1822 7.54785H24.8178C22.0422 7.54785 19.75 9.64021 19.75 12.2524V12.3592V12.4661V12.573V12.68V12.7871V12.8942V13.0014V13.1087V13.2161V13.3235V13.431V13.5385V13.6461V13.7538V13.8616V13.9694V14.0773V14.1852V14.2932V14.4013V14.5095V14.6177V14.726V14.8343V14.9427V15.0511V15.1597V15.2682V15.3769V15.4856V15.5943V15.7032V15.8121V15.921V16.03V16.1391V16.2482V16.3573V16.4666V16.5759V16.6852V16.7946V16.9041V17.0136V17.1231V17.2328V17.3424V17.4522V17.5619V17.6718V17.7817V17.8916V18.0016V18.1116V18.2217V18.3319V18.4421V18.5523V18.6626V18.7729V18.8833V18.9938V19.1043V19.2148V19.3254V19.436V19.5467V19.6574V19.7682V19.879V19.9898V20.1007V20.2117V20.3227V20.4337V20.5448V20.6559V20.7671V20.8783V20.9895V21.1008V21.2121V21.3235V21.4349V21.5463V21.6578V21.7693V21.8809V21.9925V22.1041V22.2158V22.3275V22.4393V22.5511V22.6629V22.7747V22.8866V22.9985V23.1105V23.2225V23.3345V23.4466V23.5587V23.6708V23.783V23.8951V24.0074V24.1196V24.2319V24.3442V24.4565V24.5689V24.6813V24.7937V24.9062V25.0187V25.1312V25.2437V25.3563V25.4689V25.5815V25.6941V25.8068V25.9195V26.0322V26.1449V26.2577V26.3705V26.4833V26.5961V26.7089V26.8218V26.9347V27.0476V27.1606V27.2735V27.3865V27.4995V27.6125V27.7255V27.8386V27.9516V28.0647V28.1778V28.2909V28.4041V28.5172V28.6304V28.7436V28.8568V28.97V29.0832V29.1964V29.3097V29.4229V29.5362V29.6495V29.7628V29.8761V29.9894V30.1028V30.2161V30.3295V30.4428V30.5562V30.6696V30.7829V30.8963V31.0097V31.1231V31.2366V31.35V31.4634V31.5768V31.6903V31.8037V31.9172V32.0306V32.1441V32.2575V32.371V32.4844V32.5979V32.7114V32.8248V32.9383V33.0518V33.1652V33.2787V33.3922V33.5056V33.6191V33.7326V33.846V33.9595V34.073V34.1864V34.2999V34.4133V34.5267V34.6402V34.7536V34.867V34.9804V35.0939V35.2073V35.3207V35.4341V35.5474V35.6608V35.7742V35.8875V36.0009V36.1142V36.2276V36.3409V36.4542V36.5675V36.6808V36.794V36.9073V37.0205V37.1338V37.247V37.3602V37.4734V37.5865V37.6997V37.8129V37.926V38.0391V38.1522V38.2653V38.3783V38.4914V38.6044V38.7174V38.8304V38.9434V39.0563V39.1692V39.2822V39.395V39.5079V39.6207V39.7336V39.8464V39.9591V40.0719V40.1846V40.2973V40.41V40.5227V40.6353V40.7479V40.8605V40.973V41.0856V41.1981V41.3105V41.423V41.5354V41.6478V41.7602V41.8725V41.9848V42.0971V42.2093V42.3215V42.4337V42.5458V42.6579V42.77V42.8821V42.9941V43.1061V43.218V43.3299V43.4418V43.5537V43.6655V43.7772V43.889V44.0007V44.1123V44.224V44.3356V44.4471V44.5586V44.6701V44.7815V44.8929V45.0043V45.1156V45.2269V45.3381V45.4493V45.5604V45.6715V45.7826V45.8936V46.0046V46.1155V46.2264V46.3373V46.4481V46.5588V46.6695V46.7802V46.8908V47.0014V47.1119V47.2224V47.3328V47.4432V47.5535V47.6638V47.774V47.8842V47.9943V48.1044V48.2144V48.3244V48.4343V48.5442V48.654V48.7638V48.8735V48.9831V49.0927V49.2023V49.3118V49.4212V49.5306V49.6399V49.7492V49.8584V49.9676V50.0767V50.1857V50.2947V50.4036V50.5125V50.6213V50.73V50.8387V50.9473V51.0559V51.1644V51.2729V51.3812V51.4895V51.5978V51.706V51.8141V51.9222V52.0302V52.1381V52.246V52.3538V52.4615V52.5692V52.6768V52.7843V52.8918V52.9992V53.1065V53.2138V53.321V53.4281V53.5351V53.6421V53.749V53.8559V53.9626V54.0693V54.176V54.2825V54.389V54.4954V54.6017V54.708V54.8142V54.9203V55.0263V55.1323V55.2382V55.344V55.4497V55.5554V55.6609V55.7664V55.8719V55.9772V56.0825V56.1876V56.2927V56.3978V56.5027V56.6076V56.7123V56.817V56.9217V57.0262V57.1306V57.235V57.3393V57.4435V57.5476V57.6516V57.7556V57.8594V57.9632V58.0669V58.1705V58.274V58.3774V58.4808V58.584V58.6872V58.7903V58.8932V58.9961V59.0989V59.2017V59.3043V59.4068V59.5092V59.6116V59.7138V59.816V59.9181V60.02V60.1219V60.2237V60.3254V60.427V60.5285V60.6299V60.7312V60.8324V60.9335V61.0346V61.1355V61.2363V61.337V61.4376V61.5382V61.6386V61.7389V61.8391V61.9393V62.0393V62.1392V62.239V62.3387V62.4384V62.5379V62.6373V62.7366V62.8358V62.9349V63.0339V63.1327V63.2315V63.3302V63.4288V63.5272V63.6256V63.7238V63.8219V63.92V64.0179V64.1157V64.2134V64.311V64.4085V64.5058V64.6031V64.7002V64.7973V64.8942V64.991V65.0877V65.1843V65.2807V65.3771V65.4733V65.5695V65.6655V65.7613V65.8571V65.9528V66.0483V66.1438V66.2391V66.3342V66.4293V66.5243V66.6191V66.7138V66.8084V66.9029V66.9972V67.0915V67.1856V67.2796V67.3734V67.4672V67.5608V67.6543V67.7477C19.75 70.3599 22.0422 72.4522 24.8178 72.4522H95.1822C97.9578 72.4522 100.25 70.3599 100.25 67.7477V67.6536V67.5595V67.4652V67.3708V67.2763V67.1817V67.0869V66.9921V66.8971V66.802V66.7067V66.6114V66.5159V66.4203V66.3246V66.2288V66.1328V66.0368V65.9406V65.8443V65.7479V65.6514V65.5548V65.458V65.3612V65.2642V65.1671V65.0699V64.9726V64.8752V64.7776V64.68V64.5822V64.4843V64.3864V64.2883V64.1901V64.0918V63.9934V63.8949V63.7962V63.6975V63.5986V63.4997V63.4006V63.3015V63.2022V63.1028V63.0034V62.9038V62.8041V62.7043V62.6044V62.5045V62.4044V62.3042V62.2039V62.1035V62.003V61.9024V61.8017V61.7009V61.6V61.499V61.3979V61.2967V61.1954V61.0941V60.9926V60.891V60.7893V60.6876V60.5857V60.4838V60.3817V60.2796V60.1773V60.075V59.9726V59.8701V59.7675V59.6648V59.562V59.4591V59.3561V59.2531V59.1499V59.0467V58.9433V58.8399V58.7364V58.6328V58.5291V58.4254V58.3215V58.2176V58.1136V58.0095V57.9053V57.801V57.6966V57.5922V57.4877V57.383V57.2784V57.1736V57.0687V56.9638V56.8588V56.7537V56.6485V56.5432V56.4379V56.3325V56.227V56.1214V56.0157V55.91V55.8042V55.6983V55.5924V55.4863V55.3802V55.274V55.1678V55.0614V54.955V54.8486V54.742V54.6354V54.5287V54.4219V54.3151V54.2081V54.1012V53.9941V53.887V53.7798V53.6725V53.5652V53.4578V53.3503V53.2428V53.1352V53.0275V52.9198V52.812V52.7041V52.5962V52.4882V52.3801V52.272V52.1638V52.0555V51.9472V51.8388V51.7304V51.6219V51.5133V51.4047V51.296V51.1873V51.0785V50.9696V50.8607V50.7517V50.6427V50.5336V50.4244V50.3152V50.2059V50.0966V49.9872V49.8778V49.7683V49.6587V49.5491V49.4395V49.3298V49.22V49.1102V49.0003V48.8904V48.7804V48.6704V48.5603V48.4502V48.3401V48.2298V48.1196V48.0092V47.8989V47.7885V47.678V47.5675V47.4569V47.3463V47.2357V47.125V47.0142V46.9034V46.7926V46.6817V46.5708V46.4599V46.3489V46.2378V46.1267V46.0156V45.9044V45.7932V45.6819V45.5707V45.4593V45.3479V45.2365V45.1251V45.0136V44.9021V44.7905V44.6789V44.5673V44.4556V44.3439V44.2321V44.1204V44.0085V43.8967V43.7848V43.6729V43.5609V43.449V43.3369V43.2249V43.1128V43.0007V42.8886V42.7764V42.6642V42.552V42.4397V42.3274V42.2151V42.1027V41.9904V41.878V41.7655V41.6531V41.5406V41.4281V41.3156V41.203V41.0904V40.9778V40.8652V40.7525V40.6399V40.5272V40.4145V40.3017V40.189V40.0762V39.9634V39.8505V39.7377V39.6248V39.5119V39.399V39.2861V39.1732V39.0602V38.9473V38.8343V38.7213V38.6082V38.4952V38.3822V38.2691V38.156V38.0429V37.9298V37.8167V37.7036V37.5904V37.4772V37.3641V37.2509V37.1377V37.0245V36.9113V36.7981V36.6848V36.5716V36.4583V36.3451V36.2318V36.1185V36.0053V35.892V35.7787V35.6654V35.5521V35.4388V35.3255V35.2121V35.0988V34.9855V34.8722V34.7588V34.6455V34.5322V34.4188V34.3055V34.1922V34.0788V33.9655V33.8522V33.7388V33.6255V33.5122V33.3988V33.2855V33.1722V33.0589V32.9455V32.8322V32.7189V32.6056V32.4923V32.379V32.2657V32.1524V32.0392V31.9259V31.8126V31.6994V31.5861V31.4729V31.3597V31.2465V31.1333V31.0201V30.9069V30.7937V30.6805V30.5674V30.4542V30.3411V30.228V30.1149V30.0018V29.8887V29.7757V29.6626V29.5496V29.4366V29.3236V29.2106V29.0977V28.9847V28.8718V28.7589V28.646V28.5331V28.4203V28.3074V28.1946V28.0818V27.9691V27.8563V27.7436V27.6309V27.5182V27.4055V27.2929V27.1803V27.0677V26.9551V26.8426V26.7301V26.6176V26.5051V26.3927V26.2803V26.1679V26.0555V25.9432V25.8309V25.7186V25.6064V25.4942V25.382V25.2699V25.1577V25.0456V24.9336V24.8216V24.7096V24.5976V24.4857V24.3738V24.2619V24.1501V24.0383V23.9265V23.8148V23.7031V23.5915V23.4798V23.3683V23.2567V23.1452V23.0338V22.9223V22.8109V22.6996V22.5883V22.477V22.3658V22.2546V22.1435V22.0324V21.9213V21.8103V21.6993V21.5884V21.4775V21.3666V21.2558V21.1451V21.0343V20.9237V20.8131V20.7025V20.592V20.4815V20.371V20.2606V20.1503V20.04V19.9298V19.8196V19.7095V19.5994V19.4893V19.3793V19.2694V19.1595V19.0497V18.9399V18.8302V18.7205V18.6109V18.5013V18.3918V18.2823V18.1729V18.0636V17.9543V17.8451V17.7359V17.6268V17.5177V17.4087V17.2997V17.1909V17.082V16.9733V16.8646V16.7559V16.6473V16.5388V16.4303V16.3219V16.2136V16.1053V15.9971V15.8889V15.7809V15.6728V15.5649V15.457V15.3492V15.2414V15.1337V15.0261V14.9185V14.811V14.7036V14.5962V14.4889V14.3817V14.2746V14.1675V14.0605V13.9535V13.8467V13.7399V13.6331V13.5265V13.4199V13.3134V13.207V13.1006V12.9943V12.8881V12.782V12.6759V12.5699V12.464V12.3582V12.2524C100.25 9.64021 97.9578 7.54785 95.1822 7.54785ZM22.1483 12.2524C22.1483 10.9202 23.3273 9.80299 24.8178 9.80299H95.1822C96.6727 9.80299 97.8517 10.9202 97.8517 12.2524V16.7659H22.1483V12.2524ZM95.1822 70.1971H24.8178C23.3273 70.1971 22.1483 69.0799 22.1483 67.7477V18.1255H97.8517L97.853 67.7474C97.8519 69.0799 96.6726 70.1971 95.1822 70.1971Z" fill="#0CCAF2" stroke="#0CCAF2" stroke-width="0.5"/>
<path d="M30.3385 10.186C28.6937 10.186 27.3563 11.5234 27.3563 13.1683C27.3563 14.8132 28.6937 16.1506 30.3385 16.1506C31.9834 16.1506 33.3208 14.8132 33.3208 13.1683C33.3208 11.5234 31.9823 10.186 30.3385 10.186ZM30.3385 14.0521C29.8512 14.0521 29.4547 13.6549 29.4547 13.1683C29.4547 12.6809 29.8511 12.2845 30.3385 12.2845C30.826 12.2845 31.2224 12.6809 31.2224 13.1683C31.2224 13.6558 30.826 14.0521 30.3385 14.0521Z" fill="#0CCAF2" stroke="#0CCAF2" stroke-width="0.5"/>
<path d="M36.8932 10.1855C35.2484 10.1855 33.9109 11.523 33.9109 13.1678C33.9109 14.8127 35.2484 16.1501 36.8932 16.1501C38.5381 16.1501 39.8755 14.8127 39.8755 13.1678C39.8755 11.523 38.5381 10.1855 36.8932 10.1855ZM36.8932 14.0517C36.4059 14.0517 36.0094 13.6544 36.0094 13.1678C36.0094 12.6805 36.4067 12.284 36.8932 12.284C37.3798 12.284 37.7771 12.6805 37.7771 13.1678C37.7771 13.6553 37.3807 14.0517 36.8932 14.0517Z" fill="#0CCAF2" stroke="#0CCAF2" stroke-width="0.5"/>
<path d="M43.4541 10.186C41.8093 10.186 40.4719 11.5234 40.4719 13.1683C40.4719 14.8132 41.8093 16.1506 43.4541 16.1506C45.099 16.1506 46.4364 14.8132 46.4364 13.1683C46.4364 11.5234 45.099 10.186 43.4541 10.186ZM43.4541 14.0521C42.9668 14.0521 42.5703 13.6549 42.5703 13.1683C42.5703 12.6809 42.9667 12.2845 43.4541 12.2845C43.9416 12.2845 44.338 12.6809 44.338 13.1683C44.338 13.6558 43.9416 14.0521 43.4541 14.0521Z" fill="#0CCAF2" stroke="#0CCAF2" stroke-width="0.5"/>
<path d="M87.6593 12.0596H54.5309C53.9186 12.0596 53.4219 12.5563 53.4219 13.1686C53.4219 13.7808 53.9186 14.2776 54.5309 14.2776H87.6593C88.2715 14.2776 88.7683 13.7808 88.7683 13.1686C88.7683 12.5563 88.2715 12.0596 87.6593 12.0596Z" fill="#0CCAF2" stroke="#0CCAF2" stroke-width="0.5"/>
<path d="M88.9908 23.3137V64.3502H49.4524V23.3137H88.9908ZM90.0998 21.0957H48.3434C47.7311 21.0957 47.2344 21.5925 47.2344 22.2047V65.4592C47.2344 66.0715 47.7311 66.5683 48.3434 66.5683H90.0998C90.712 66.5683 91.2088 66.0715 91.2088 65.4592V22.2047C91.2088 21.5925 90.712 21.0957 90.0998 21.0957Z" fill="#0CCAF2" stroke="#0CCAF2" stroke-width="0.5"/>
<path d="M42.26 21.0957H28.4653C27.853 21.0957 27.3563 21.5925 27.3563 22.2047V65.4592C27.3563 66.0715 27.853 66.5683 28.4653 66.5683H42.26C42.8722 66.5683 43.369 66.0715 43.369 65.4592V22.2047C43.369 21.5925 42.8722 21.0957 42.26 21.0957ZM41.151 64.3502H29.5743V23.3137H41.151V64.3502Z" fill="#0CCAF2" stroke="#0CCAF2" stroke-width="0.5"/>
<path d="M54.1118 57.4671V52.9802H58.1016V57.4671H54.1118ZM53.0028 59.6852H59.2106C59.8229 59.6852 60.3196 59.1884 60.3196 58.5761V51.8712C60.3196 51.259 59.8229 50.7622 59.2106 50.7622H57.2157V45.8286H68.1155V50.7622H66.1206C65.5083 50.7622 65.0115 51.259 65.0115 51.8712V58.5761C65.0115 59.1884 65.5083 59.6852 66.1206 59.6852H72.3284C72.9407 59.6852 73.4374 59.1884 73.4374 58.5761V51.8712C73.4374 51.259 72.9407 50.7622 72.3284 50.7622H70.3335V45.8286H81.2344V50.7622H79.2395C78.6273 50.7622 78.1305 51.259 78.1305 51.8712V58.5761C78.1305 59.1884 78.6273 59.6852 79.2395 59.6852H85.4462C86.0585 59.6852 86.5552 59.1884 86.5552 58.5761V51.8712C86.5552 51.259 86.0585 50.7622 85.4462 50.7622H83.4525V44.7196C83.4525 44.1073 82.9557 43.6106 82.3434 43.6106H70.3335V37.5843H73.176C73.7882 37.5843 74.285 37.0875 74.285 36.4753V29.0866C74.285 28.4743 73.7882 27.9775 73.176 27.9775H65.273C64.6607 27.9775 64.164 28.4743 64.164 29.0866V36.4753C64.164 37.0875 64.6607 37.5843 65.273 37.5843H68.1155V43.6106H56.1067C55.4944 43.6106 54.9977 44.1073 54.9977 44.7196V50.7622H53.0028C52.3905 50.7622 51.8937 51.259 51.8937 51.8712V58.5761C51.8937 59.1884 52.3905 59.6852 53.0028 59.6852ZM71.2194 57.4671H67.2296V52.9802H71.2194V57.4671ZM84.3372 57.4671H80.3485V52.9802H84.3372V57.4671ZM66.382 30.1956H72.0658V35.3663H66.382V30.1956Z" fill="#0CCAF2" stroke="#0CCAF2" stroke-width="0.5"/>
</svg>
