<svg width="111" height="90" viewBox="0 0 111 90" fill="none" xmlns="http://www.w3.org/2000/svg">
<path d="M103.055 0.48781H7.27063C3.49239 0.48781 0.372088 3.33605 0.372088 6.89192V7.03729V7.18276V7.32832V7.47398V7.61974V7.76559V7.91153V8.05757V8.2037V8.34993V8.49624V8.64265V8.78915V8.93574V9.08242V9.22919V9.37605V9.523V9.67004V9.81717V9.96438V10.1117V10.2591V10.4065V10.5541V10.7017V10.8494V10.9973V11.1451V11.2931V11.4412V11.5893V11.7375V11.8858V12.0342V12.1827V12.3312V12.4798V12.6285V12.7773V12.9261V13.075V13.224V13.3731V13.5223V13.6715V13.8208V13.9701V14.1196V14.2691V14.4187V14.5683V14.7181V14.8678V15.0177V15.1676V15.3176V15.4677V15.6179V15.7681V15.9183V16.0687V16.2191V16.3695V16.5201V16.6707V16.8213V16.972V17.1228V17.2737V17.4246V17.5755V17.7266V17.8776V18.0288V18.18V18.3313V18.4826V18.6339V18.7854V18.9369V19.0884V19.24V19.3917V19.5434V19.6951V19.8469V19.9988V20.1507V20.3027V20.4547V20.6068V20.7589V20.9111V21.0633V21.2155V21.3678V21.5202V21.6726V21.8251V21.9776V22.1301V22.2827V22.4353V22.588V22.7407V22.8935V23.0463V23.1991V23.352V23.5049V23.6579V23.8109V23.9639V24.117V24.2701V24.4233V24.5764V24.7297V24.8829V25.0362V25.1896V25.3429V25.4963V25.6498V25.8032V25.9567V26.1102V26.2638V26.4174V26.571V26.7247V26.8783V27.032V27.1858V27.3395V27.4933V27.6471V27.801V27.9548V28.1087V28.2626V28.4166V28.5705V28.7245V28.8785V29.0325V29.1866V29.3407V29.4947V29.6488V29.803V29.9571V30.1113V30.2655V30.4197V30.5739V30.7281V30.8823V31.0366V31.1909V31.3452V31.4995V31.6538V31.8081V31.9624V32.1168V32.2711V32.4255V32.5799V32.7343V32.8887V33.0431V33.1975V33.3519V33.5063V33.6607V33.8152V33.9696V34.1241V34.2785V34.433V34.5874V34.7419V34.8963V35.0508V35.2052V35.3597V35.5142V35.6686V35.8231V35.9775V36.132V36.2864V36.4409V36.5953V36.7498V36.9042V37.0586V37.2131V37.3675V37.5219V37.6763V37.8307V37.9851V38.1394V38.2938V38.4481V38.6025V38.7568V38.9111V39.0655V39.2197V39.374V39.5283V39.6826V39.8368V39.991V40.1452V40.2994V40.4536V40.6077V40.7619V40.916V41.0701V41.2242V41.3782V41.5323V41.6863V41.8403V41.9943V42.1482V42.3022V42.4561V42.6099V42.7638V42.9176V43.0714V43.2252V43.379V43.5327V43.6864V43.8401V43.9937V44.1473V44.3009V44.4544V44.608V44.7614V44.9149V45.0683V45.2217V45.3751V45.5284V45.6817V45.8349V45.9881V46.1413V46.2945V46.4476V46.6006V46.7537V46.9067V47.0596V47.2125V47.3654V47.5182V47.671V47.8237V47.9765V48.1291V48.2817V48.4343V48.5868V48.7393V48.8917V49.0441V49.1965V49.3488V49.501V49.6532V49.8054V49.9575V50.1095V50.2615V50.4135V50.5654V50.7172V50.869V51.0208V51.1725V51.3241V51.4757V51.6272V51.7787V51.9301V52.0815V52.2328V52.384V52.5352V52.6863V52.8374V52.9884V53.1393V53.2902V53.4411V53.5918V53.7425V53.8932V54.0437V54.1943V54.3447V54.4951V54.6454V54.7957V54.9458V55.096V55.246V55.396V55.5459V55.6957V55.8455V55.9952V56.1449V56.2944V56.4439V56.5933V56.7427V56.8919V57.0411V57.1903V57.3393V57.4883V57.6372V57.786V57.9348V58.0834V58.232V58.3805V58.529V58.6773V58.8256V58.9738V59.1219V59.2699V59.4179V59.5658V59.7135V59.8612V60.0088V60.1564V60.3038V60.4512V60.5985V60.7456V60.8927V61.0398V61.1867V61.3335V61.4803V61.6269V61.7735V61.9199V62.0663V62.2126V62.3588V62.5049V62.6509V62.7968V62.9427V63.0884V63.234V63.3796V63.525V63.6703V63.8156V63.9607V64.1058V64.2507V64.3956V64.5403V64.685V64.8295V64.974V65.1183V65.2625V65.4067V65.5507V65.6946V65.8384V65.9822V66.1258V66.2693V66.4127V66.556V66.6991V66.8422V66.9852V67.128V67.2708V67.4134V67.5559V67.6983V67.8406V67.9828V68.1249V68.2668V68.4087V68.5504V68.692V68.8335V68.9749V69.1162V69.2573V69.3983V69.5392V69.68V69.8207V69.9612V70.1017V70.242V70.3822V70.5222V70.6622V70.802V70.9417V71.0813V71.2207V71.36V71.4992V71.6383V71.7772V71.916V72.0547V72.1933V72.3317V72.47V72.6082V72.7462V72.8841V73.0219V73.1595V73.2971V73.4344V73.5717V73.7088V73.8458V73.9826V74.1193V74.2559V74.3923V74.5286V74.6647V74.8008V74.9366V75.0724V75.208V75.3434V75.4788V75.6139V75.749V75.8839V76.0186V76.1532V76.2877V76.422V76.5562V76.6902V76.8241V76.9578V77.0914V77.2248V77.3581V77.4913V77.6243V77.7571V77.8898V78.0223V78.1547V78.287V78.4191V78.551V78.6828V78.8144V78.9459V79.0772V79.2084V79.3394V79.4702V79.6009V79.7314V79.8618V79.992V80.1221V80.252V80.3817V80.5113V80.6407V80.77V80.8991V81.028V81.1568V81.2854V81.4138V81.5421V81.6702V81.7981V81.9259V82.0535V82.1809V82.3082V82.4353C0.372088 85.9912 3.49239 88.8394 7.27063 88.8394H103.055C106.833 88.8394 109.953 85.9912 109.953 82.4353V82.3073V82.1792V82.0508V81.9224V81.7937V81.6649V81.5359V81.4067V81.2774V81.148V81.0183V80.8885V80.7586V80.6284V80.4982V80.3677V80.2371V80.1064V79.9754V79.8444V79.7131V79.5818V79.4502V79.3185V79.1867V79.0547V78.9225V78.7902V78.6577V78.5251V78.3923V78.2594V78.1263V77.9931V77.8597V77.7262V77.5925V77.4587V77.3248V77.1906V77.0564V76.922V76.7874V76.6527V76.5179V76.3829V76.2478V76.1125V75.9771V75.8416V75.7059V75.57V75.4341V75.298V75.1617V75.0253V74.8888V74.7521V74.6153V74.4784V74.3413V74.2041V74.0668V73.9293V73.7917V73.6539V73.5161V73.3781V73.2399V73.1016V72.9632V72.8247V72.6861V72.5473V72.4083V72.2693V72.1301V71.9908V71.8514V71.7119V71.5722V71.4324V71.2925V71.1524V71.0123V70.872V70.7315V70.591V70.4504V70.3096V70.1687V70.0277V69.8865V69.7453V69.6039V69.4624V69.3208V69.1791V69.0373V68.8953V68.7533V68.6111V68.4688V68.3264V68.1839V68.0413V67.8985V67.7557V67.6127V67.4697V67.3265V67.1832V67.0398V66.8963V66.7527V66.609V66.4651V66.3212V66.1772V66.0331V65.8888V65.7445V65.6V65.4555V65.3108V65.1661V65.0212V64.8763V64.7312V64.5861V64.4409V64.2955V64.1501V64.0045V63.8589V63.7132V63.5673V63.4214V63.2754V63.1293V62.9831V62.8368V62.6904V62.5439V62.3974V62.2507V62.104V61.9571V61.8102V61.6632V61.5161V61.3689V61.2216V61.0743V60.9268V60.7793V60.6317V60.484V60.3362V60.1883V60.0404V59.8923V59.7442V59.596V59.4478V59.2994V59.151V59.0025V58.8539V58.7052V58.5565V58.4076V58.2588V58.1098V57.9607V57.8116V57.6624V57.5131V57.3638V57.2144V57.0649V56.9154V56.7657V56.616V56.4663V56.3164V56.1665V56.0165V55.8665V55.7164V55.5662V55.416V55.2657V55.1153V54.9649V54.8144V54.6638V54.5132V54.3625V54.2118V54.061V53.9101V53.7592V53.6082V53.4571V53.306V53.1548V53.0036V52.8523V52.701V52.5496V52.3982V52.2467V52.0951V51.9435V51.7919V51.6401V51.4884V51.3366V51.1847V51.0328V50.8808V50.7288V50.5767V50.4246V50.2724V50.1202V49.968V49.8157V49.6633V49.5109V49.3585V49.206V49.0535V48.9009V48.7483V48.5956V48.443V48.2902V48.1374V47.9846V47.8318V47.6789V47.526V47.373V47.22V47.0669V46.9139V46.7607V46.6076V46.4544V46.3012V46.1479V45.9947V45.8413V45.688V45.5346V45.3812V45.2278V45.0743V44.9208V44.7673V44.6137V44.4601V44.3065V44.1529V43.9992V43.8455V43.6918V43.5381V43.3843V43.2305V43.0767V42.9229V42.769V42.6152V42.4613V42.3074V42.1534V41.9995V41.8455V41.6915V41.5375V41.3835V41.2295V41.0754V40.9213V40.7672V40.6131V40.459V40.3049V40.1508V39.9966V39.8425V39.6883V39.5341V39.3799V39.2257V39.0715V38.9173V38.7631V38.6088V38.4546V38.3003V38.1461V37.9918V37.8376V37.6833V37.529V37.3747V37.2205V37.0662V36.9119V36.7576V36.6033V36.4491V36.2948V36.1405V35.9862V35.8319V35.6777V35.5234V35.3691V35.2149V35.0606V34.9064V34.7521V34.5979V34.4437V34.2894V34.1352V33.981V33.8268V33.6726V33.5185V33.3643V33.2101V33.056V32.9019V32.7477V32.5936V32.4396V32.2855V32.1314V31.9774V31.8233V31.6693V31.5153V31.3614V31.2074V31.0535V30.8995V30.7456V30.5918V30.4379V30.2841V30.1303V29.9765V29.8227V29.6689V29.5152V29.3615V29.2079V29.0542V28.9006V28.747V28.5934V28.4399V28.2864V28.1329V27.9794V27.826V27.6726V27.5193V27.3659V27.2126V27.0594V26.9062V26.753V26.5998V26.4467V26.2936V26.1405V25.9875V25.8345V25.6816V25.5287V25.3758V25.223V25.0702V24.9174V24.7647V24.612V24.4594V24.3068V24.1543V24.0018V23.8493V23.6969V23.5446V23.3922V23.24V23.0877V22.9356V22.7834V22.6313V22.4793V22.3273V22.1754V22.0235V21.8717V21.7199V21.5681V21.4165V21.2648V21.1133V20.9617V20.8103V20.6589V20.5075V20.3562V20.205V20.0538V19.9026V19.7516V19.6006V19.4496V19.2987V19.1479V18.9971V18.8464V18.6958V18.5452V18.3947V18.2442V18.0938V17.9435V17.7932V17.643V17.4929V17.3428V17.1928V17.0429V16.893V16.7432V16.5935V16.4439V16.2943V16.1448V15.9953V15.846V15.6967V15.5474V15.3983V15.2492V15.1002V14.9513V14.8024V14.6537V14.505V14.3563V14.2078V14.0593V13.911V13.7627V13.6144V13.4663V13.3182V13.1703V13.0224V12.8745V12.7268V12.5792V12.4316V12.2841V12.1367V11.9894V11.8422V11.6951V11.548V11.4011V11.2542V11.1074V10.9607V10.8141V10.6676V10.5212V10.3749V10.2286V10.0825V9.93643V9.79047V9.64461V9.49885V9.35318V9.2076V9.06213V8.91675V8.77146V8.62628V8.48119V8.33621V8.19132V8.04654V7.90185V7.75727V7.61278V7.4684V7.32413V7.17995V7.03589V6.89192C109.953 3.33605 106.833 0.48781 103.055 0.48781ZM3.63673 6.89192C3.63673 5.07845 5.24173 3.55764 7.27063 3.55764H103.055C105.084 3.55764 106.689 5.07845 106.689 6.89192V13.0359H3.63673V6.89192ZM103.055 85.7696H7.27063C5.24173 85.7696 3.63673 84.2488 3.63673 82.4353V14.8867H106.689L106.69 82.435C106.689 84.2488 105.084 85.7696 103.055 85.7696Z" fill="#595954" stroke="#595954" stroke-width="0.680629"/>
<path d="M14.7863 4.07765C12.5472 4.07765 10.7266 5.89815 10.7266 8.13721C10.7266 10.3763 12.5472 12.1968 14.7863 12.1968C17.0254 12.1968 18.8459 10.3763 18.8459 8.13721C18.8459 5.89807 17.0238 4.07765 14.7863 4.07765ZM14.7863 9.34029C14.1229 9.34029 13.5831 8.79948 13.5831 8.13721C13.5831 7.47369 14.1227 6.93412 14.7863 6.93412C15.4498 6.93412 15.9894 7.47369 15.9894 8.13721C15.9894 8.80073 15.4498 9.34029 14.7863 9.34029Z" fill="#595954" stroke="#595954" stroke-width="0.680629"/>
<path d="M23.7057 4.07765C21.4666 4.07765 19.646 5.89816 19.646 8.13721C19.646 10.3763 21.4666 12.1968 23.7057 12.1968C25.9447 12.1968 27.7653 10.3763 27.7653 8.13721C27.7653 5.89816 25.9447 4.07765 23.7057 4.07765ZM23.7057 9.34029C23.0423 9.34029 22.5025 8.79949 22.5025 8.13721C22.5025 7.47389 23.0433 6.93412 23.7057 6.93412C24.368 6.93412 24.9088 7.47389 24.9088 8.13721C24.9088 8.80073 24.3692 9.34029 23.7057 9.34029Z" fill="#595954" stroke="#595954" stroke-width="0.680629"/>
<path d="M32.6427 4.07765C30.4036 4.07765 28.583 5.89816 28.583 8.13721C28.583 10.3763 30.4036 12.1968 32.6427 12.1968C34.8818 12.1968 36.7023 10.3763 36.7023 8.13721C36.7023 5.89816 34.8818 4.07765 32.6427 4.07765ZM32.6427 9.34029C31.9793 9.34029 31.4396 8.79949 31.4396 8.13721C31.4396 7.47369 31.9791 6.93412 32.6427 6.93412C33.3062 6.93412 33.8458 7.47369 33.8458 8.13721C33.8458 8.80073 33.3062 9.34029 32.6427 9.34029Z" fill="#595954" stroke="#595954" stroke-width="0.680629"/>
<path d="M92.814 6.62844H47.7177C46.8842 6.62844 46.208 7.30473 46.208 8.13818C46.208 8.97164 46.8842 9.64793 47.7177 9.64793H92.814C93.6474 9.64793 94.3237 8.97164 94.3237 8.13818C94.3237 7.30473 93.6474 6.62844 92.814 6.62844Z" fill="#595954" stroke="#595954" stroke-width="0.680629"/>
<path d="M96.1366 18.9292H39.2953C38.4619 18.9292 37.7857 19.6054 37.7857 20.4389V79.3195C37.7857 80.1529 38.4619 80.8291 39.2953 80.8291H96.1366C96.97 80.8291 97.6462 80.1529 97.6462 79.3195V20.4389C97.6462 19.6054 96.97 18.9292 96.1366 18.9292ZM94.6269 77.8098H40.805V21.9485H94.6269V77.8098Z" fill="#595954" stroke="#595954" stroke-width="0.680629"/>
<path d="M31.0144 18.9292H12.2362C11.4028 18.9292 10.7266 19.6054 10.7266 20.4389V79.3195C10.7266 80.1529 11.4028 80.8291 12.2362 80.8291H31.0144C31.8478 80.8291 32.5241 80.1529 32.5241 79.3195V20.4389C32.5241 19.6054 31.8478 18.9292 31.0144 18.9292ZM29.5048 77.8098H13.7459V21.9485H29.5048V77.8098Z" fill="#595954" stroke="#595954" stroke-width="0.680629"/>
<path d="M45.6381 71.4629H54.0886C54.922 71.4629 55.5982 70.7866 55.5982 69.9532V60.826C55.5982 59.9926 54.922 59.3163 54.0886 59.3163H51.373V52.6004H66.2104V59.3163H63.4948C62.6614 59.3163 61.9852 59.9926 61.9852 60.826V69.9532C61.9852 70.7866 62.6614 71.4629 63.4948 71.4629H71.9453C72.7787 71.4629 73.455 70.7866 73.455 69.9532V60.826C73.455 59.9926 72.7787 59.3163 71.9453 59.3163H69.2297V52.6004H84.0687V59.3163H81.3531C80.5197 59.3163 79.8434 59.9926 79.8434 60.826V69.9532C79.8434 70.7866 80.5197 71.4629 81.3531 71.4629H89.802C90.6355 71.4629 91.3117 70.7866 91.3117 69.9532V60.826C91.3117 59.9926 90.6355 59.3163 89.802 59.3163H87.088V51.0907C87.088 50.2573 86.4118 49.581 85.5783 49.581H69.2297V41.3777H73.0991C73.9325 41.3777 74.6087 40.7014 74.6087 39.868V29.81C74.6087 28.9765 73.9325 28.3003 73.0991 28.3003H62.3411C61.5076 28.3003 60.8314 28.9765 60.8314 29.81V39.868C60.8314 40.7014 61.5076 41.3777 62.3411 41.3777H66.2104V49.581H49.8633C49.0299 49.581 48.3537 50.2573 48.3537 51.0907V59.3163H45.6381C44.8047 59.3163 44.1284 59.9926 44.1284 60.826V69.9532C44.1284 70.7866 44.8047 71.4629 45.6381 71.4629ZM70.4356 68.4435H65.0045V62.3357H70.4356V68.4435ZM88.2924 68.4435H82.8628V62.3357H88.2924V68.4435ZM63.8507 31.3197H71.5878V38.3583H63.8507V31.3197ZM52.5789 62.3357V68.4435H47.1478V62.3357H52.5789Z" fill="#595954" stroke="#595954" stroke-width="0.680629"/>
</svg>
