<svg width="82" height="66" viewBox="0 0 82 66" fill="none" xmlns="http://www.w3.org/2000/svg">
<path d="M76.526 0.439941H6.16152C3.38597 0.439941 1.09375 2.5323 1.09375 5.14449V5.25128V5.35815V5.46508V5.57208V5.67916V5.7863V5.89351V6.00079V6.10815V6.21556V6.32305V6.4306V6.53823V6.64591V6.75367V6.86149V6.96937V7.07732V7.18534V7.29342V7.40156V7.50977V7.61804V7.72638V7.83477V7.94323V8.05175V8.16033V8.26897V8.37768V8.48644V8.59526V8.70414V8.81309V8.92209V9.03114V9.14026V9.24943V9.35866V9.46795V9.5773V9.6867V9.79615V9.90566V10.0152V10.1248V10.2345V10.3442V10.454V10.5639V10.6738V10.7837V10.8937V11.0037V11.1138V11.224V11.3342V11.4444V11.5547V11.665V11.7754V11.8859V11.9963V12.1069V12.2175V12.3281V12.4388V12.5495V12.6603V12.7711V12.8819V12.9928V13.1038V13.2148V13.3258V13.4369V13.548V13.6592V13.7704V13.8816V13.9929V14.1042V14.2156V14.327V14.4384V14.5499V14.6614V14.773V14.8846V14.9962V15.1079V15.2196V15.3314V15.4431V15.555V15.6668V15.7787V15.8906V16.0026V16.1146V16.2266V16.3387V16.4508V16.5629V16.675V16.7872V16.8995V17.0117V17.124V17.2363V17.3486V17.461V17.5734V17.6858V17.7983V17.9108V18.0233V18.1358V18.2484V18.3609V18.4736V18.5862V18.6989V18.8116V18.9243V19.037V19.1498V19.2625V19.3754V19.4882V19.601V19.7139V19.8268V19.9397V20.0526V20.1656V20.2786V20.3916V20.5046V20.6176V20.7307V20.8437V20.9568V21.0699V21.183V21.2962V21.4093V21.5225V21.6357V21.7488V21.8621V21.9753V22.0885V22.2018V22.315V22.4283V22.5416V22.6549V22.7682V22.8815V22.9948V23.1082V23.2215V23.3349V23.4483V23.5616V23.675V23.7884V23.9018V24.0152V24.1286V24.2421V24.3555V24.4689V24.5824V24.6958V24.8093V24.9227V25.0362V25.1496V25.2631V25.3765V25.49V25.6035V25.7169V25.8304V25.9439V26.0573V26.1708V26.2843V26.3977V26.5112V26.6247V26.7381V26.8516V26.965V27.0785V27.1919V27.3054V27.4188V27.5323V27.6457V27.7591V27.8725V27.986V28.0994V28.2128V28.3261V28.4395V28.5529V28.6663V28.7796V28.893V29.0063V29.1196V29.233V29.3463V29.4596V29.5728V29.6861V29.7994V29.9126V30.0259V30.1391V30.2523V30.3655V30.4786V30.5918V30.7049V30.8181V30.9312V31.0443V31.1574V31.2704V31.3835V31.4965V31.6095V31.7225V31.8355V31.9484V32.0613V32.1742V32.2871V32.4V32.5128V32.6257V32.7385V32.8512V32.964V33.0767V33.1894V33.3021V33.4148V33.5274V33.64V33.7526V33.8651V33.9777V34.0902V34.2026V34.3151V34.4275V34.5399V34.6522V34.7646V34.8769V34.9891V35.1014V35.2136V35.3258V35.4379V35.55V35.6621V35.7742V35.8862V35.9982V36.1101V36.222V36.3339V36.4458V36.5576V36.6693V36.7811V36.8928V37.0044V37.1161V37.2277V37.3392V37.4507V37.5622V37.6736V37.785V37.8964V38.0077V38.119V38.2302V38.3414V38.4525V38.5636V38.6747V38.7857V38.8967V39.0076V39.1185V39.2294V39.3402V39.4509V39.5616V39.6723V39.7829V39.8935V40.004V40.1145V40.2249V40.3353V40.4456V40.5559V40.6661V40.7763V40.8864V40.9965V41.1065V41.2165V41.3264V41.4363V41.5461V41.6559V41.7656V41.8752V41.9848V42.0944V42.2039V42.3133V42.4227V42.532V42.6413V42.7505V42.8597V42.9688V43.0778V43.1868V43.2957V43.4046V43.5134V43.6221V43.7308V43.8394V43.948V44.0565V44.1649V44.2733V44.3816V44.4899V44.5981V44.7062V44.8143V44.9223V45.0302V45.1381V45.2459V45.3536V45.4613V45.5689V45.6764V45.7839V45.8913V45.9986V46.1059V46.2131V46.3202V46.4272V46.5342V46.6411V46.748V46.8547V46.9614V47.0681V47.1746V47.2811V47.3875V47.4938V47.6001V47.7063V47.8124V47.9184V48.0244V48.1303V48.2361V48.3418V48.4475V48.553V48.6585V48.7639V48.8693V48.9745V49.0797V49.1848V49.2899V49.3948V49.4997V49.6044V49.7091V49.8137V49.9183V50.0227V50.1271V50.2314V50.3356V50.4397V50.5437V50.6477V50.7515V50.8553V50.959V51.0626V51.1661V51.2695V51.3729V51.4761V51.5793V51.6824V51.7853V51.8882V51.991V52.0937V52.1964V52.2989V52.4013V52.5037V52.6059V52.7081V52.8102V52.9121V53.014V53.1158V53.2175V53.3191V53.4206V53.522V53.6233V53.7245V53.8256V53.9266V54.0276V54.1284V54.2291V54.3297V54.4303V54.5307V54.631V54.7312V54.8314V54.9314V55.0313V55.1311V55.2308V55.3305V55.43V55.5294V55.6287V55.7279V55.827V55.926V56.0248V56.1236V56.2223V56.3209V56.4193V56.5177V56.6159V56.714V56.8121V56.91V57.0078V57.1055V57.2031V57.3006V57.3979V57.4952V57.5923V57.6894V57.7863V57.8831V57.9798V58.0764V58.1728V58.2692V58.3654V58.4615V58.5575V58.6534V58.7492V58.8449V58.9404V59.0358V59.1311V59.2263V59.3214V59.4164V59.5112V59.6059V59.7005V59.795V59.8893V59.9836V60.0777V60.1717V60.2655V60.3593V60.4529V60.5464V60.6398C1.09375 63.2519 3.38597 65.3443 6.16152 65.3443H76.526C79.3015 65.3443 81.5938 63.2519 81.5938 60.6398V60.5457V60.4516V60.3573V60.2629V60.1684V60.0738V59.979V59.8841V59.7892V59.694V59.5988V59.5035V59.408V59.3124V59.2167V59.1209V59.0249V58.9289V58.8327V58.7364V58.64V58.5435V58.4469V58.3501V58.2532V58.1563V58.0592V57.962V57.8647V57.7672V57.6697V57.5721V57.4743V57.3764V57.2785V57.1804V57.0822V56.9839V56.8855V56.7869V56.6883V56.5896V56.4907V56.3918V56.2927V56.1936V56.0943V55.9949V55.8955V55.7959V55.6962V55.5964V55.4965V55.3965V55.2965V55.1963V55.096V54.9956V54.8951V54.7945V54.6938V54.593V54.4921V54.3911V54.29V54.1888V54.0875V53.9862V53.8847V53.7831V53.6814V53.5797V53.4778V53.3758V53.2738V53.1717V53.0694V52.9671V52.8647V52.7621V52.6595V52.5568V52.4541V52.3512V52.2482V52.1451V52.042V51.9388V51.8354V51.732V51.6285V51.5249V51.4212V51.3175V51.2136V51.1097V51.0057V50.9016V50.7974V50.6931V50.5887V50.4843V50.3797V50.2751V50.1704V50.0657V49.9608V49.8559V49.7509V49.6458V49.5406V49.4353V49.33V49.2246V49.1191V49.0135V48.9078V48.8021V48.6963V48.5904V48.4845V48.3784V48.2723V48.1661V48.0599V47.9535V47.8471V47.7406V47.6341V47.5275V47.4208V47.314V47.2071V47.1002V46.9932V46.8862V46.7791V46.6719V46.5646V46.4573V46.3499V46.2424V46.1349V46.0273V45.9196V45.8119V45.7041V45.5962V45.4883V45.3803V45.2722V45.1641V45.0559V44.9476V44.8393V44.7309V44.6225V44.514V44.4054V44.2968V44.1881V44.0794V43.9706V43.8617V43.7528V43.6438V43.5347V43.4256V43.3165V43.2073V43.098V42.9887V42.8793V42.7699V42.6604V42.5508V42.4412V42.3316V42.2219V42.1121V42.0023V41.8924V41.7825V41.6725V41.5625V41.4524V41.3423V41.2321V41.1219V41.0117V40.9013V40.791V40.6805V40.5701V40.4596V40.349V40.2384V40.1278V40.0171V39.9063V39.7955V39.6847V39.5738V39.4629V39.352V39.2409V39.1299V39.0188V38.9077V38.7965V38.6853V38.574V38.4627V38.3514V38.24V38.1286V38.0172V37.9057V37.7942V37.6826V37.571V37.4594V37.3477V37.236V37.1242V37.0124V36.9006V36.7888V36.6769V36.565V36.453V36.341V36.229V36.117V36.0049V35.8928V35.7807V35.6685V35.5563V35.444V35.3318V35.2195V35.1072V34.9948V34.8825V34.7701V34.6576V34.5452V34.4327V34.3202V34.2077V34.0951V33.9825V33.8699V33.7573V33.6446V33.532V33.4193V33.3065V33.1938V33.081V32.9683V32.8555V32.7426V32.6298V32.5169V32.404V32.2911V32.1782V32.0653V31.9523V31.8394V31.7264V31.6134V31.5003V31.3873V31.2742V31.1612V31.0481V30.935V30.8219V30.7088V30.5956V30.4825V30.3693V30.2562V30.143V30.0298V29.9166V29.8034V29.6902V29.5769V29.4637V29.3504V29.2372V29.1239V29.0106V28.8974V28.7841V28.6708V28.5575V28.4442V28.3309V28.2176V28.1042V27.9909V27.8776V27.7643V27.6509V27.5376V27.4243V27.3109V27.1976V27.0843V26.9709V26.8576V26.7443V26.6309V26.5176V26.4042V26.2909V26.1776V26.0643V25.9509V25.8376V25.7243V25.611V25.4977V25.3844V25.2711V25.1578V25.0445V24.9313V24.818V24.7047V24.5915V24.4782V24.365V24.2518V24.1386V24.0253V23.9121V23.799V23.6858V23.5726V23.4595V23.3463V23.2332V23.1201V23.007V22.8939V22.7808V22.6678V22.5547V22.4417V22.3287V22.2157V22.1027V21.9898V21.8768V21.7639V21.651V21.5381V21.4252V21.3124V21.1995V21.0867V20.9739V20.8612V20.7484V20.6357V20.523V20.4103V20.2976V20.185V20.0724V19.9598V19.8472V19.7347V19.6222V19.5097V19.3972V19.2848V19.1724V19.06V18.9476V18.8353V18.723V18.6107V18.4985V18.3863V18.2741V18.1619V18.0498V17.9377V17.8257V17.7136V17.6017V17.4897V17.3778V17.2659V17.154V17.0422V16.9304V16.8186V16.7069V16.5952V16.4836V16.3719V16.2604V16.1488V16.0373V15.9259V15.8144V15.703V15.5917V15.4804V15.3691V15.2579V15.1467V15.0355V14.9244V14.8134V14.7024V14.5914V14.4804V14.3696V14.2587V14.1479V14.0371V13.9264V13.8158V13.7051V13.5946V13.484V13.3736V13.2631V13.1527V13.0424V12.9321V12.8219V12.7117V12.6015V12.4914V12.3814V12.2714V12.1615V12.0516V11.9418V11.832V11.7223V11.6126V11.503V11.3934V11.2839V11.1744V11.065V10.9557V10.8464V10.7371V10.628V10.5188V10.4098V10.3008V10.1918V10.0829V9.97412V9.86535V9.75664V9.648V9.53941V9.43088V9.32242V9.21402V9.10568V8.9974V8.88918V8.78103V8.67295V8.56492V8.45697V8.34907V8.24125V8.13348V8.02579V7.91816V7.8106V7.70311V7.59568V7.48832V7.38103V7.27381V7.16666V7.05958V6.95257V6.84563V6.73876V6.63196V6.52523V6.41858V6.312V6.20549V6.09905V5.99269V5.8864V5.78019V5.67405V5.56799V5.462V5.35609V5.25025V5.14449C81.5938 2.5323 79.3015 0.439941 76.526 0.439941ZM3.492 5.14449C3.492 3.81229 4.67106 2.69508 6.16152 2.69508H76.526C78.0164 2.69508 79.1955 3.81229 79.1955 5.14449V9.65795H3.492V5.14449ZM76.526 63.0892H6.16152C4.67106 63.0892 3.492 61.972 3.492 60.6398V11.0176H79.1955L79.1968 60.6395C79.1956 61.972 78.0164 63.0892 76.526 63.0892Z" fill="#0CCAF2" stroke="#0CCAF2" stroke-width="0.5"/>
<path d="M11.6822 3.07812C10.0374 3.07812 8.69995 4.41553 8.69995 6.06041C8.69995 7.70528 10.0374 9.04269 11.6822 9.04269C13.3271 9.04269 14.6645 7.70528 14.6645 6.06041C14.6645 4.41547 13.326 3.07812 11.6822 3.07812ZM11.6822 6.94424C11.1949 6.94424 10.7984 6.54695 10.7984 6.06041C10.7984 5.57295 11.1948 5.17657 11.6822 5.17657C12.1697 5.17657 12.5661 5.57295 12.5661 6.06041C12.5661 6.54786 12.1697 6.94424 11.6822 6.94424Z" fill="#0CCAF2" stroke="#0CCAF2" stroke-width="0.5"/>
<path d="M18.2369 3.07764C16.592 3.07764 15.2546 4.41504 15.2546 6.05992C15.2546 7.70479 16.592 9.0422 18.2369 9.0422C19.8818 9.0422 21.2192 7.70479 21.2192 6.05992C21.2192 4.41504 19.8818 3.07764 18.2369 3.07764ZM18.2369 6.94375C17.7496 6.94375 17.3531 6.54646 17.3531 6.05992C17.3531 5.57262 17.7504 5.17608 18.2369 5.17608C18.7235 5.17608 19.1208 5.57262 19.1208 6.05992C19.1208 6.54737 18.7244 6.94375 18.2369 6.94375Z" fill="#0CCAF2" stroke="#0CCAF2" stroke-width="0.5"/>
<path d="M24.798 3.07812C23.1531 3.07812 21.8157 4.41553 21.8157 6.06041C21.8157 7.70528 23.1531 9.04269 24.798 9.04269C26.4428 9.04269 27.7802 7.70528 27.7802 6.06041C27.7802 4.41553 26.4428 3.07812 24.798 3.07812ZM24.798 6.94424C24.3107 6.94424 23.9141 6.54695 23.9141 6.06041C23.9141 5.57295 24.3105 5.17657 24.798 5.17657C25.2854 5.17657 25.6818 5.57295 25.6818 6.06041C25.6818 6.54786 25.2854 6.94424 24.798 6.94424Z" fill="#0CCAF2" stroke="#0CCAF2" stroke-width="0.5"/>
<path d="M69.003 4.95166H35.8746C35.2624 4.95166 34.7656 5.44843 34.7656 6.06068C34.7656 6.67293 35.2624 7.1697 35.8746 7.1697H69.003C69.6153 7.1697 70.1121 6.67293 70.1121 6.06068C70.1121 5.44843 69.6153 4.95166 69.003 4.95166Z" fill="#0CCAF2" stroke="#0CCAF2" stroke-width="0.5"/>
<path d="M70.3345 16.2058V57.2423H30.7962V16.2058H70.3345ZM71.4435 13.9878H29.6871C29.0749 13.9878 28.5781 14.4846 28.5781 15.0968V58.3513C28.5781 58.9636 29.0749 59.4603 29.6871 59.4603H71.4435C72.0558 59.4603 72.5526 58.9636 72.5526 58.3513V15.0968C72.5526 14.4846 72.0558 13.9878 71.4435 13.9878Z" fill="#0CCAF2" stroke="#0CCAF2" stroke-width="0.5"/>
<path d="M23.6037 13.9878H9.80897C9.19672 13.9878 8.69995 14.4846 8.69995 15.0968V58.3513C8.69995 58.9636 9.19672 59.4603 9.80897 59.4603H23.6037C24.2159 59.4603 24.7127 58.9636 24.7127 58.3513V15.0968C24.7127 14.4846 24.2159 13.9878 23.6037 13.9878ZM22.4947 57.2423H10.918V16.2058H22.4947V57.2423Z" fill="#0CCAF2" stroke="#0CCAF2" stroke-width="0.5"/>
<path d="M35.4556 50.3592V45.8723H39.4454V50.3592H35.4556ZM34.3466 52.5773H40.5544C41.1667 52.5773 41.6634 52.0805 41.6634 51.4682V44.7633C41.6634 44.151 41.1667 43.6543 40.5544 43.6543H38.5595V38.7207H49.4593V43.6543H47.4644C46.8521 43.6543 46.3554 44.151 46.3554 44.7633V51.4682C46.3554 52.0805 46.8521 52.5773 47.4644 52.5773H53.6722C54.2845 52.5773 54.7812 52.0805 54.7812 51.4682V44.7633C54.7812 44.151 54.2845 43.6543 53.6722 43.6543H51.6773V38.7207H62.5782V43.6543H60.5833C59.9711 43.6543 59.4743 44.151 59.4743 44.7633V51.4682C59.4743 52.0805 59.9711 52.5773 60.5833 52.5773H66.79C67.4023 52.5773 67.8991 52.0805 67.8991 51.4682V44.7633C67.8991 44.151 67.4023 43.6543 66.79 43.6543H64.7963V37.6117C64.7963 36.9994 64.2995 36.5026 63.6873 36.5026H51.6773V30.4764H54.5198C55.132 30.4764 55.6288 29.9796 55.6288 29.3674V21.9786C55.6288 21.3664 55.132 20.8696 54.5198 20.8696H46.6168C46.0046 20.8696 45.5078 21.3664 45.5078 21.9786V29.3674C45.5078 29.9796 46.0046 30.4764 46.6168 30.4764H49.4593V36.5026H37.4505C36.8382 36.5026 36.3415 36.9994 36.3415 37.6117V43.6543H34.3466C33.7343 43.6543 33.2375 44.151 33.2375 44.7633V51.4682C33.2375 52.0805 33.7343 52.5773 34.3466 52.5773ZM52.5632 50.3592H48.5734V45.8723H52.5632V50.3592ZM65.681 50.3592H61.6924V45.8723H65.681V50.3592ZM47.7258 23.0877H53.4096V28.2583H47.7258V23.0877Z" fill="#0CCAF2" stroke="#0CCAF2" stroke-width="0.5"/>
</svg>
