<svg width="122" height="83" viewBox="0 0 122 83" fill="none" xmlns="http://www.w3.org/2000/svg">
<path d="M96.1822 9.04785H25.8178C23.0422 9.04785 20.75 11.1402 20.75 13.7524V13.8592V13.9661V14.073V14.18V14.2871V14.3942V14.5014V14.6087V14.7161V14.8235V14.931V15.0385V15.1461V15.2538V15.3616V15.4694V15.5773V15.6852V15.7932V15.9013V16.0095V16.1177V16.226V16.3343V16.4427V16.5511V16.6597V16.7682V16.8769V16.9856V17.0943V17.2032V17.3121V17.421V17.53V17.6391V17.7482V17.8573V17.9666V18.0759V18.1852V18.2946V18.4041V18.5136V18.6231V18.7328V18.8424V18.9522V19.0619V19.1718V19.2817V19.3916V19.5016V19.6116V19.7217V19.8319V19.9421V20.0523V20.1626V20.2729V20.3833V20.4938V20.6043V20.7148V20.8254V20.936V21.0467V21.1574V21.2682V21.379V21.4898V21.6007V21.7117V21.8227V21.9337V22.0448V22.1559V22.2671V22.3783V22.4895V22.6008V22.7121V22.8235V22.9349V23.0463V23.1578V23.2693V23.3809V23.4925V23.6041V23.7158V23.8275V23.9393V24.0511V24.1629V24.2747V24.3866V24.4985V24.6105V24.7225V24.8345V24.9466V25.0587V25.1708V25.283V25.3951V25.5074V25.6196V25.7319V25.8442V25.9565V26.0689V26.1813V26.2937V26.4062V26.5187V26.6312V26.7437V26.8563V26.9689V27.0815V27.1941V27.3068V27.4195V27.5322V27.6449V27.7577V27.8705V27.9833V28.0961V28.2089V28.3218V28.4347V28.5476V28.6606V28.7735V28.8865V28.9995V29.1125V29.2255V29.3386V29.4516V29.5647V29.6778V29.7909V29.9041V30.0172V30.1304V30.2436V30.3568V30.47V30.5832V30.6964V30.8097V30.9229V31.0362V31.1495V31.2628V31.3761V31.4894V31.6028V31.7161V31.8295V31.9428V32.0562V32.1696V32.2829V32.3963V32.5097V32.6231V32.7366V32.85V32.9634V33.0768V33.1903V33.3037V33.4172V33.5306V33.6441V33.7575V33.871V33.9844V34.0979V34.2114V34.3248V34.4383V34.5518V34.6652V34.7787V34.8922V35.0056V35.1191V35.2326V35.346V35.4595V35.573V35.6864V35.7999V35.9133V36.0267V36.1402V36.2536V36.367V36.4804V36.5939V36.7073V36.8207V36.9341V37.0474V37.1608V37.2742V37.3875V37.5009V37.6142V37.7276V37.8409V37.9542V38.0675V38.1808V38.294V38.4073V38.5205V38.6338V38.747V38.8602V38.9734V39.0865V39.1997V39.3129V39.426V39.5391V39.6522V39.7653V39.8783V39.9914V40.1044V40.2174V40.3304V40.4434V40.5563V40.6692V40.7822V40.895V41.0079V41.1207V41.2336V41.3464V41.4591V41.5719V41.6846V41.7973V41.91V42.0227V42.1353V42.2479V42.3605V42.473V42.5856V42.6981V42.8105V42.923V43.0354V43.1478V43.2602V43.3725V43.4848V43.5971V43.7093V43.8215V43.9337V44.0458V44.1579V44.27V44.3821V44.4941V44.6061V44.718V44.8299V44.9418V45.0537V45.1655V45.2772V45.389V45.5007V45.6123V45.724V45.8356V45.9471V46.0586V46.1701V46.2815V46.3929V46.5043V46.6156V46.7269V46.8381V46.9493V47.0604V47.1715V47.2826V47.3936V47.5046V47.6155V47.7264V47.8373V47.9481V48.0588V48.1695V48.2802V48.3908V48.5014V48.6119V48.7224V48.8328V48.9432V49.0535V49.1638V49.274V49.3842V49.4943V49.6044V49.7144V49.8244V49.9343V50.0442V50.154V50.2638V50.3735V50.4831V50.5927V50.7023V50.8118V50.9212V51.0306V51.1399V51.2492V51.3584V51.4676V51.5767V51.6857V51.7947V51.9036V52.0125V52.1213V52.23V52.3387V52.4473V52.5559V52.6644V52.7729V52.8812V52.9895V53.0978V53.206V53.3141V53.4222V53.5302V53.6381V53.746V53.8538V53.9615V54.0692V54.1768V54.2843V54.3918V54.4992V54.6065V54.7138V54.821V54.9281V55.0351V55.1421V55.249V55.3559V55.4626V55.5693V55.676V55.7825V55.889V55.9954V56.1017V56.208V56.3142V56.4203V56.5263V56.6323V56.7382V56.844V56.9497V57.0554V57.1609V57.2664V57.3719V57.4772V57.5825V57.6876V57.7927V57.8978V58.0027V58.1076V58.2123V58.317V58.4217V58.5262V58.6306V58.735V58.8393V58.9435V59.0476V59.1516V59.2556V59.3594V59.4632V59.5669V59.6705V59.774V59.8774V59.9808V60.084V60.1872V60.2903V60.3932V60.4961V60.5989V60.7017V60.8043V60.9068V61.0092V61.1116V61.2138V61.316V61.4181V61.52V61.6219V61.7237V61.8254V61.927V62.0285V62.1299V62.2312V62.3324V62.4335V62.5346V62.6355V62.7363V62.837V62.9376V63.0382V63.1386V63.2389V63.3391V63.4393V63.5393V63.6392V63.739V63.8387V63.9384V64.0379V64.1373V64.2366V64.3358V64.4349V64.5339V64.6327V64.7315V64.8302V64.9288V65.0272V65.1256V65.2238V65.3219V65.42V65.5179V65.6157V65.7134V65.811V65.9085V66.0058V66.1031V66.2002V66.2973V66.3942V66.491V66.5877V66.6843V66.7807V66.8771V66.9733V67.0695V67.1655V67.2613V67.3571V67.4528V67.5483V67.6438V67.7391V67.8342V67.9293V68.0243V68.1191V68.2138V68.3084V68.4029V68.4972V68.5915V68.6856V68.7796V68.8734V68.9672V69.0608V69.1543V69.2477C20.75 71.8599 23.0422 73.9522 25.8178 73.9522H96.1822C98.9578 73.9522 101.25 71.8599 101.25 69.2477V69.1536V69.0595V68.9652V68.8708V68.7763V68.6817V68.5869V68.4921V68.3971V68.302V68.2067V68.1114V68.0159V67.9203V67.8246V67.7288V67.6328V67.5368V67.4406V67.3443V67.2479V67.1514V67.0548V66.958V66.8612V66.7642V66.6671V66.5699V66.4726V66.3752V66.2776V66.18V66.0822V65.9843V65.8864V65.7883V65.6901V65.5918V65.4934V65.3949V65.2962V65.1975V65.0986V64.9997V64.9006V64.8015V64.7022V64.6028V64.5034V64.4038V64.3041V64.2043V64.1044V64.0045V63.9044V63.8042V63.7039V63.6035V63.503V63.4024V63.3017V63.2009V63.1V62.999V62.8979V62.7967V62.6954V62.5941V62.4926V62.391V62.2893V62.1876V62.0857V61.9838V61.8817V61.7796V61.6773V61.575V61.4726V61.3701V61.2675V61.1648V61.062V60.9591V60.8561V60.7531V60.6499V60.5467V60.4433V60.3399V60.2364V60.1328V60.0291V59.9254V59.8215V59.7176V59.6136V59.5095V59.4053V59.301V59.1966V59.0922V58.9877V58.883V58.7784V58.6736V58.5687V58.4638V58.3588V58.2537V58.1485V58.0432V57.9379V57.8325V57.727V57.6214V57.5157V57.41V57.3042V57.1983V57.0924V56.9863V56.8802V56.774V56.6678V56.5614V56.455V56.3486V56.242V56.1354V56.0287V55.9219V55.8151V55.7081V55.6012V55.4941V55.387V55.2798V55.1725V55.0652V54.9578V54.8503V54.7428V54.6352V54.5275V54.4198V54.312V54.2041V54.0962V53.9882V53.8801V53.772V53.6638V53.5555V53.4472V53.3388V53.2304V53.1219V53.0133V52.9047V52.796V52.6873V52.5785V52.4696V52.3607V52.2517V52.1427V52.0336V51.9244V51.8152V51.7059V51.5966V51.4872V51.3778V51.2683V51.1587V51.0491V50.9395V50.8298V50.72V50.6102V50.5003V50.3904V50.2804V50.1704V50.0603V49.9502V49.8401V49.7298V49.6196V49.5092V49.3989V49.2885V49.178V49.0675V48.9569V48.8463V48.7357V48.625V48.5142V48.4034V48.2926V48.1817V48.0708V47.9599V47.8489V47.7378V47.6267V47.5156V47.4044V47.2932V47.1819V47.0707V46.9593V46.8479V46.7365V46.6251V46.5136V46.4021V46.2905V46.1789V46.0673V45.9556V45.8439V45.7321V45.6204V45.5085V45.3967V45.2848V45.1729V45.0609V44.949V44.8369V44.7249V44.6128V44.5007V44.3886V44.2764V44.1642V44.052V43.9397V43.8274V43.7151V43.6027V43.4904V43.378V43.2655V43.1531V43.0406V42.9281V42.8156V42.703V42.5904V42.4778V42.3652V42.2525V42.1399V42.0272V41.9145V41.8017V41.689V41.5762V41.4634V41.3505V41.2377V41.1248V41.0119V40.899V40.7861V40.6732V40.5602V40.4473V40.3343V40.2213V40.1082V39.9952V39.8822V39.7691V39.656V39.5429V39.4298V39.3167V39.2036V39.0904V38.9772V38.8641V38.7509V38.6377V38.5245V38.4113V38.2981V38.1848V38.0716V37.9583V37.8451V37.7318V37.6185V37.5053V37.392V37.2787V37.1654V37.0521V36.9388V36.8255V36.7121V36.5988V36.4855V36.3722V36.2588V36.1455V36.0322V35.9188V35.8055V35.6922V35.5788V35.4655V35.3522V35.2388V35.1255V35.0122V34.8988V34.7855V34.6722V34.5589V34.4455V34.3322V34.2189V34.1056V33.9923V33.879V33.7657V33.6524V33.5392V33.4259V33.3126V33.1994V33.0861V32.9729V32.8597V32.7465V32.6333V32.5201V32.4069V32.2937V32.1805V32.0674V31.9542V31.8411V31.728V31.6149V31.5018V31.3887V31.2757V31.1626V31.0496V30.9366V30.8236V30.7106V30.5977V30.4847V30.3718V30.2589V30.146V30.0331V29.9203V29.8074V29.6946V29.5818V29.4691V29.3563V29.2436V29.1309V29.0182V28.9055V28.7929V28.6803V28.5677V28.4551V28.3426V28.2301V28.1176V28.0051V27.8927V27.7803V27.6679V27.5555V27.4432V27.3309V27.2186V27.1064V26.9942V26.882V26.7699V26.6577V26.5456V26.4336V26.3216V26.2096V26.0976V25.9857V25.8738V25.7619V25.6501V25.5383V25.4265V25.3148V25.2031V25.0915V24.9798V24.8683V24.7567V24.6452V24.5338V24.4223V24.3109V24.1996V24.0883V23.977V23.8658V23.7546V23.6435V23.5324V23.4213V23.3103V23.1993V23.0884V22.9775V22.8666V22.7558V22.6451V22.5343V22.4237V22.3131V22.2025V22.092V21.9815V21.871V21.7606V21.6503V21.54V21.4298V21.3196V21.2095V21.0994V20.9893V20.8793V20.7694V20.6595V20.5497V20.4399V20.3302V20.2205V20.1109V20.0013V19.8918V19.7823V19.6729V19.5636V19.4543V19.3451V19.2359V19.1268V19.0177V18.9087V18.7997V18.6909V18.582V18.4733V18.3646V18.2559V18.1473V18.0388V17.9303V17.8219V17.7136V17.6053V17.4971V17.3889V17.2809V17.1728V17.0649V16.957V16.8492V16.7414V16.6337V16.5261V16.4185V16.311V16.2036V16.0962V15.9889V15.8817V15.7746V15.6675V15.5605V15.4535V15.3467V15.2399V15.1331V15.0265V14.9199V14.8134V14.707V14.6006V14.4943V14.3881V14.282V14.1759V14.0699V13.964V13.8582V13.7524C101.25 11.1402 98.9578 9.04785 96.1822 9.04785ZM23.1483 13.7524C23.1483 12.4202 24.3273 11.303 25.8178 11.303H96.1822C97.6727 11.303 98.8517 12.4202 98.8517 13.7524V18.2659H23.1483V13.7524ZM96.1822 71.6971H25.8178C24.3273 71.6971 23.1483 70.5799 23.1483 69.2477V19.6255H98.8517L98.853 69.2474C98.8519 70.5799 97.6726 71.6971 96.1822 71.6971Z" fill="#0CCAF2" stroke="#0CCAF2" stroke-width="0.5"/>
<path d="M31.3385 11.686C29.6936 11.686 28.3562 13.0234 28.3562 14.6683C28.3562 16.3132 29.6936 17.6506 31.3385 17.6506C32.9834 17.6506 34.3208 16.3132 34.3208 14.6683C34.3208 13.0234 32.9822 11.686 31.3385 11.686ZM31.3385 15.5521C30.8512 15.5521 30.4546 15.1549 30.4546 14.6683C30.4546 14.1809 30.851 13.7845 31.3385 13.7845C31.8259 13.7845 32.2223 14.1809 32.2223 14.6683C32.2223 15.1558 31.8259 15.5521 31.3385 15.5521Z" fill="#0CCAF2" stroke="#0CCAF2" stroke-width="0.5"/>
<path d="M37.8932 11.6855C36.2483 11.6855 34.9109 13.023 34.9109 14.6678C34.9109 16.3127 36.2483 17.6501 37.8932 17.6501C39.538 17.6501 40.8754 16.3127 40.8754 14.6678C40.8754 13.023 39.538 11.6855 37.8932 11.6855ZM37.8932 15.5517C37.4059 15.5517 37.0093 15.1544 37.0093 14.6678C37.0093 14.1805 37.4066 13.784 37.8932 13.784C38.3797 13.784 38.777 14.1805 38.777 14.6678C38.777 15.1553 38.3806 15.5517 37.8932 15.5517Z" fill="#0CCAF2" stroke="#0CCAF2" stroke-width="0.5"/>
<path d="M44.4542 11.686C42.8093 11.686 41.4719 13.0234 41.4719 14.6683C41.4719 16.3132 42.8093 17.6506 44.4542 17.6506C46.0991 17.6506 47.4365 16.3132 47.4365 14.6683C47.4365 13.0234 46.0991 11.686 44.4542 11.686ZM44.4542 15.5521C43.9669 15.5521 43.5704 15.1549 43.5704 14.6683C43.5704 14.1809 43.9667 13.7845 44.4542 13.7845C44.9417 13.7845 45.338 14.1809 45.338 14.6683C45.338 15.1558 44.9417 15.5521 44.4542 15.5521Z" fill="#0CCAF2" stroke="#0CCAF2" stroke-width="0.5"/>
<path d="M88.6593 13.5596H55.5309C54.9186 13.5596 54.4219 14.0563 54.4219 14.6686C54.4219 15.2808 54.9186 15.7776 55.5309 15.7776H88.6593C89.2715 15.7776 89.7683 15.2808 89.7683 14.6686C89.7683 14.0563 89.2715 13.5596 88.6593 13.5596Z" fill="#0CCAF2" stroke="#0CCAF2" stroke-width="0.5"/>
<path d="M89.9908 24.8137V65.8502H50.4524V24.8137H89.9908ZM91.0998 22.5957H49.3434C48.7311 22.5957 48.2344 23.0925 48.2344 23.7047V66.9592C48.2344 67.5715 48.7311 68.0683 49.3434 68.0683H91.0998C91.712 68.0683 92.2088 67.5715 92.2088 66.9592V23.7047C92.2088 23.0925 91.712 22.5957 91.0998 22.5957Z" fill="#0CCAF2" stroke="#0CCAF2" stroke-width="0.5"/>
<path d="M43.2599 22.5957H29.4652C28.853 22.5957 28.3562 23.0925 28.3562 23.7047V66.9592C28.3562 67.5715 28.853 68.0683 29.4652 68.0683H43.2599C43.8722 68.0683 44.369 67.5715 44.369 66.9592V23.7047C44.369 23.0925 43.8722 22.5957 43.2599 22.5957ZM42.1509 65.8502H30.5742V24.8137H42.1509V65.8502Z" fill="#0CCAF2" stroke="#0CCAF2" stroke-width="0.5"/>
<path d="M55.1118 58.9671V54.4802H59.1017V58.9671H55.1118ZM54.0028 61.1852H60.2107C60.8229 61.1852 61.3197 60.6884 61.3197 60.0761V53.3712C61.3197 52.759 60.8229 52.2622 60.2107 52.2622H58.2158V47.3286H69.1155V52.2622H67.1206C66.5084 52.2622 66.0116 52.759 66.0116 53.3712V60.0761C66.0116 60.6884 66.5084 61.1852 67.1206 61.1852H73.3285C73.9407 61.1852 74.4375 60.6884 74.4375 60.0761V53.3712C74.4375 52.759 73.9407 52.2622 73.3285 52.2622H71.3336V47.3286H82.2345V52.2622H80.2396C79.6273 52.2622 79.1306 52.759 79.1306 53.3712V60.0761C79.1306 60.6884 79.6273 61.1852 80.2396 61.1852H86.4463C87.0585 61.1852 87.5553 60.6884 87.5553 60.0761V53.3712C87.5553 52.759 87.0585 52.2622 86.4463 52.2622H84.4525V46.2196C84.4525 45.6073 83.9558 45.1106 83.3435 45.1106H71.3336V39.0843H74.176C74.7883 39.0843 75.2851 38.5875 75.2851 37.9753V30.5866C75.2851 29.9743 74.7883 29.4775 74.176 29.4775H66.2731C65.6608 29.4775 65.164 29.9743 65.164 30.5866V37.9753C65.164 38.5875 65.6608 39.0843 66.2731 39.0843H69.1155V45.1106H57.1067C56.4945 45.1106 55.9977 45.6073 55.9977 46.2196V52.2622H54.0028C53.3906 52.2622 52.8938 52.759 52.8938 53.3712V60.0761C52.8938 60.6884 53.3906 61.1852 54.0028 61.1852ZM72.2195 58.9671H68.2296V54.4802H72.2195V58.9671ZM85.3373 58.9671H81.3486V54.4802H85.3373V58.9671ZM67.3821 31.6956H73.0659V36.8663H67.3821V31.6956Z" fill="#0CCAF2" stroke="#0CCAF2" stroke-width="0.5"/>
</svg>
