<svg width="26" height="26" viewBox="0 0 26 26" fill="none" xmlns="http://www.w3.org/2000/svg">
<path d="M22.7494 0.141602H2.27232C1.02336 0.141602 0.0108643 1.1541 0.0108643 2.40305V22.8801C0.0108643 24.1291 1.02336 25.1416 2.27232 25.1416H22.7493C23.9984 25.1416 25.0109 24.1291 25.0109 22.8801V2.40305C25.0109 1.1541 23.9984 0.141602 22.7494 0.141602ZM7.74692 21.7283C7.74692 22.0917 7.45229 22.3864 7.08881 22.3864H4.28737C3.92389 22.3864 3.62925 22.0917 3.62925 21.7283V9.98473C3.62925 9.62125 3.92389 9.32661 4.28737 9.32661H7.08881C7.45229 9.32661 7.74692 9.62125 7.74692 9.98473V21.7283ZM5.68809 8.21961C4.21826 8.21961 3.0267 7.02805 3.0267 5.55822C3.0267 4.08839 4.21826 2.89684 5.68809 2.89684C7.15792 2.89684 8.34948 4.08839 8.34948 5.55822C8.34948 7.02805 7.15798 8.21961 5.68809 8.21961ZM22.3872 21.7813C22.3872 22.1154 22.1162 22.3864 21.7821 22.3864H18.7759C18.4418 22.3864 18.1708 22.1154 18.1708 21.7813V16.2729C18.1708 15.4512 18.4118 12.672 16.0234 12.672C14.1707 12.672 13.7949 14.5743 13.7194 15.4279V21.7813C13.7194 22.1154 13.4486 22.3864 13.1143 22.3864H10.2069C9.87271 22.3864 9.60177 22.1154 9.60177 21.7813V9.93172C9.60177 9.59756 9.87271 9.32661 10.2069 9.32661H13.1143C13.4485 9.32661 13.7194 9.59756 13.7194 9.93172V10.9563C14.4064 9.92531 15.4274 9.12956 17.6011 9.12956C22.4147 9.12956 22.3872 13.6267 22.3872 16.0976V21.7813Z" fill="#595954"/>
</svg>
