<svg width="90" height="16" viewBox="0 0 90 16" fill="none" xmlns="http://www.w3.org/2000/svg">
<g clip-path="url(#clip0)">
<path d="M0.541452 6.22206C2.65279 6.54707 4.77546 6.7794 6.90945 6.91904C8.57738 7.02377 10.2549 7.10493 11.9265 7.02377C15.255 6.85882 18.5292 6.07126 21.7254 5.18001C23.609 4.65636 25.4707 4.05731 27.3187 3.42161C28.4869 3.0184 29.6504 2.5733 30.8346 2.20937C30.9211 2.18266 31.0082 2.157 31.0958 2.13239C30.9365 2.17585 31.1266 2.12454 31.1596 2.1193C31.2092 2.11712 31.2585 2.10975 31.3067 2.09731C31.39 2.06065 31.3884 2.16381 31.2599 2.07165C31.2265 2.04756 31.0571 1.83025 31.0836 1.88052C31.1367 1.97896 31.0263 1.72761 31.0305 1.74542C31.0836 1.90932 31.013 1.62655 31.0098 1.62445C31.0218 1.66227 31.028 1.70161 31.0284 1.74123C31.0285 1.78571 31.0329 1.83007 31.0417 1.87371C31.0279 1.86585 31.0417 1.58256 31.0311 1.7428C31.0236 1.87371 31.0353 2.00776 31.0311 2.1392C31.0311 2.24707 31.021 2.35494 31.0172 2.46281C31.0098 2.70735 31.0395 2.21303 31.0172 2.46281C31.0119 2.52408 31.0077 2.58534 31.0024 2.64661C30.9764 2.9519 30.9429 3.25613 30.9063 3.56037C30.8245 4.23273 30.7236 4.903 30.6147 5.5717C30.5011 6.2664 30.3783 6.95988 30.2462 7.65214C30.191 7.94434 30.134 8.23636 30.0752 8.5282C30.0529 8.63817 30.0304 8.74813 30.0078 8.8581L29.9775 9.00262C29.9276 9.2456 30.0216 8.81097 29.9871 8.95864C29.8246 9.65771 29.6876 10.361 29.567 11.0679C29.4805 11.5743 29.3992 12.0811 29.3185 12.5865C29.2489 13.02 29.1146 13.4903 29.1273 13.9291C29.1369 14.2548 29.2112 14.9413 29.6584 14.9764C29.9377 14.9984 30.1363 14.5177 30.2558 14.3354C30.2975 14.2705 30.3397 14.2056 30.3821 14.1406L30.4607 14.0197C30.4506 14.0359 30.3832 14.137 30.4788 13.993C30.6147 13.7877 30.7517 13.5835 30.8898 13.3803C31.6918 12.1949 32.5542 11.0503 33.4737 9.95095C34.5268 8.69996 35.6685 7.48405 36.9902 6.50379C38.0989 5.68219 39.4201 4.92028 40.8496 4.93285C40.9787 4.93285 41.105 4.94542 41.233 4.95798C41.2967 4.96427 41.3705 4.99516 41.2659 4.96113C41.316 4.97517 41.365 4.99267 41.4125 5.01349C41.4906 5.05119 41.5612 5.0957 41.6355 5.13917C41.6562 5.15173 41.7614 5.23604 41.6844 5.17268C41.6074 5.10932 41.7375 5.22504 41.7587 5.24704C41.8246 5.3172 41.8878 5.38842 41.9462 5.46435C41.9791 5.50729 42.0094 5.55285 42.0418 5.59683C42.0906 5.66333 41.9987 5.53085 42.0003 5.53347C42.0221 5.56855 42.0444 5.60312 42.0651 5.6382C42.1857 5.84766 42.2951 6.06445 42.3938 6.28647C42.4469 6.40377 42.4942 6.52264 42.5441 6.64098C42.6296 6.84573 42.5064 6.53625 42.5632 6.68811C42.593 6.76823 42.6238 6.8452 42.6535 6.92742C42.7597 7.21228 42.8611 7.49871 42.9631 7.78515C43.2074 8.47008 43.4559 9.15343 43.7368 9.82475C44.3097 11.1936 45.0643 12.5409 46.1481 13.5809C47.4375 14.8182 49.013 15.4466 50.7654 15.7325C54.6625 16.3729 58.8703 15.8315 62.5338 14.4061C65.9164 13.0897 69.1328 10.717 70.103 7.1086C70.5432 5.47168 70.7169 3.43103 69.8194 1.9046C68.9406 0.408548 67.1272 0.0922657 65.5118 0.438396C62.1085 1.1715 61.1712 4.92447 61.5456 7.91711C61.7469 9.52261 62.3262 11.1113 63.3054 12.4152C64.2432 13.6652 65.6201 14.5166 67.1107 14.9811C71.3413 16.3007 76.0727 15.1617 80.0113 13.4515C81.3091 12.8834 82.5684 12.2337 83.7816 11.5062C84.396 11.1396 84.1533 9.0974 83.4991 9.48647C79.5132 11.8596 74.8222 13.7018 70.0844 13.4196C68.4595 13.3227 66.8271 12.9483 65.4406 12.079C64.8629 11.7207 64.3532 11.2654 63.9347 10.7338C63.5437 10.2202 63.2255 9.65648 62.9889 9.05813C63.0139 9.12254 62.9443 8.93298 62.9316 8.89685C62.9045 8.81987 62.8785 8.74237 62.854 8.66487C62.7967 8.48317 62.7447 8.29832 62.6995 8.11452C62.6905 8.07839 62.6395 7.8527 62.6624 7.96109C62.6852 8.06949 62.6411 7.84327 62.6342 7.80662C62.6013 7.61985 62.5742 7.43221 62.553 7.2437C62.5439 7.16358 62.5376 7.08294 62.5296 7.0023C62.5147 6.84992 62.5376 7.1929 62.5328 7.04C62.5328 6.99968 62.528 6.95936 62.5269 6.91956C62.5227 6.74676 62.5195 6.57396 62.5269 6.40115C62.5269 6.29328 62.5423 6.11158 62.5269 6.3247C62.5333 6.24668 62.5397 6.16761 62.5482 6.09063C62.5673 5.9105 62.6013 5.7335 62.6262 5.55442C62.6539 5.3659 62.5875 5.68795 62.6358 5.50519C62.6549 5.43188 62.6719 5.35805 62.6889 5.28526C62.7351 5.11717 62.7893 4.95065 62.8482 4.78728C62.7951 4.93075 62.8482 4.78413 62.8763 4.72601C62.9114 4.64799 62.9464 4.56891 62.9826 4.49403C63.0526 4.35422 63.1291 4.2165 63.213 4.08402C63.1466 4.18875 63.2661 4.00966 63.2874 3.97929C63.3298 3.92169 63.3734 3.86513 63.4191 3.81015C63.5167 3.69008 63.6211 3.57557 63.7318 3.46716C63.945 3.26201 64.185 3.0859 64.4455 2.94352C65.6095 2.2942 67.4782 2.11144 68.6119 2.90739C68.7184 2.98093 68.8137 3.06909 68.8949 3.16921C68.9427 3.22157 68.9879 3.28075 69.0309 3.33887C69.084 3.40799 69.0346 3.33887 69.0261 3.32473C69.0526 3.36505 69.0792 3.40747 69.1004 3.44988C69.1355 3.51429 69.1668 3.58027 69.1997 3.64573C69.2651 3.77454 69.1817 3.55618 69.2401 3.74574C69.2629 3.81801 69.2847 3.89079 69.3059 3.96358C69.3686 4.17827 69.3059 3.88975 69.3272 4.05365C69.3389 4.14476 69.3543 4.2364 69.3665 4.32751C69.3723 4.36731 69.3744 4.40711 69.3787 4.44691C69.3787 4.4401 69.3697 4.24792 69.3734 4.37045C69.3792 4.56368 69.3787 4.75533 69.3734 4.94646C69.3702 5.06847 69.3787 4.88677 69.3792 4.87787C69.3755 4.91976 69.3723 4.96165 69.3681 5.00406C69.3585 5.08837 69.35 5.17268 69.3389 5.25646C69.3256 5.35543 69.3107 5.45335 69.2937 5.5518C69.2852 5.60416 69.2358 5.84818 69.255 5.76126C69.2762 5.66438 69.2231 5.88903 69.2135 5.92673C69.1895 6.02238 69.1636 6.11786 69.136 6.21316C69.0829 6.38649 69.0298 6.55772 68.9687 6.72895C68.9579 6.77372 68.9418 6.81712 68.921 6.85829C68.8907 6.93161 68.8599 7.00492 68.8275 7.0777C68.7553 7.23951 68.6777 7.39974 68.5933 7.55632C68.5264 7.68094 68.4547 7.804 68.3809 7.92287C68.4606 7.79719 68.2975 8.04016 68.2747 8.0742C68.2078 8.16811 68.1389 8.26079 68.0681 8.35226C67.803 8.69393 67.516 9.01856 67.2089 9.32414C65.9196 10.6113 64.2921 11.5454 62.6092 12.2398C59.1157 13.6814 55.1017 14.2077 51.3458 13.7207C49.757 13.5149 48.2027 13.0755 46.9643 12.0256C45.8625 11.092 45.2162 9.99074 44.6432 8.69996C44.5809 8.56032 44.5204 8.41876 44.4616 8.27528C44.4276 8.19307 44.3947 8.11086 44.3613 8.02812C44.3456 7.99401 44.332 7.95904 44.3204 7.92339C44.2078 7.62596 44.0979 7.32783 43.9906 7.029C43.7729 6.42314 43.5605 5.81572 43.321 5.21771C42.9981 4.41339 42.5542 3.37448 41.6982 2.99326C40.616 2.51151 39.1413 3.06081 38.1696 3.56142C36.7783 4.27724 35.5676 5.34182 34.4806 6.44147C32.6071 8.34074 31.0289 10.5081 29.5824 12.7357C29.5166 12.8373 29.4497 12.9394 29.3844 13.042C29.3132 13.1541 29.5288 12.8849 29.4268 12.9776C29.284 13.1054 29.8304 12.8912 29.6616 12.8781L30.1926 13.9254C30.2043 14.3166 30.1973 14.06 30.2154 13.95L30.2616 13.6667L30.3636 13.0279C30.4384 12.5566 30.5144 12.0885 30.5946 11.6193C30.6625 11.2213 30.7355 10.824 30.8133 10.4275C30.8739 10.1211 30.7724 10.6018 30.8362 10.3227C30.8436 10.2887 30.8521 10.2552 30.8601 10.2211C30.876 10.151 30.8919 10.0803 30.9073 10.0117C31.1458 8.92617 31.3507 7.83332 31.5387 6.73838C31.7745 5.3659 31.9869 3.98557 32.074 2.59477C32.1048 2.09835 32.1191 1.59251 32.0421 1.09924C31.9842 0.732161 31.834 0.0247153 31.3422 -0.000943302C31.0374 -0.016129 30.6854 0.143583 30.4013 0.234174C29.8734 0.403311 29.3514 0.589729 28.8289 0.773529C27.1827 1.34954 25.5366 1.92188 23.8692 2.44082C20.2965 3.55461 16.5984 4.54902 12.8553 4.86425C11.2362 5.00092 9.61181 4.96898 7.99061 4.88624C5.49592 4.76047 3.00953 4.50721 0.541452 4.12748C-0.129758 4.02275 -0.23012 6.1032 0.541452 6.22206Z" fill="#595954"/>
<path d="M88.6581 11.4531C89.7249 11.4531 89.9857 12.1166 89.9857 12.7622C89.9857 13.4079 89.8858 13.7598 88.9767 13.7598C88.0676 13.7598 87.7554 13.3974 87.7554 12.5528C87.7554 11.7081 88.6581 11.4531 88.6581 11.4531Z" fill="#595954" stroke="#595954" stroke-width="0.61" stroke-linecap="round" stroke-linejoin="round"/>
</g>
<defs>
<clipPath id="clip0">
<rect width="90" height="16" fill="white"/>
</clipPath>
</defs>
</svg>
