<svg width="31" height="21" viewBox="0 0 31 21" fill="none" xmlns="http://www.w3.org/2000/svg">
<path d="M2.32259 0.474609C1.60119 0.474609 0.989258 1.08656 0.989258 1.80794V19.1413C0.989258 19.8626 1.60119 20.4746 2.32259 20.4746H29.6559C30.3773 20.4746 30.9893 19.8626 30.9893 19.1413V1.80794C30.9893 1.08656 30.3773 0.474609 29.6559 0.474609H2.32259V0.474609ZM4.30176 2.47461H27.6768L15.9893 12.4954L4.30176 2.47461V2.47461ZM2.98926 3.96419L15.3434 14.5579C15.524 14.7106 15.7528 14.7944 15.9893 14.7944C16.2257 14.7944 16.4545 14.7106 16.6351 14.5579L28.9893 3.96419V18.4746H2.98926V3.96419H2.98926Z" fill="#595954"/>
</svg>
