<svg width="82" height="82" viewBox="0 0 82 82" fill="none" xmlns="http://www.w3.org/2000/svg">
<path d="M28.0421 55.3922C20.6893 55.3922 13.7766 52.5288 8.57746 47.3297C-2.15538 36.5967 -2.15538 19.1333 8.57746 8.40029C13.7766 3.20133 20.6893 0.337891 28.0421 0.337891C35.3949 0.337891 42.3074 3.20133 47.5067 8.40044C52.7058 13.5996 55.5693 20.5122 55.5693 27.8651C55.5693 35.2179 52.7058 42.1304 47.5067 47.3297C42.3074 52.5288 35.3949 55.3922 28.0421 55.3922ZM28.0421 3.39646C21.5064 3.39646 15.3617 5.94166 10.7402 10.5632C1.19988 20.1035 1.19988 35.6266 10.7402 45.1668C15.3617 49.7885 21.5064 52.3336 28.0421 52.3336C34.5778 52.3336 40.7225 49.7885 45.344 45.1669C49.9655 40.5454 52.5107 34.4008 52.5107 27.8651C52.5107 21.3293 49.9655 15.1847 45.344 10.5632C40.7225 5.94166 34.5778 3.39646 28.0421 3.39646Z" fill="#0CCAF2"/>
<path d="M28.0417 33.0512C26.1976 33.0512 24.4637 32.3331 23.1596 31.029C20.4676 28.337 20.4676 23.9569 23.1596 21.2649C24.4638 19.9608 26.1976 19.2427 28.0417 19.2427C29.8859 19.2427 31.6196 19.9608 32.9238 21.2649C35.6158 23.9569 35.6158 28.337 32.9238 31.029C31.6198 32.3331 29.8859 33.0512 28.0417 33.0512ZM28.0417 22.3013C27.0145 22.3013 26.0488 22.7013 25.3223 23.4276C23.8229 24.927 23.8229 27.3667 25.3223 28.8662C26.0488 29.5926 27.0143 29.9926 28.0417 29.9926C29.0691 29.9926 30.0347 29.5926 30.7611 28.8662C32.2606 27.3667 32.2606 24.927 30.7611 23.4276C30.0347 22.7013 29.0689 22.3013 28.0417 22.3013Z" fill="#0CCAF2"/>
<path d="M46.6537 56.6591C46.2622 56.6591 45.871 56.5096 45.5723 56.2111L41.0162 51.6551C40.4191 51.0579 40.4191 50.0895 41.0162 49.4922L49.6671 40.8413C50.2645 40.2443 51.2325 40.2443 51.83 40.8413L56.386 45.3974C56.9832 45.9946 56.9832 46.9629 56.386 47.5603L47.7352 56.2111C47.4363 56.5098 47.045 56.6591 46.6537 56.6591ZM44.2603 50.5737L46.6535 52.9669L53.1417 46.4787L50.7485 44.0856L44.2603 50.5737Z" fill="#0CCAF2"/>
<path d="M38.7373 44.3086C38.5076 44.3086 38.2772 44.2569 38.0637 44.1522C37.5572 43.9037 37.2288 43.3966 37.2091 42.8326C37.0361 37.8699 33.0095 33.9823 28.0419 33.9823C23.0744 33.9823 19.0477 37.8699 18.8749 42.8326C18.8554 43.3966 18.5269 43.9037 18.0204 44.1522C17.514 44.4008 16.9118 44.3504 16.4538 44.0211C15.5769 43.3906 14.746 42.6847 13.9843 41.9229C6.23278 34.1714 6.23278 21.5588 13.9843 13.8073C17.7391 10.0523 22.7316 7.98438 28.0419 7.98438C33.3522 7.98438 38.3448 10.0523 42.0998 13.8073C45.8548 17.5623 47.9227 22.5548 47.9227 27.8651C47.9227 33.1754 45.8548 38.1679 42.0998 41.9229C41.3382 42.6845 40.5073 43.3904 39.6303 44.0211C39.3652 44.2115 39.0522 44.3086 38.7373 44.3086ZM28.0419 11.0429C23.5486 11.0429 19.3242 12.7928 16.1468 15.97C9.58788 22.529 9.58788 33.2011 16.1468 39.7601C16.1832 39.7965 16.2199 39.8329 16.2566 39.8689C16.8327 37.794 17.9526 35.8992 19.5359 34.3663C21.8288 32.1463 24.8496 30.9237 28.0419 30.9237C31.2343 30.9237 34.2551 32.1463 36.548 34.3663C38.1313 35.8991 39.2512 37.794 39.8272 39.8689C39.8641 39.8329 39.9005 39.7965 39.937 39.7601C43.1143 36.5828 44.8641 32.3585 44.8641 27.8651C44.8641 23.3718 43.1143 19.1474 39.9369 15.97C36.7596 12.7928 32.5353 11.0429 28.0419 11.0429Z" fill="#0CCAF2"/>
<path d="M28.0424 47.7441C23.8496 47.7441 19.8426 46.4566 16.4543 44.0206C16.0394 43.7224 15.8008 43.2364 15.8186 42.7258C15.9293 39.549 17.2495 36.5799 19.5364 34.3658C21.8293 32.146 24.8501 30.9233 28.0424 30.9233C31.2348 30.9233 34.2556 32.146 36.5485 34.3659C38.8354 36.5802 40.1556 39.5491 40.2664 42.7259C40.2841 43.2365 40.0457 43.7226 39.6306 44.0208C36.2423 46.4566 32.2353 47.7441 28.0424 47.7441ZM18.9395 42.0143C21.6497 43.7646 24.7791 44.6855 28.0424 44.6855C31.3058 44.6855 34.4352 43.7648 37.1454 42.0143C36.586 37.4488 32.7338 33.9819 28.0424 33.9819C23.3511 33.9819 19.4989 37.4488 18.9395 42.0143Z" fill="#0CCAF2"/>
<rect x="57.908" y="49.084" width="31.9115" height="12.2886" rx="1.08025" transform="rotate(45 57.908 49.084)" stroke="#0CCAF2" stroke-width="3"/>
</svg>
