<svg width="122" height="83" viewBox="0 0 122 83" fill="none" xmlns="http://www.w3.org/2000/svg">
<g clip-path="url(#clip0)">
<path d="M48.689 56.3763C41.4231 56.3763 34.5922 53.5467 29.4545 48.409C18.8485 37.8029 18.8485 20.5459 29.4545 9.93977C34.5922 4.80225 41.4231 1.97266 48.689 1.97266C55.955 1.97266 62.7858 4.80225 67.9236 9.93992C73.0613 15.0776 75.8909 21.9086 75.8909 29.1745C75.8909 36.4404 73.0613 43.2712 67.9236 48.409C62.7858 53.5467 55.955 56.3763 48.689 56.3763ZM48.689 4.99508C42.2306 4.99508 36.1585 7.51019 31.5916 12.0771C22.1641 21.5046 22.1641 36.8443 31.5916 46.2717C36.1585 50.8388 42.2306 53.3539 48.689 53.3539C55.1475 53.3539 61.2196 50.8388 65.7864 46.2719C70.3533 41.705 72.8684 35.6329 72.8684 29.1745C72.8684 22.716 70.3533 16.644 65.7864 12.0771C61.2196 7.51019 55.1475 4.99508 48.689 4.99508Z" fill="#0CCAF2"/>
<path d="M48.6887 34.2991C46.8663 34.2991 45.1529 33.5895 43.8643 32.3009C41.2041 29.6407 41.2041 25.3123 43.8643 22.6521C45.153 21.3635 46.8663 20.6538 48.6887 20.6538C50.511 20.6538 52.2243 21.3635 53.5131 22.6521C56.1733 25.3123 56.1733 29.6407 53.5131 32.3009C52.2245 33.5895 50.511 34.2991 48.6887 34.2991ZM48.6887 23.6762C47.6736 23.6762 46.7193 24.0716 46.0014 24.7892C44.5197 26.271 44.5197 28.6818 46.0014 30.1636C46.7193 30.8814 47.6734 31.2767 48.6887 31.2767C49.7039 31.2767 50.6581 30.8814 51.3759 30.1636C52.8577 28.6818 52.8577 26.271 51.3759 24.7892C50.6581 24.0716 49.7038 23.6762 48.6887 23.6762Z" fill="#0CCAF2"/>
<path d="M67.0808 57.6279C66.6939 57.6279 66.3073 57.4803 66.0122 57.1853L61.51 52.6831C60.9199 52.093 60.9199 51.1361 61.51 50.5458L70.0586 41.9972C70.6489 41.4072 71.6055 41.4072 72.1959 41.9972L76.6981 46.4994C77.2882 47.0895 77.2882 48.0464 76.6981 48.6367L68.1495 57.1853C67.8542 57.4804 67.4675 57.6279 67.0808 57.6279ZM64.7157 51.6145L67.0806 53.9794L73.4921 47.568L71.1272 45.2031L64.7157 51.6145Z" fill="#0CCAF2"/>
<path d="M59.2576 45.4237C59.0307 45.4237 58.8029 45.3726 58.592 45.2691C58.0914 45.0236 57.767 44.5224 57.7475 43.9651C57.5766 39.0611 53.5975 35.2194 48.6887 35.2194C43.7798 35.2194 39.8008 39.0611 39.63 43.9651C39.6107 44.5224 39.2861 45.0236 38.7855 45.2691C38.2852 45.5149 37.6901 45.465 37.2375 45.1396C36.3709 44.5165 35.5499 43.819 34.7972 43.0662C27.1373 35.4064 27.1373 22.9428 34.7972 15.2829C38.5076 11.5723 43.4411 9.52881 48.6887 9.52881C53.9362 9.52881 58.8697 11.5723 62.5803 15.2829C66.291 18.9935 68.3344 23.927 68.3344 29.1746C68.3344 34.4221 66.291 39.3556 62.5803 43.0662C61.8278 43.8188 61.0067 44.5164 60.14 45.1396C59.8781 45.3278 59.5688 45.4237 59.2576 45.4237ZM48.6887 12.5512C44.2484 12.5512 40.074 14.2804 36.9342 17.4201C30.4527 23.9015 30.4527 34.4475 36.9342 40.9289C36.9701 40.9649 37.0064 41.0009 37.0427 41.0365C37.6119 38.9861 38.7186 37.1137 40.2832 35.5989C42.5489 33.4052 45.534 32.197 48.6887 32.197C51.8433 32.197 54.8284 33.4052 57.0942 35.5989C58.6587 37.1136 59.7654 38.9861 60.3347 41.0365C60.3711 41.0009 60.4071 40.9649 60.4432 40.9289C63.5829 37.7892 65.312 33.6148 65.312 29.1746C65.312 24.7343 63.5829 20.5599 60.443 17.4201C57.3033 14.2804 53.1289 12.5512 48.6887 12.5512Z" fill="#0CCAF2"/>
<path d="M48.6892 48.8188C44.5459 48.8188 40.5863 47.5465 37.238 45.1393C36.828 44.8446 36.5923 44.3643 36.6098 43.8597C36.7192 40.7205 38.0238 37.7864 40.2837 35.5985C42.5495 33.405 45.5346 32.1968 48.6892 32.1968C51.8439 32.1968 54.829 33.405 57.0947 35.5987C59.3546 37.7868 60.6592 40.7206 60.7686 43.8599C60.7862 44.3645 60.5506 44.8447 60.1404 45.1394C56.7922 47.5465 52.8325 48.8188 48.6892 48.8188ZM39.6939 43.1567C42.3721 44.8863 45.4644 45.7963 48.6892 45.7963C51.914 45.7963 55.0064 44.8864 57.6846 43.1567C57.1318 38.6451 53.3252 35.2192 48.6892 35.2192C44.0533 35.2192 40.2467 38.6451 39.6939 43.1567Z" fill="#0CCAF2"/>
<rect x="78.2017" y="50.1426" width="31.5344" height="12.1433" rx="1.08025" transform="rotate(45 78.2017 50.1426)" stroke="#0CCAF2" stroke-width="3"/>
</g>
<defs>
<clipPath id="clip0">
</clipPath>
</defs>
</svg>
