<svg width="122" height="82" viewBox="0 0 122 82" fill="none" xmlns="http://www.w3.org/2000/svg">
<g clip-path="url(#clip0)">
<path d="M48.689 55.8763C41.4231 55.8763 34.5922 53.0467 29.4545 47.909C18.8485 37.3029 18.8485 20.0459 29.4545 9.43977C34.5922 4.30225 41.4231 1.47266 48.689 1.47266C55.955 1.47266 62.7858 4.30225 67.9236 9.43992C73.0613 14.5776 75.8909 21.4086 75.8909 28.6745C75.8909 35.9404 73.0613 42.7712 67.9236 47.909C62.7858 53.0467 55.955 55.8763 48.689 55.8763ZM48.689 4.49508C42.2306 4.49508 36.1585 7.01019 31.5916 11.5771C22.1641 21.0046 22.1641 36.3443 31.5916 45.7717C36.1585 50.3388 42.2306 52.8539 48.689 52.8539C55.1475 52.8539 61.2196 50.3388 65.7864 45.7719C70.3533 41.205 72.8684 35.1329 72.8684 28.6745C72.8684 22.216 70.3533 16.144 65.7864 11.5771C61.2196 7.01019 55.1475 4.49508 48.689 4.49508Z" fill="#0CCAF2"/>
<path d="M48.6887 33.7991C46.8663 33.7991 45.1529 33.0895 43.8643 31.8009C41.2041 29.1407 41.2041 24.8123 43.8643 22.1521C45.153 20.8635 46.8663 20.1538 48.6887 20.1538C50.511 20.1538 52.2243 20.8635 53.5131 22.1521C56.1733 24.8123 56.1733 29.1407 53.5131 31.8009C52.2245 33.0895 50.511 33.7991 48.6887 33.7991ZM48.6887 23.1762C47.6736 23.1762 46.7193 23.5716 46.0014 24.2892C44.5197 25.771 44.5197 28.1818 46.0014 29.6636C46.7193 30.3814 47.6734 30.7767 48.6887 30.7767C49.7039 30.7767 50.6581 30.3814 51.3759 29.6636C52.8577 28.1818 52.8577 25.771 51.3759 24.2892C50.6581 23.5716 49.7038 23.1762 48.6887 23.1762Z" fill="#0CCAF2"/>
<path d="M67.0808 57.1279C66.6939 57.1279 66.3073 56.9803 66.0122 56.6853L61.51 52.1831C60.9199 51.593 60.9199 50.6361 61.51 50.0458L70.0586 41.4972C70.6489 40.9072 71.6055 40.9072 72.1959 41.4972L76.6981 45.9994C77.2882 46.5895 77.2882 47.5464 76.6981 48.1367L68.1495 56.6853C67.8542 56.9804 67.4675 57.1279 67.0808 57.1279ZM64.7157 51.1145L67.0806 53.4794L73.4921 47.068L71.1272 44.7031L64.7157 51.1145Z" fill="#0CCAF2"/>
<path d="M59.2576 44.9237C59.0307 44.9237 58.8029 44.8726 58.592 44.7691C58.0914 44.5236 57.767 44.0224 57.7475 43.4651C57.5766 38.5611 53.5975 34.7194 48.6887 34.7194C43.7798 34.7194 39.8008 38.5611 39.63 43.4651C39.6107 44.0224 39.2861 44.5236 38.7855 44.7691C38.2852 45.0149 37.6901 44.965 37.2375 44.6396C36.3709 44.0165 35.5499 43.319 34.7972 42.5662C27.1373 34.9064 27.1373 22.4428 34.7972 14.7829C38.5076 11.0723 43.4411 9.02881 48.6887 9.02881C53.9362 9.02881 58.8697 11.0723 62.5803 14.7829C66.291 18.4935 68.3344 23.427 68.3344 28.6746C68.3344 33.9221 66.291 38.8556 62.5803 42.5662C61.8278 43.3188 61.0067 44.0164 60.14 44.6396C59.8781 44.8278 59.5688 44.9237 59.2576 44.9237ZM48.6887 12.0512C44.2484 12.0512 40.074 13.7804 36.9342 16.9201C30.4527 23.4015 30.4527 33.9475 36.9342 40.4289C36.9701 40.4649 37.0064 40.5009 37.0427 40.5365C37.6119 38.4861 38.7186 36.6137 40.2832 35.0989C42.5489 32.9052 45.534 31.697 48.6887 31.697C51.8433 31.697 54.8284 32.9052 57.0942 35.0989C58.6587 36.6136 59.7654 38.4861 60.3347 40.5365C60.3711 40.5009 60.4071 40.4649 60.4432 40.4289C63.5829 37.2892 65.312 33.1148 65.312 28.6746C65.312 24.2343 63.5829 20.0599 60.443 16.9201C57.3033 13.7804 53.1289 12.0512 48.6887 12.0512Z" fill="#0CCAF2"/>
<path d="M48.6892 48.3188C44.5459 48.3188 40.5863 47.0465 37.238 44.6393C36.828 44.3446 36.5923 43.8643 36.6098 43.3597C36.7192 40.2205 38.0238 37.2864 40.2837 35.0985C42.5495 32.905 45.5346 31.6968 48.6892 31.6968C51.8439 31.6968 54.829 32.905 57.0947 35.0987C59.3546 37.2868 60.6592 40.2206 60.7686 43.3599C60.7862 43.8645 60.5506 44.3447 60.1404 44.6394C56.7922 47.0465 52.8325 48.3188 48.6892 48.3188ZM39.6939 42.6567C42.3721 44.3863 45.4644 45.2963 48.6892 45.2963C51.914 45.2963 55.0064 44.3864 57.6846 42.6567C57.1318 38.1451 53.3252 34.7192 48.6892 34.7192C44.0533 34.7192 40.2467 38.1451 39.6939 42.6567Z" fill="#0CCAF2"/>
<rect x="78.2017" y="49.6426" width="31.5344" height="12.1433" rx="1.08025" transform="rotate(45 78.2017 49.6426)" stroke="#0CCAF2" stroke-width="3"/>
</g>
<defs>
<clipPath id="clip0">
</clipPath>
</defs>
</svg>
