<svg width="120" height="80" viewBox="0 0 120 80" fill="none" xmlns="http://www.w3.org/2000/svg">
<g clip-path="url(#clip0)">
<rect width="120" height="80" fill="white"/>
<path d="M47.5418 55.0543C40.189 55.0543 33.2763 52.1909 28.0772 46.9918C17.3444 36.2588 17.3444 18.7954 28.0772 8.0624C33.2763 2.86344 40.189 0 47.5418 0C54.8946 0 61.8072 2.86344 67.0064 8.06255C72.2056 13.2617 75.069 20.1744 75.069 27.5272C75.069 34.88 72.2056 41.7925 67.0064 46.9918C61.8072 52.1909 54.8946 55.0543 47.5418 55.0543ZM47.5418 3.05857C41.0061 3.05857 34.8614 5.60377 30.2399 10.2253C20.6996 19.7656 20.6996 35.2888 30.2399 44.8289C34.8614 49.4506 41.0061 51.9958 47.5418 51.9958C54.0776 51.9958 60.2222 49.4506 64.8437 44.8291C69.4652 40.2076 72.0104 34.0629 72.0104 27.5272C72.0104 20.9915 69.4652 14.8468 64.8437 10.2253C60.2222 5.60377 54.0776 3.05857 47.5418 3.05857Z" fill="#0CCAF2"/>
<path d="M47.5415 32.7133C45.6973 32.7133 43.9634 31.9952 42.6594 30.6912C39.9674 27.9992 39.9674 23.619 42.6594 20.927C43.9636 19.6229 45.6973 18.9048 47.5415 18.9048C49.3856 18.9048 51.1194 19.6229 52.4236 20.927C55.1156 23.619 55.1156 27.9992 52.4236 30.6912C51.1196 31.9952 49.3856 32.7133 47.5415 32.7133ZM47.5415 21.9634C46.5143 21.9634 45.5485 22.3634 44.8221 23.0897C43.3226 24.5891 43.3226 27.0288 44.8221 28.5283C45.5485 29.2547 46.5141 29.6548 47.5415 29.6548C48.5689 29.6548 49.5344 29.2547 50.2609 28.5283C51.7603 27.0288 51.7603 24.5891 50.2609 23.0897C49.5344 22.3634 48.5687 21.9634 47.5415 21.9634Z" fill="#0CCAF2"/>
<path d="M66.1534 56.3212C65.7619 56.3212 65.3707 56.1718 65.072 55.8732L60.5159 51.3172C59.9188 50.72 59.9188 49.7517 60.5159 49.1543L69.1668 40.5034C69.7642 39.9064 70.7322 39.9064 71.3297 40.5034L75.8857 45.0595C76.4829 45.6567 76.4829 46.625 75.8857 47.2224L67.2349 55.8732C66.936 56.1719 66.5447 56.3212 66.1534 56.3212ZM63.76 50.2358L66.1532 52.629L72.6414 46.1409L70.2482 43.7477L63.76 50.2358Z" fill="#0CCAF2"/>
<path d="M58.2371 43.9707C58.0074 43.9707 57.7769 43.919 57.5634 43.8143C57.0569 43.5658 56.7286 43.0587 56.7089 42.4947C56.5359 37.532 52.5093 33.6444 47.5417 33.6444C42.5741 33.6444 38.5475 37.532 38.3747 42.4947C38.3551 43.0587 38.0266 43.5658 37.5201 43.8143C37.0138 44.0629 36.4115 44.0125 35.9535 43.6832C35.0766 43.0527 34.2458 42.3468 33.484 41.585C25.7325 33.8335 25.7325 21.2209 33.484 13.4694C37.2389 9.71439 42.2314 7.64648 47.5417 7.64648C52.852 7.64648 57.8445 9.71439 61.5995 13.4694C65.3545 17.2244 67.4224 22.2169 67.4224 27.5272C67.4224 32.8375 65.3545 37.83 61.5995 41.585C60.8379 42.3466 60.0071 43.0525 59.13 43.6832C58.865 43.8736 58.552 43.9707 58.2371 43.9707ZM47.5417 10.7051C43.0483 10.7051 38.824 12.4549 35.6466 15.6321C29.0876 22.1911 29.0876 32.8632 35.6466 39.4222C35.683 39.4586 35.7197 39.495 35.7564 39.5311C36.3325 37.4561 37.4524 35.5613 39.0357 34.0284C41.3285 31.8085 44.3493 30.5858 47.5417 30.5858C50.7341 30.5858 53.7549 31.8085 56.0477 34.0284C57.631 35.5612 58.7509 37.4561 59.327 39.5311C59.3639 39.495 59.4003 39.4586 59.4368 39.4222C62.6141 36.2449 64.3639 32.0206 64.3639 27.5272C64.3639 23.0339 62.6141 18.8095 59.4367 15.6321C56.2594 12.4549 52.0351 10.7051 47.5417 10.7051Z" fill="#0CCAF2"/>
<path d="M47.5421 47.4062C43.3492 47.4062 39.3422 46.1187 35.9539 43.6827C35.539 43.3845 35.3004 42.8985 35.3182 42.3879C35.4289 39.2111 36.7491 36.242 39.036 34.0279C41.3289 31.8081 44.3497 30.5854 47.5421 30.5854C50.7345 30.5854 53.7553 31.8081 56.0481 34.028C58.335 36.2423 59.6553 39.2112 59.766 42.388C59.7837 42.8987 59.5453 43.3847 59.1303 43.6829C55.742 46.1187 51.7349 47.4062 47.5421 47.4062ZM38.4392 41.6764C41.1494 43.4267 44.2787 44.3477 47.5421 44.3477C50.8054 44.3477 53.9348 43.4269 56.645 41.6764C56.0856 37.1109 52.2335 33.644 47.5421 33.644C42.8507 33.644 38.9986 37.1109 38.4392 41.6764Z" fill="#0CCAF2"/>
<rect x="77.4076" y="48.7461" width="31.9115" height="12.2886" rx="1.08025" transform="rotate(45 77.4076 48.7461)" stroke="#0CCAF2" stroke-width="3"/>
</g>
<defs>
<clipPath id="clip0">
<rect width="120" height="80" fill="white"/>
</clipPath>
</defs>
</svg>
