<svg width="82" height="82" viewBox="0 0 82 82" fill="none" xmlns="http://www.w3.org/2000/svg">
<path d="M28.1275 55.3825C20.7747 55.3825 13.862 52.519 8.66291 47.3199C-2.06993 36.5869 -2.06993 19.1235 8.66291 8.39053C13.862 3.19156 20.7747 0.328125 28.1275 0.328125C35.4803 0.328125 42.3929 3.19156 47.5921 8.39068C52.7913 13.5898 55.6547 20.5025 55.6547 27.8553C55.6547 35.2081 52.7913 42.1206 47.5921 47.3199C42.3929 52.519 35.4803 55.3825 28.1275 55.3825ZM28.1275 3.3867C21.5918 3.3867 15.4471 5.93189 10.8256 10.5534C1.28533 20.0937 1.28533 35.6169 10.8256 45.157C15.4471 49.7787 21.5918 52.3239 28.1275 52.3239C34.6632 52.3239 40.8079 49.7787 45.4294 45.1572C50.0509 40.5357 52.5961 34.391 52.5961 27.8553C52.5961 21.3196 50.0509 15.1749 45.4294 10.5534C40.8079 5.93189 34.6632 3.3867 28.1275 3.3867Z" fill="#595954"/>
<path d="M28.1272 33.041C26.283 33.041 24.5491 32.3228 23.2451 31.0188C20.5531 28.3268 20.5531 23.9466 23.2451 21.2546C24.5493 19.9506 26.283 19.2324 28.1272 19.2324C29.9713 19.2324 31.7051 19.9506 33.0093 21.2546C35.7013 23.9466 35.7013 28.3268 33.0093 31.0188C31.7052 32.3228 29.9713 33.041 28.1272 33.041ZM28.1272 22.291C27.1 22.291 26.1342 22.6911 25.4078 23.4173C23.9083 24.9168 23.9083 27.3565 25.4078 28.8559C26.1342 29.5823 27.0998 29.9824 28.1272 29.9824C29.1545 29.9824 30.1201 29.5823 30.8466 28.8559C32.346 27.3565 32.346 24.9168 30.8466 23.4173C30.1201 22.6911 29.1544 22.291 28.1272 22.291Z" fill="#595954"/>
<path d="M46.7391 56.6503C46.3476 56.6503 45.9564 56.5009 45.6577 56.2023L41.1017 51.6463C40.5045 51.0491 40.5045 50.0808 41.1017 49.4834L49.7526 40.8325C50.3499 40.2355 51.3179 40.2355 51.9154 40.8325L56.4715 45.3886C57.0687 45.9858 57.0687 46.9541 56.4715 47.5515L47.8206 56.2023C47.5218 56.501 47.1305 56.6503 46.7391 56.6503ZM44.3458 50.5649L46.739 52.9581L53.2271 46.47L50.8339 44.0768L44.3458 50.5649Z" fill="#595954"/>
<path d="M38.8225 44.2989C38.5928 44.2989 38.3624 44.2472 38.1489 44.1424C37.6424 43.8939 37.314 43.3868 37.2943 42.8228C37.1213 37.8601 33.0947 33.9725 28.1271 33.9725C23.1596 33.9725 19.133 37.8601 18.9601 42.8228C18.9406 43.3868 18.6121 43.8939 18.1056 44.1424C17.5992 44.3911 16.997 44.3406 16.539 44.0113C15.6621 43.3808 14.8312 42.6749 14.0695 41.9132C6.31798 34.1617 6.31798 21.549 14.0695 13.7975C17.8243 10.0425 22.8169 7.97461 28.1271 7.97461C33.4374 7.97461 38.43 10.0425 42.185 13.7975C45.94 17.5525 48.0079 22.545 48.0079 27.8553C48.0079 33.1656 45.94 38.1582 42.185 41.9132C41.4234 42.6748 40.5925 43.3807 39.7155 44.0113C39.4505 44.2017 39.1374 44.2989 38.8225 44.2989ZM28.1271 11.0332C23.6338 11.0332 19.4094 12.783 16.232 15.9602C9.67309 22.5192 9.67309 33.1913 16.232 39.7503C16.2684 39.7867 16.3051 39.8231 16.3419 39.8592C16.9179 37.7842 18.0378 35.8895 19.6211 34.3565C21.914 32.1366 24.9348 30.9139 28.1271 30.9139C31.3195 30.9139 34.3403 32.1366 36.6332 34.3565C38.2165 35.8893 39.3364 37.7842 39.9124 39.8592C39.9493 39.8231 39.9857 39.7867 40.0223 39.7503C43.1995 36.573 44.9493 32.3487 44.9493 27.8553C44.9493 23.362 43.1995 19.1376 40.0221 15.9602C36.8449 12.783 32.6205 11.0332 28.1271 11.0332Z" fill="#595954"/>
<path d="M28.1277 47.7348C23.9348 47.7348 19.9278 46.4473 16.5395 44.0113C16.1246 43.7131 15.886 43.2271 15.9038 42.7165C16.0145 39.5397 17.3347 36.5706 19.6216 34.3565C21.9145 32.1367 24.9353 30.9141 28.1277 30.9141C31.32 30.9141 34.3408 32.1367 36.6337 34.3566C38.9206 36.5709 40.2408 39.5399 40.3516 42.7166C40.3693 43.2273 40.1309 43.7133 39.7158 44.0115C36.3275 46.4473 32.3205 47.7348 28.1277 47.7348ZM19.0247 42.0051C21.7349 43.7553 24.8643 44.6763 28.1277 44.6763C31.391 44.6763 34.5204 43.7555 37.2306 42.0051C36.6712 37.4395 32.819 33.9726 28.1277 33.9726C23.4363 33.9726 19.5841 37.4395 19.0247 42.0051Z" fill="#595954"/>
<rect width="31.9115" height="12.2886" rx="1.08025" transform="matrix(0.707107 0.707106 -0.707107 0.707106 57.9932 49.0742)" stroke="#595954" stroke-width="3"/>
</svg>
