<svg width="278" height="24" viewBox="0 0 278 24" fill="none" xmlns="http://www.w3.org/2000/svg">
<path d="M-1.8608e-06 4.72889C9.4407 4.72889 8.81752 18.9452 17.3125 18.9452C25.8075 18.9452 26.13 4.72888 34.625 4.72888C43.12 4.72888 43.4425 18.9452 51.9375 18.9452C60.4325 18.9452 60.755 4.72887 69.25 4.72888C77.745 4.72888 78.0675 18.9453 86.5625 18.9453C95.0575 18.9453 95.38 4.72887 103.875 4.72887C112.37 4.72887 112.693 18.9453 121.188 18.9453C129.683 18.9453 130.005 4.72887 138.5 4.72887C146.995 4.72887 147.318 18.9453 155.813 18.9453C164.308 18.9453 164.63 4.72886 173.125 4.72886C181.62 4.72886 181.943 18.9453 190.438 18.9453C198.933 18.9453 199.255 4.72886 207.75 4.72886C216.245 4.72885 216.568 18.9452 225.063 18.9452C233.558 18.9452 233.88 4.72886 242.375 4.72885C250.87 4.72885 251.193 18.9452 259.688 18.9452C268.183 18.9452 270.75 4.72886 277 4.72885" stroke="#D5FE00" stroke-width="9"/>
</svg>
