<svg width="122" height="83" viewBox="0 0 122 83" fill="none" xmlns="http://www.w3.org/2000/svg">
<path d="M99.8748 22.3302L103.051 25.508C103.307 25.7638 103.722 25.7638 103.977 25.5081L111.289 18.1968" stroke="#0CCAF2" stroke-width="3" stroke-linecap="round"/>
<circle cx="74.5001" cy="35.3375" r="6.39313" stroke="#0CCAF2" stroke-width="3"/>
<path d="M85.6814 57.0009H85.6667H85.652H85.6372H85.6224H85.6076H85.5927H85.5778H85.5628H85.5478H85.5328H85.5177H85.5026H85.4875H85.4723H85.4571H85.4419H85.4266H85.4113H85.396H85.3806H85.3652H85.3498H85.3343H85.3188H85.3032H85.2876H85.272H85.2564H85.2407H85.2249H85.2092H85.1934H85.1776H85.1617H85.1458H85.1299H85.1139H85.0979H85.0819H85.0658H85.0497H85.0336H85.0174H85.0012H84.985H84.9687H84.9524H84.9361H84.9197H84.9033H84.8869H84.8704H84.8539H84.8374H84.8208H84.8042H84.7875H84.7709H84.7542H84.7374H84.7207H84.7039H84.687H84.6702H84.6533H84.6363H84.6194H84.6024H84.5853H84.5683H84.5512H84.534H84.5169H84.4997H84.4824H84.4652H84.4479H84.4306H84.4132H84.3958H84.3784H84.3609H84.3435H84.3259H84.3084H84.2908H84.2732H84.2556H84.2379H84.2202H84.2024H84.1847H84.1669H84.149H84.1312H84.1133H84.0953H84.0774H84.0594H84.0414H84.0233H84.0052H83.9871H83.969H83.9508H83.9326H83.9143H83.8961H83.8778H83.8594H83.8411H83.8227H83.8042H83.7858H83.7673H83.7488H83.7302H83.7117H83.693H83.6744H83.6557H83.637H83.6183H83.5996H83.5808H83.5619H83.5431H83.5242H83.5053H83.4864H83.4674H83.4484H83.4294H83.4103H83.3912H83.3721H83.353H83.3338H83.3146H83.2954H83.2761H83.2568H83.2375H83.2181H83.1987H83.1793H83.1599H83.1404H83.1209H83.1014H83.0818H83.0623H83.0427H83.023H83.0033H82.9836H82.9639H82.9442H82.9244H82.9046H82.8847H82.8649H82.845H82.825H82.8051H82.7851H82.7651H82.745H82.725H82.7049H82.6848H82.6646H82.6444H82.6242H82.604H82.5837H82.5634H82.5431H82.5228H82.5024H82.482H82.4616H82.4411H82.4206H82.4001H82.3796H82.359H82.3384H82.3178H82.2972H82.2765H82.2558H82.2351H82.2143H82.1936H82.1728H82.1519H82.1311H82.1102H82.0893H82.0683H82.0474H82.0264H82.0053H81.9843H81.9632H81.9421H81.921H81.8999H81.8787H81.8575H81.8363H81.815H81.7937H81.7724H81.7511H81.7297H81.7083H81.6869H81.6655H81.644H81.6225H81.601H81.5795H81.5579H81.5363H81.5147H81.4931H81.4714H81.4497H81.428H81.4063H81.3845H81.3627H81.3409H81.3191H81.2972H81.2753H81.2534H81.2315H81.2095H81.1875H81.1655H81.1435H81.1214H81.0993H81.0772H81.0551H81.0329H81.0107H80.9885H80.9663H80.9441H80.9218H80.8995H80.8771H80.8548H80.8324H80.81H80.7876H80.7651H80.7427H80.7202H80.6977H80.6751H80.6526H80.63H80.6074H80.5847H80.5621H80.5394H80.5167H80.4939H80.4712H80.4484H80.4256H80.4028H80.38H80.3571H80.3342H80.3113H80.2884H80.2654H80.2424H80.2194H80.1964H80.1733H80.1503H80.1272H80.1041H80.0809H80.0578H80.0346H80.0114H79.9881H79.9649H79.9416H79.9183H79.895H79.8717H79.8483H79.8249H79.8015H79.7781H79.7547H79.7312H79.7077H79.6842H79.6607H79.6371H79.6135H79.5899H79.5663H79.5427H79.519H79.4953H79.4716H79.4479H79.4242H79.4004H79.3766H79.3528H79.329H79.3051H79.2813H79.2574H79.2335H79.2095H79.1856H79.1616H79.1376H79.1136H79.0895H79.0655H79.0414H79.0173H78.9932H78.9691H78.9449H78.9207H78.8965H78.8723H78.8481H78.8238H78.7996H78.7753H78.7509H78.7266H78.7022H78.6779H78.6535H78.6291H78.6046H78.5802H78.5557H78.5312H78.5067H78.4822H78.4576H78.4331H78.4085H78.3839H78.3592H78.3346H78.3099H78.2852H78.2605H78.2358H78.2111H78.1863H78.1616H78.1368H78.1119H78.0871H78.0623H78.0374H78.0125H77.9876H77.9627H77.9377H77.9128H77.8878H77.8628H77.8378H77.8128H77.7877H77.7626H77.7376H77.7125H77.6873H77.6622H77.637H77.6119H77.5867H77.5615H77.5362H77.511H77.4857H77.4604H77.4352H77.4098H77.3845H77.3592H77.3338H77.3084H77.283H77.2576H77.2322H77.2067H77.1812H77.1558H77.1303H77.1047H77.0792H77.0537H77.0281H77.0025H76.9769H76.9513H76.9257H76.9H76.8744H76.8487H76.823H76.7973H76.7715H76.7458H76.72H76.6942H76.6685H76.6426H76.6168H76.591H76.5651H76.5393H76.5134H76.4875H76.4615H76.4356H76.4097H76.3837H76.3577H76.3317H76.3057H76.2797H76.2536H76.2276H76.2015H76.1754H76.1493H76.1232H76.0971H76.0709H76.0448H76.0186H75.9924H75.9662H75.94H75.9137H75.8875H75.8612H75.835H75.8087H75.7824H75.756H75.7297H75.7034H75.677H75.6506H75.6242H75.5978H75.5714H75.545H75.5185H75.4921H75.4656H75.4391H75.4126H75.3861H75.3596H75.333H75.3065H75.2799H75.2533H75.2267H75.2001H75.1735H75.1468H75.1202H75.0935H75.0669H75.0402H75.0135H74.9868H74.96H74.9333H74.9065H74.8798H74.853H74.8262H74.7994H74.7726H74.7458H74.7189H74.6921H74.6652H74.6383H74.6114H74.5845H74.5576H74.5307H74.5038H74.4768H74.4499H74.423H74.3961H74.3692H74.3423H74.3154H74.2886H74.2618H74.2349H74.2081H74.1813H74.1545H74.1277H74.101H74.0742H74.0475H74.0208H73.994H73.9673H73.9407H73.914H73.8873H73.8607H73.834H73.8074H73.7808H73.7542H73.7276H73.7011H73.6745H73.648H73.6214H73.5949H73.5684H73.5419H73.5155H73.489H73.4626H73.4361H73.4097H73.3833H73.3569H73.3305H73.3042H73.2778H73.2515H73.2252H73.1989H73.1726H73.1463H73.12H73.0938H73.0675H73.0413H73.0151H72.9889H72.9628H72.9366H72.9104H72.8843H72.8582H72.8321H72.806H72.7799H72.7539H72.7278H72.7018H72.6758H72.6498H72.6238H72.5979H72.5719H72.546H72.5201H72.4942H72.4683H72.4424H72.4165H72.3907H72.3649H72.3391H72.3133H72.2875H72.2617H72.236H72.2103H72.1845H72.1588H72.1332H72.1075H72.0819H72.0562H72.0306H72.005H71.9794H71.9539H71.9283H71.9028H71.8773H71.8518H71.8263H71.8008H71.7754H71.7499H71.7245H71.6991H71.6737H71.6484H71.623H71.5977H71.5724H71.5471H71.5218H71.4965H71.4713H71.4461H71.4209H71.3957H71.3705H71.3453H71.3202H71.2951H71.27H71.2449H71.2198H71.1948H71.1697H71.1447H71.1197H71.0947H71.0698H71.0448H71.0199H70.995H70.9701H70.9453H70.9204H70.8956H70.8708H70.846H70.8212H70.7964H70.7717H70.747H70.7223H70.6976H70.6729H70.6483H70.6237H70.5991H70.5745H70.5499H70.5253H70.5008H70.4763H70.4518H70.4273H70.4029H70.3785H70.354H70.3296H70.3053H70.2809H70.2566H70.2323H70.208H70.1837H70.1594H70.1352H70.111H70.0868H70.0626H70.0385H70.0143H69.9902H69.9661H69.942H69.918H69.8939H69.8699H69.8459H69.822H69.798H69.7741H69.7502H69.7263H69.7024H69.6785H69.6547H69.6309H69.6071H69.5834H69.5596H69.5359H69.5122H69.4885H69.4648H69.4412H69.4176H69.394H69.3704H69.3469H69.3233H69.2998H69.2763H69.2529H69.2294H69.206H69.1826H69.1592H69.1358H69.1125H69.0892H69.0659H69.0426H69.0194H68.9961H68.9729H68.9498H68.9266H68.9035H68.8803H68.8573H68.8342H68.8111H68.7881H68.7651H68.7421H68.7192H68.6962H68.6733H68.6504H68.6276H68.6047H68.5819H68.5591H68.5363H68.5136H68.4908H68.4681H68.4455H68.4228H68.4002H68.3776H68.355H68.3324H68.3099H68.2873H68.2648H68.2424H68.2199H68.1975H68.1751H68.1527H68.1304H68.1081H68.0857H68.0635H68.0412H68.019H67.9968H67.9746H67.9524H67.9303H67.9082H67.8861H67.864H67.842H67.82H67.798H67.776H67.7541H67.7322H67.7103H67.6884H67.6666H67.6448H67.623H67.6012H67.5795H67.5578H67.5361H67.5144H67.4928H67.4712H67.4496H67.428H67.4065H67.385H67.3635H67.342H67.3206H67.2992H67.2778H67.2564H67.2351H67.2138H67.1925H67.1713H67.15H67.1288H67.1077H67.0865H67.0654H67.0443H67.0232H67.0022H66.9812H66.9602H66.9392H66.9183H66.8973H66.8765H66.8556H66.8348H66.814H66.7932H66.7724H66.7517H66.731H66.7103H66.6897H66.6691H66.6485H66.6279H66.6074H66.5869H66.5664H66.5459H66.5255H66.5051H66.4847H66.4644H66.4441H66.4238H66.4035H66.3833H66.3631H66.3429H66.3228H66.3026H66.2825H66.2625H66.2424H66.2224H66.2024H66.1825H66.1626H66.1427H66.1228H66.103H66.0831H66.0634H66.0436H66.0239H66.0042H65.9845H65.9649H65.9453H65.9257H65.9061H65.8866H65.8671H65.8476H65.8282H65.8088H65.7894H65.77H65.7507H65.7314H65.7122H65.6929H65.6737H65.6546H65.6354H65.6163H65.5972H65.5781H65.5591H65.5401H65.5211H65.5022H65.4833H65.4644H65.4456H65.4268H65.408H65.3892H65.3705H65.3518H65.3331H65.3145H65.2959H65.2773H65.2587H65.2402H65.2217H65.2033H65.1849H65.1665H65.1481H65.1298H65.1115H65.0932H65.075H65.0567H65.0386H65.0204H65.0023H64.9842H64.9662H64.9481H64.9302H64.9122H64.8943H64.8764H64.8585H64.8407H64.8229H64.8051H64.7873H64.7696H64.752H64.7343H64.7167H64.6991H64.6816H64.6641H64.6466H64.6291H64.6117H64.5943H64.577H64.5596H64.5423H64.5251H64.5078H64.4907H64.4735H64.4564H64.4393H64.4222H64.4052H64.3882H64.3712H64.3543H64.3374H64.3205H64.3037H64.2869H64.2701H64.2533H64.2366H64.22H64.2033H64.1867H64.1702H64.1536H64.1371H64.1207H64.1042H64.0878H64.0714H64.0551H64.0388H64.0225H64.0063H63.9901H63.9739H63.9578H63.9417H63.9256H63.9096H63.8936H63.8776H63.8617H63.8458H63.83H63.8141H63.7983H63.7826H63.7669H63.7512H63.7355H63.7199H63.7043H63.6888H63.6732H63.6578H63.6423H63.6269H63.6115H63.5962H63.5809H63.5656H63.5504H63.5352H63.52H63.5049H63.4898H63.4747H63.4597H63.4447H63.4298H63.4148H63.4H63.3851H63.3703H63.3555H63.3408H63.3261C62.6518 57.0009 62.3083 56.49 62.3602 56.0747C63.3189 48.4146 68.6005 43.0015 74.5038 43.0015C80.407 43.0015 85.6886 48.4146 86.6473 56.0747C86.6993 56.49 86.3558 57.0009 85.6814 57.0009Z" stroke="#0CCAF2" stroke-width="3"/>
<path d="M91.6933 12.1758H118.381C118.999 12.1758 119.499 12.6767 119.499 13.2946V30.3616C119.499 30.9796 118.999 31.4805 118.381 31.4805H97.4529C96.6578 31.4805 95.8999 31.8174 95.3672 32.4077L92.524 35.5583C91.8375 36.319 90.5745 35.8334 90.5745 34.8087V13.2946C90.5745 12.6767 91.0754 12.1758 91.6933 12.1758Z" stroke="#0CCAF2" stroke-width="3"/>
<mask id="path-5-inside-1" fill="white">
<rect x="1.00024" y="9.20361" width="37.7166" height="49.2974" rx="2.61886"/>
</mask>
<rect x="1.00024" y="9.20361" width="37.7166" height="49.2974" rx="2.61886" fill="white" stroke="#0CCAF2" stroke-width="6" mask="url(#path-5-inside-1)"/>
<mask id="path-6-inside-2" fill="white">
<rect x="8.65039" y="16.8516" width="37.7166" height="49.2974" rx="2.61886"/>
</mask>
<rect x="8.65039" y="16.8516" width="37.7166" height="49.2974" rx="2.61886" fill="white" stroke="#0CCAF2" stroke-width="6" mask="url(#path-6-inside-2)"/>
<mask id="path-7-inside-3" fill="white">
<rect x="16.2959" y="24.499" width="37.7166" height="49.2974" rx="2.61886"/>
</mask>
<rect x="16.2959" y="24.499" width="37.7166" height="49.2974" rx="2.61886" fill="white" stroke="#0CCAF2" stroke-width="6" mask="url(#path-7-inside-3)"/>
<mask id="path-8-inside-4" fill="white">
<rect x="22.9849" y="31.5083" width="24.3397" height="17.6398" rx="2.61886"/>
</mask>
<rect x="22.9849" y="31.5083" width="24.3397" height="17.6398" rx="2.61886" stroke="#0CCAF2" stroke-width="6" mask="url(#path-8-inside-4)"/>
<line x1="25.5913" y1="59.3232" x2="44.8191" y2="59.3232" stroke="#0CCAF2" stroke-width="3" stroke-linecap="round"/>
<line x1="25.5913" y1="63.0063" x2="44.8191" y2="63.0063" stroke="#0CCAF2" stroke-width="3" stroke-linecap="round"/>
<line x1="25.4929" y1="55.6387" x2="44.7207" y2="55.6387" stroke="#0CCAF2" stroke-width="3" stroke-linecap="round"/>
</svg>
