<svg width="122" height="83" viewBox="0 0 122 83" fill="none" xmlns="http://www.w3.org/2000/svg">
<path d="M88.8529 1.5L70.4552 19.8976C67.4356 19.0588 64.2703 18.5623 61 18.5623C60.6871 18.5623 60.379 18.582 60.0694 18.5902L42.9776 1.5L21 23.4776L29.9047 32.3823C25.1943 36.5471 22.3156 40.1254 22.0322 40.4825L21.2277 41.5L22.0322 42.5174C22.4123 42.9975 27.4635 49.2775 35.359 54.9939L28.4384 61.9145L22.3648 80.1352L40.5855 74.0616L51.5448 63.1024C54.5643 63.9412 57.7297 64.4377 61 64.4377C61.3129 64.4377 61.621 64.418 61.9306 64.4098L79.0224 81.5L101 59.5224L92.0953 50.6177C96.8057 46.4529 99.6844 42.8746 99.9678 42.5174L100.772 41.5L99.9678 40.4825C99.5877 40.0025 94.5365 33.7225 86.641 28.0061L101 13.6471L88.8529 1.5ZM96.3666 13.6471L92.1297 17.884L84.616 10.3703L88.8529 6.13341L96.3666 13.6471ZM25.6334 23.4776L42.9776 6.13341L45.5761 8.73192L41.8192 12.4888L44.1359 14.8055L47.8928 11.0486L50.4913 13.6471L46.7344 17.404L49.0511 19.7207L52.808 15.9638L55.8243 18.9801C46.5607 20.4154 38.3966 25.4256 32.4148 30.2589L25.6334 23.4776ZM30.5863 65.8319L36.6681 71.9137L27.5454 74.9546L30.5863 65.8319ZM39.7007 70.313L32.187 62.7993L38.1082 56.8781C41.118 58.8261 44.4603 60.612 48.0533 61.9604L39.7007 70.313ZM91.4514 54.6072L87.6945 58.3641L90.0112 60.6808L93.7681 56.9239L96.3666 59.5224L79.0224 76.8666L66.1757 64.0215C75.4393 62.5863 83.6034 57.576 89.5852 52.7427L91.4514 54.6072ZM96.537 41.5C92.9046 45.6648 78.218 61.1609 61 61.1609C43.8066 61.1609 29.1003 45.6615 25.463 41.5C29.0954 37.3352 43.782 21.8391 61 21.8391C78.1934 21.8391 92.8997 37.3385 96.537 41.5ZM73.9467 21.0396L82.2993 12.687L89.813 20.2007L83.8918 26.1219C80.882 24.1722 77.5397 22.388 73.9467 21.0396Z" fill="#0CCAF2"/>
<path d="M46.2532 41.5005C46.2532 49.6303 52.8674 56.2462 60.9988 56.2462C69.1302 56.2462 75.7445 49.6303 75.7445 41.5005C75.7445 33.3708 69.1302 26.7549 60.9988 26.7549C52.8674 26.7549 46.2532 33.3708 46.2532 41.5005ZM72.4676 41.5005C72.4676 47.8248 67.3214 52.9694 60.9988 52.9694C54.6762 52.9694 49.53 47.8248 49.53 41.5005C49.53 35.1763 54.6762 30.0317 60.9988 30.0317C67.3214 30.0317 72.4676 35.1763 72.4676 41.5005Z" fill="#0CCAF2"/>
</svg>
