<svg width="120" height="80" viewBox="0 0 120 80" fill="none" xmlns="http://www.w3.org/2000/svg">
<rect width="120" height="80" fill="white"/>
<path d="M87.8529 0L69.4552 18.3976C66.4356 17.5588 63.2703 17.0623 60 17.0623C59.6871 17.0623 59.379 17.082 59.0694 17.0902L41.9776 0L20 21.9776L28.9047 30.8823C24.1943 35.0471 21.3156 38.6254 21.0322 38.9825L20.2277 40L21.0322 41.0174C21.4123 41.4975 26.4635 47.7775 34.359 53.4939L27.4384 60.4145L21.3648 78.6352L39.5855 72.5616L50.5448 61.6024C53.5643 62.4412 56.7297 62.9377 60 62.9377C60.3129 62.9377 60.621 62.918 60.9306 62.9098L78.0224 80L100 58.0224L91.0953 49.1177C95.8057 44.9529 98.6844 41.3746 98.9678 41.0174L99.7723 40L98.9678 38.9825C98.5877 38.5025 93.5365 32.2225 85.641 26.5061L100 12.1471L87.8529 0ZM95.3666 12.1471L91.1297 16.384L83.616 8.87032L87.8529 4.63341L95.3666 12.1471ZM24.6334 21.9776L41.9776 4.63341L44.5761 7.23192L40.8192 10.9888L43.1359 13.3055L46.8928 9.54862L49.4913 12.1471L45.7344 15.904L48.0511 18.2207L51.808 14.4638L54.8243 17.4801C45.5607 18.9154 37.3966 23.9256 31.4148 28.7589L24.6334 21.9776ZM29.5863 64.3319L35.6681 70.4137L26.5454 73.4546L29.5863 64.3319ZM38.7007 68.813L31.187 61.2993L37.1082 55.3781C40.118 57.3261 43.4603 59.112 47.0533 60.4604L38.7007 68.813ZM90.4514 53.1072L86.6945 56.8641L89.0112 59.1808L92.7681 55.4239L95.3666 58.0224L78.0224 75.3666L65.1757 62.5215C74.4393 61.0863 82.6034 56.076 88.5852 51.2427L90.4514 53.1072ZM95.537 40C91.9046 44.1648 77.218 59.6609 60 59.6609C42.8066 59.6609 28.1003 44.1615 24.463 40C28.0954 35.8352 42.782 20.3391 60 20.3391C77.1934 20.3391 91.8997 35.8385 95.537 40ZM72.9467 19.5396L81.2993 11.187L88.813 18.7007L82.8918 24.6219C79.882 22.6722 76.5397 20.888 72.9467 19.5396Z" fill="#0CCAF2"/>
<path d="M45.2531 40.0005C45.2531 48.1303 51.8674 54.7462 59.9988 54.7462C68.1302 54.7462 74.7444 48.1303 74.7444 40.0005C74.7444 31.8708 68.1302 25.2549 59.9988 25.2549C51.8674 25.2549 45.2531 31.8708 45.2531 40.0005ZM71.4676 40.0005C71.4676 46.3248 66.3214 51.4694 59.9988 51.4694C53.6762 51.4694 48.5299 46.3248 48.5299 40.0005C48.5299 33.6763 53.6762 28.5317 59.9988 28.5317C66.3214 28.5317 71.4676 33.6763 71.4676 40.0005Z" fill="#0CCAF2"/>
</svg>
