<svg width="81" height="81" viewBox="0 0 81 81" fill="none" xmlns="http://www.w3.org/2000/svg">
<path d="M67.8542 0.394531L49.4566 18.7922C46.437 17.9533 43.2716 17.4569 40.0013 17.4569C39.6884 17.4569 39.3804 17.4765 39.0707 17.4847L21.9789 0.394531L0.00134277 22.3721L8.90607 31.2768C4.19566 35.4416 1.31698 39.0199 1.03354 39.3771L0.229081 40.3945L1.03354 41.412C1.41365 41.892 6.46485 48.172 14.3603 53.8884L7.4397 60.809L1.36613 79.0297L19.5868 72.9562L30.5461 61.9969C33.5657 62.8358 36.7311 63.3322 40.0013 63.3322C40.3143 63.3322 40.6223 63.3125 40.932 63.3043L58.0238 80.3945L80.0013 58.417L71.0966 49.5122C75.807 45.3474 78.6857 41.7692 78.9691 41.412L79.7736 40.3945L78.9691 39.3771C78.589 38.897 73.5378 32.617 65.6424 26.9006L80.0013 12.5417L67.8542 0.394531ZM75.3679 12.5417L71.131 16.7786L63.6173 9.26485L67.8542 5.02794L75.3679 12.5417ZM4.63475 22.3721L21.9789 5.02794L24.5774 7.62645L20.8205 11.3833L23.1372 13.7L26.8941 9.94315L29.4926 12.5417L25.7358 16.2985L28.0525 18.6152L31.8093 14.8584L34.8256 17.8747C25.5621 19.3099 17.3979 24.3201 11.4161 29.1534L4.63475 22.3721ZM9.58765 64.7265L15.6694 70.8082L6.54677 73.8491L9.58765 64.7265ZM18.7021 69.2075L11.1884 61.6938L17.1096 55.7726C20.1193 57.7207 23.4616 59.5065 27.0547 60.8549L18.7021 69.2075ZM70.4527 53.5018L66.6959 57.2586L69.0126 59.5753L72.7694 55.8185L75.3679 58.417L58.0238 75.7611L45.1771 62.916C54.4406 61.4808 62.6048 56.4705 68.5866 51.6373L70.4527 53.5018ZM75.5383 40.3945C71.906 44.5594 57.2193 60.0554 40.0013 60.0554C22.8079 60.0554 8.10161 44.5561 4.46436 40.3945C8.0967 36.2297 22.7834 20.7337 40.0013 20.7337C57.1948 20.7337 71.9011 36.233 75.5383 40.3945ZM52.948 19.9341L61.3006 11.5816L68.8143 19.0953L62.8931 25.0165C59.8834 23.0668 56.541 21.2825 52.948 19.9341Z" fill="#0CCAF2"/>
<path d="M25.2545 40.3951C25.2545 48.5248 31.8688 55.1407 40.0002 55.1407C48.1316 55.1407 54.7458 48.5248 54.7458 40.3951C54.7458 32.2653 48.1316 25.6494 40.0002 25.6494C31.8688 25.6494 25.2545 32.2653 25.2545 40.3951ZM51.469 40.3951C51.469 46.7193 46.3228 51.8639 40.0002 51.8639C33.6776 51.8639 28.5313 46.7193 28.5313 40.3951C28.5313 34.0708 33.6776 28.9262 40.0002 28.9262C46.3228 28.9262 51.469 34.0708 51.469 40.3951Z" fill="#0CCAF2"/>
</svg>
