<svg width="97" height="98" viewBox="0 0 97 98" fill="none" xmlns="http://www.w3.org/2000/svg">
<path d="M82.2776 0.980469L60.1781 23.0799C56.551 22.0722 52.7487 21.4759 48.8204 21.4759C48.4445 21.4759 48.0745 21.4995 47.7025 21.5094L27.1716 0.980469L0.771973 27.3801L11.4684 38.0765C5.81023 43.0793 2.35233 47.3776 2.01186 47.8066L1.04553 49.0288L2.01186 50.251C2.46845 50.8276 8.536 58.3712 18.0201 65.2378L9.707 73.5509L2.41137 95.4378L24.2983 88.1421L37.4627 74.9777C41.0898 75.9854 44.8921 76.5817 48.8204 76.5817C49.1963 76.5817 49.5663 76.5581 49.9383 76.5483L70.4692 97.0771L96.8688 70.6775L86.1724 59.9811C91.8306 54.9783 95.2885 50.68 95.629 50.251L96.5953 49.0288L95.629 47.8066C95.1724 47.23 89.1048 39.6864 79.6207 32.8198L96.8688 15.5717L82.2776 0.980469ZM91.3031 15.5717L86.2137 20.6611L77.1881 11.6356L82.2776 6.54616L91.3031 15.5717ZM6.33767 27.3801L27.1716 6.54616L30.293 9.66751L25.7802 14.1803L28.5631 16.9631L33.0759 12.4504L36.1972 15.5717L31.6844 20.0845L34.4673 22.8673L38.9801 18.3545L42.6033 21.9778C31.4758 23.7018 21.6689 29.7201 14.4835 35.5259L6.33767 27.3801ZM12.2871 78.2565L19.5926 85.562L8.63441 89.2147L12.2871 78.2565ZM23.2355 83.6392L14.2099 74.6137L21.3225 67.5011C24.9379 69.8411 28.9527 71.9863 33.2687 73.606L23.2355 83.6392ZM85.3989 64.7733L80.8861 69.2861L83.669 72.0689L88.1818 67.5562L91.3031 70.6775L70.4692 91.5115L55.0375 76.0818C66.165 74.3578 75.9719 68.3395 83.1573 62.5337L85.3989 64.7733ZM91.5078 49.0288C87.1446 54.0316 69.5028 72.6456 48.8204 72.6456C28.1675 72.6456 10.5021 54.0277 6.13299 49.0288C10.4962 44.026 28.138 25.412 48.8204 25.412C69.4733 25.412 87.1387 44.0299 91.5078 49.0288ZM64.3721 24.4516L74.4053 14.4184L83.4309 23.444L76.3183 30.5565C72.7029 28.2146 68.6881 26.0713 64.3721 24.4516Z" fill="#595954"/>
<path d="M31.1074 49.0293C31.1074 58.795 39.0525 66.7422 48.82 66.7422C58.5876 66.7422 66.5327 58.795 66.5327 49.0293C66.5327 39.2636 58.5876 31.3164 48.82 31.3164C39.0525 31.3164 31.1074 39.2636 31.1074 49.0293ZM62.5965 49.0293C62.5965 56.6262 56.4148 62.806 48.82 62.806C41.2253 62.806 35.0436 56.6262 35.0436 49.0293C35.0436 41.4324 41.2253 35.2526 48.82 35.2526C56.4148 35.2526 62.5965 41.4324 62.5965 49.0293Z" fill="#595954"/>
</svg>
