<svg width="1440" height="942" viewBox="0 0 1440 942" fill="none" xmlns="http://www.w3.org/2000/svg">
<g filter="url(#filter0_d)">
<path d="M0 687.38C120.023 687.38 120.023 897.088 239.977 897.088C359.93 897.088 360 687.38 479.953 687.38C599.907 687.38 599.977 897.088 720 897.088C840.023 897.088 839.953 687.38 959.977 687.38C1080 687.38 1080 897.088 1199.95 897.088C1319.91 897.088 1319.98 687.38 1440 687.38" fill="#FCBBB5"/>
<path d="M0 687.38C120.023 687.38 120.023 897.088 239.977 897.088C359.93 897.088 360 687.38 479.953 687.38C599.907 687.38 599.977 897.088 720 897.088C840.023 897.088 839.953 687.38 959.977 687.38C1080 687.38 1080 897.088 1199.95 897.088C1319.91 897.088 1319.98 687.38 1440 687.38V8.18481e-06L720 2.34436e-05H0V687.38Z" fill="#FCBBB5"/>
</g>
<defs>
<filter id="filter0_d" x="-40" y="-36" width="1520" height="977.088" filterUnits="userSpaceOnUse" color-interpolation-filters="sRGB">
<feFlood flood-opacity="0" result="BackgroundImageFix"/>
<feColorMatrix in="SourceAlpha" type="matrix" values="0 0 0 0 0 0 0 0 0 0 0 0 0 0 0 0 0 0 127 0"/>
<feOffset dy="4"/>
<feGaussianBlur stdDeviation="20"/>
<feColorMatrix type="matrix" values="0 0 0 0 0 0 0 0 0 0 0 0 0 0 0 0 0 0 0.2 0"/>
<feBlend mode="normal" in2="BackgroundImageFix" result="effect1_dropShadow"/>
<feBlend mode="normal" in="SourceGraphic" in2="effect1_dropShadow" result="shape"/>
</filter>
</defs>
</svg>
